%MOIN*%
%OFA0B0*%
%FSLAX44Y44*%
%IPPOS*%
%LPD*%
%ADD10C,0*%
D10*
X00022636Y00025968D02*
X00022636Y00025968D01*
X00025808Y00025968D01*
X00025839Y00025967D01*
X00025870Y00025963D01*
X00025900Y00025957D01*
X00025930Y00025949D01*
X00025959Y00025938D01*
X00025987Y00025925D01*
X00026014Y00025910D01*
X00026040Y00025893D01*
X00026064Y00025874D01*
X00026087Y00025853D01*
X00026108Y00025830D01*
X00026127Y00025806D01*
X00026144Y00025780D01*
X00026159Y00025753D01*
X00026172Y00025725D01*
X00026183Y00025696D01*
X00026191Y00025666D01*
X00026197Y00025636D01*
X00026201Y00025605D01*
X00026202Y00025574D01*
X00026202Y00025377D01*
X00026201Y00025347D01*
X00026197Y00025316D01*
X00026191Y00025286D01*
X00026183Y00025256D01*
X00026172Y00025227D01*
X00026159Y00025199D01*
X00026144Y00025172D01*
X00026127Y00025146D01*
X00026108Y00025122D01*
X00026087Y00025099D01*
X00026064Y00025078D01*
X00026040Y00025059D01*
X00026014Y00025042D01*
X00025987Y00025027D01*
X00025959Y00025014D01*
X00025930Y00025003D01*
X00025900Y00024995D01*
X00025870Y00024989D01*
X00025839Y00024985D01*
X00025808Y00024984D01*
X00022636Y00024984D01*
X00022605Y00024985D01*
X00022574Y00024989D01*
X00022544Y00024995D01*
X00022514Y00025003D01*
X00022485Y00025014D01*
X00022457Y00025027D01*
X00022430Y00025042D01*
X00022404Y00025059D01*
X00022380Y00025078D01*
X00022357Y00025099D01*
X00022336Y00025122D01*
X00022317Y00025146D01*
X00022300Y00025172D01*
X00022285Y00025199D01*
X00022272Y00025227D01*
X00022261Y00025256D01*
X00022253Y00025286D01*
X00022247Y00025316D01*
X00022243Y00025347D01*
X00022242Y00025377D01*
X00022242Y00025574D01*
X00022243Y00025605D01*
X00022247Y00025636D01*
X00022253Y00025666D01*
X00022261Y00025696D01*
X00022272Y00025725D01*
X00022285Y00025753D01*
X00022300Y00025780D01*
X00022317Y00025806D01*
X00022336Y00025830D01*
X00022357Y00025853D01*
X00022380Y00025874D01*
X00022404Y00025893D01*
X00022430Y00025910D01*
X00022457Y00025925D01*
X00022485Y00025938D01*
X00022514Y00025949D01*
X00022544Y00025957D01*
X00022574Y00025963D01*
X00022605Y00025967D01*
X00022636Y00025968D01*
X00011651Y00025968D02*
X00011651Y00025968D01*
X00014824Y00025968D01*
X00014855Y00025967D01*
X00014886Y00025963D01*
X00014916Y00025957D01*
X00014946Y00025949D01*
X00014975Y00025938D01*
X00015003Y00025925D01*
X00015030Y00025910D01*
X00015055Y00025893D01*
X00015080Y00025874D01*
X00015102Y00025853D01*
X00015123Y00025830D01*
X00015143Y00025806D01*
X00015160Y00025780D01*
X00015175Y00025753D01*
X00015188Y00025725D01*
X00015198Y00025696D01*
X00015207Y00025666D01*
X00015213Y00025636D01*
X00015216Y00025605D01*
X00015218Y00025574D01*
X00015218Y00025377D01*
X00015216Y00025347D01*
X00015213Y00025316D01*
X00015207Y00025286D01*
X00015198Y00025256D01*
X00015188Y00025227D01*
X00015175Y00025199D01*
X00015160Y00025172D01*
X00015143Y00025146D01*
X00015123Y00025122D01*
X00015102Y00025099D01*
X00015080Y00025078D01*
X00015055Y00025059D01*
X00015030Y00025042D01*
X00015003Y00025027D01*
X00014975Y00025014D01*
X00014946Y00025003D01*
X00014916Y00024995D01*
X00014886Y00024989D01*
X00014855Y00024985D01*
X00014824Y00024984D01*
X00011651Y00024984D01*
X00011620Y00024985D01*
X00011590Y00024989D01*
X00011559Y00024995D01*
X00011530Y00025003D01*
X00011501Y00025014D01*
X00011473Y00025027D01*
X00011446Y00025042D01*
X00011420Y00025059D01*
X00011396Y00025078D01*
X00011373Y00025099D01*
X00011352Y00025122D01*
X00011333Y00025146D01*
X00011316Y00025172D01*
X00011301Y00025199D01*
X00011288Y00025227D01*
X00011277Y00025256D01*
X00011269Y00025286D01*
X00011263Y00025316D01*
X00011259Y00025347D01*
X00011258Y00025377D01*
X00011258Y00025574D01*
X00011259Y00025605D01*
X00011263Y00025636D01*
X00011269Y00025666D01*
X00011277Y00025696D01*
X00011288Y00025725D01*
X00011301Y00025753D01*
X00011316Y00025780D01*
X00011333Y00025806D01*
X00011352Y00025830D01*
X00011373Y00025853D01*
X00011396Y00025874D01*
X00011420Y00025893D01*
X00011446Y00025910D01*
X00011473Y00025925D01*
X00011501Y00025938D01*
X00011530Y00025949D01*
X00011559Y00025957D01*
X00011590Y00025963D01*
X00011620Y00025967D01*
X00011651Y00025968D01*
X00003840Y00011999D02*
X00003840Y00011999D01*
X00000000Y00011999D01*
X00000000Y00000000D01*
X00009999Y00000000D01*
X00009999Y00004840D01*
X00010001Y00004871D01*
X00010004Y00004901D01*
X00010010Y00004932D01*
X00010019Y00004961D01*
X00010029Y00004990D01*
X00010042Y00005018D01*
X00010058Y00005045D01*
X00010075Y00005071D01*
X00010094Y00005095D01*
X00010115Y00005118D01*
X00010138Y00005139D01*
X00010162Y00005158D01*
X00010187Y00005175D01*
X00010214Y00005191D01*
X00010243Y00005203D01*
X00010272Y00005214D01*
X00010301Y00005223D01*
X00010332Y00005229D01*
X00010362Y00005232D01*
X00010393Y00005233D01*
X00010590Y00005233D01*
X00010621Y00005232D01*
X00010652Y00005229D01*
X00010682Y00005223D01*
X00010712Y00005214D01*
X00010741Y00005203D01*
X00010769Y00005191D01*
X00010796Y00005175D01*
X00010821Y00005158D01*
X00010846Y00005139D01*
X00010868Y00005118D01*
X00010889Y00005095D01*
X00010909Y00005071D01*
X00010926Y00005045D01*
X00010941Y00005018D01*
X00010954Y00004990D01*
X00010964Y00004961D01*
X00010973Y00004932D01*
X00010979Y00004901D01*
X00010983Y00004871D01*
X00010984Y00004840D01*
X00010984Y00000000D01*
X00020984Y00000000D01*
X00020984Y00004840D01*
X00020985Y00004871D01*
X00020989Y00004901D01*
X00020995Y00004932D01*
X00021003Y00004961D01*
X00021014Y00004990D01*
X00021027Y00005018D01*
X00021042Y00005045D01*
X00021059Y00005071D01*
X00021078Y00005095D01*
X00021099Y00005118D01*
X00021122Y00005139D01*
X00021146Y00005158D01*
X00021172Y00005175D01*
X00021199Y00005191D01*
X00021227Y00005203D01*
X00021256Y00005214D01*
X00021286Y00005223D01*
X00021316Y00005229D01*
X00021347Y00005232D01*
X00021377Y00005233D01*
X00021574Y00005233D01*
X00021605Y00005232D01*
X00021636Y00005229D01*
X00021666Y00005223D01*
X00021696Y00005214D01*
X00021725Y00005203D01*
X00021753Y00005191D01*
X00021780Y00005175D01*
X00021806Y00005158D01*
X00021830Y00005139D01*
X00021853Y00005118D01*
X00021874Y00005095D01*
X00021893Y00005071D01*
X00021910Y00005045D01*
X00021925Y00005018D01*
X00021938Y00004990D01*
X00021949Y00004961D01*
X00021957Y00004932D01*
X00021963Y00004901D01*
X00021967Y00004871D01*
X00021968Y00004840D01*
X00021968Y00000000D01*
X00031968Y00000000D01*
X00031968Y00011999D01*
X00028128Y00011999D01*
X00028097Y00012001D01*
X00028066Y00012004D01*
X00028036Y00012010D01*
X00028006Y00012019D01*
X00027977Y00012029D01*
X00027949Y00012042D01*
X00027922Y00012058D01*
X00027896Y00012075D01*
X00027872Y00012094D01*
X00027849Y00012115D01*
X00027828Y00012138D01*
X00027809Y00012162D01*
X00027792Y00012187D01*
X00027777Y00012214D01*
X00027764Y00012243D01*
X00027753Y00012272D01*
X00027745Y00012301D01*
X00027739Y00012332D01*
X00027735Y00012362D01*
X00027734Y00012393D01*
X00027734Y00012590D01*
X00027735Y00012621D01*
X00027739Y00012652D01*
X00027745Y00012682D01*
X00027753Y00012712D01*
X00027764Y00012741D01*
X00027777Y00012769D01*
X00027792Y00012796D01*
X00027809Y00012821D01*
X00027828Y00012846D01*
X00027849Y00012868D01*
X00027872Y00012889D01*
X00027896Y00012909D01*
X00027922Y00012926D01*
X00027949Y00012941D01*
X00027977Y00012954D01*
X00028006Y00012964D01*
X00028036Y00012973D01*
X00028066Y00012979D01*
X00028097Y00012983D01*
X00028128Y00012984D01*
X00031968Y00012984D01*
X00031968Y00024984D01*
X00028128Y00024984D01*
X00028097Y00024985D01*
X00028066Y00024989D01*
X00028036Y00024995D01*
X00028006Y00025003D01*
X00027977Y00025014D01*
X00027949Y00025027D01*
X00027922Y00025042D01*
X00027896Y00025059D01*
X00027872Y00025078D01*
X00027849Y00025099D01*
X00027828Y00025122D01*
X00027809Y00025146D01*
X00027792Y00025172D01*
X00027777Y00025199D01*
X00027764Y00025227D01*
X00027753Y00025256D01*
X00027745Y00025286D01*
X00027739Y00025316D01*
X00027735Y00025347D01*
X00027734Y00025377D01*
X00027734Y00025574D01*
X00027735Y00025605D01*
X00027739Y00025636D01*
X00027745Y00025666D01*
X00027753Y00025696D01*
X00027764Y00025725D01*
X00027777Y00025753D01*
X00027792Y00025780D01*
X00027809Y00025806D01*
X00027828Y00025830D01*
X00027849Y00025853D01*
X00027872Y00025874D01*
X00027896Y00025893D01*
X00027922Y00025910D01*
X00027949Y00025925D01*
X00027977Y00025938D01*
X00028006Y00025949D01*
X00028036Y00025957D01*
X00028066Y00025963D01*
X00028097Y00025967D01*
X00028128Y00025968D01*
X00031968Y00025968D01*
X00031968Y00037968D01*
X00021968Y00037968D01*
X00021968Y00033128D01*
X00021967Y00033097D01*
X00021963Y00033066D01*
X00021957Y00033036D01*
X00021949Y00033006D01*
X00021938Y00032977D01*
X00021925Y00032949D01*
X00021910Y00032922D01*
X00021893Y00032896D01*
X00021874Y00032872D01*
X00021853Y00032849D01*
X00021830Y00032828D01*
X00021806Y00032809D01*
X00021780Y00032792D01*
X00021753Y00032777D01*
X00021725Y00032764D01*
X00021696Y00032753D01*
X00021666Y00032745D01*
X00021636Y00032739D01*
X00021605Y00032735D01*
X00021574Y00032734D01*
X00021377Y00032734D01*
X00021347Y00032735D01*
X00021316Y00032739D01*
X00021286Y00032745D01*
X00021256Y00032753D01*
X00021227Y00032764D01*
X00021199Y00032777D01*
X00021172Y00032792D01*
X00021146Y00032809D01*
X00021122Y00032828D01*
X00021099Y00032849D01*
X00021078Y00032872D01*
X00021059Y00032896D01*
X00021042Y00032922D01*
X00021027Y00032949D01*
X00021014Y00032977D01*
X00021003Y00033006D01*
X00020995Y00033036D01*
X00020989Y00033066D01*
X00020985Y00033097D01*
X00020984Y00033128D01*
X00020984Y00037968D01*
X00010984Y00037968D01*
X00010984Y00033128D01*
X00010983Y00033097D01*
X00010979Y00033066D01*
X00010973Y00033036D01*
X00010964Y00033006D01*
X00010954Y00032977D01*
X00010941Y00032949D01*
X00010926Y00032922D01*
X00010909Y00032896D01*
X00010889Y00032872D01*
X00010868Y00032849D01*
X00010846Y00032828D01*
X00010821Y00032809D01*
X00010796Y00032792D01*
X00010769Y00032777D01*
X00010741Y00032764D01*
X00010712Y00032753D01*
X00010682Y00032745D01*
X00010652Y00032739D01*
X00010621Y00032735D01*
X00010590Y00032734D01*
X00010393Y00032734D01*
X00010362Y00032735D01*
X00010332Y00032739D01*
X00010301Y00032745D01*
X00010272Y00032753D01*
X00010243Y00032764D01*
X00010214Y00032777D01*
X00010187Y00032792D01*
X00010162Y00032809D01*
X00010138Y00032828D01*
X00010115Y00032849D01*
X00010094Y00032872D01*
X00010075Y00032896D01*
X00010058Y00032922D01*
X00010042Y00032949D01*
X00010029Y00032977D01*
X00010019Y00033006D01*
X00010010Y00033036D01*
X00010004Y00033066D01*
X00010001Y00033097D01*
X00009999Y00033128D01*
X00009999Y00037968D01*
X00000000Y00037968D01*
X00000000Y00025968D01*
X00003840Y00025968D01*
X00003871Y00025967D01*
X00003901Y00025963D01*
X00003932Y00025957D01*
X00003961Y00025949D01*
X00003990Y00025938D01*
X00004018Y00025925D01*
X00004045Y00025910D01*
X00004071Y00025893D01*
X00004095Y00025874D01*
X00004118Y00025853D01*
X00004139Y00025830D01*
X00004158Y00025806D01*
X00004175Y00025780D01*
X00004191Y00025753D01*
X00004203Y00025725D01*
X00004214Y00025696D01*
X00004223Y00025666D01*
X00004229Y00025636D01*
X00004232Y00025605D01*
X00004233Y00025574D01*
X00004233Y00025377D01*
X00004232Y00025347D01*
X00004229Y00025316D01*
X00004223Y00025286D01*
X00004214Y00025256D01*
X00004203Y00025227D01*
X00004191Y00025199D01*
X00004175Y00025172D01*
X00004158Y00025146D01*
X00004139Y00025122D01*
X00004118Y00025099D01*
X00004095Y00025078D01*
X00004071Y00025059D01*
X00004045Y00025042D01*
X00004018Y00025027D01*
X00003990Y00025014D01*
X00003961Y00025003D01*
X00003932Y00024995D01*
X00003901Y00024989D01*
X00003871Y00024985D01*
X00003840Y00024984D01*
X00000000Y00024984D01*
X00000000Y00012984D01*
X00003840Y00012984D01*
X00003871Y00012983D01*
X00003901Y00012979D01*
X00003932Y00012973D01*
X00003961Y00012964D01*
X00003990Y00012954D01*
X00004018Y00012941D01*
X00004045Y00012926D01*
X00004071Y00012909D01*
X00004095Y00012889D01*
X00004118Y00012868D01*
X00004139Y00012846D01*
X00004158Y00012821D01*
X00004175Y00012796D01*
X00004191Y00012769D01*
X00004203Y00012741D01*
X00004214Y00012712D01*
X00004223Y00012682D01*
X00004229Y00012652D01*
X00004232Y00012621D01*
X00004233Y00012590D01*
X00004233Y00012393D01*
X00004232Y00012362D01*
X00004229Y00012332D01*
X00004223Y00012301D01*
X00004214Y00012272D01*
X00004203Y00012243D01*
X00004191Y00012214D01*
X00004175Y00012187D01*
X00004158Y00012162D01*
X00004139Y00012138D01*
X00004118Y00012115D01*
X00004095Y00012094D01*
X00004071Y00012075D01*
X00004045Y00012058D01*
X00004018Y00012042D01*
X00003990Y00012029D01*
X00003961Y00012019D01*
X00003932Y00012010D01*
X00003901Y00012004D01*
X00003871Y00012001D01*
X00003840Y00011999D01*
X00020984Y00024316D02*
X00020984Y00024316D01*
X00020985Y00024347D01*
X00020989Y00024378D01*
X00020995Y00024408D01*
X00021003Y00024438D01*
X00021014Y00024467D01*
X00021027Y00024495D01*
X00021042Y00024522D01*
X00021059Y00024548D01*
X00021078Y00024572D01*
X00021099Y00024595D01*
X00021122Y00024616D01*
X00021146Y00024635D01*
X00021172Y00024652D01*
X00021199Y00024667D01*
X00021227Y00024680D01*
X00021256Y00024691D01*
X00021286Y00024699D01*
X00021316Y00024705D01*
X00021347Y00024709D01*
X00021377Y00024710D01*
X00021574Y00024710D01*
X00021605Y00024709D01*
X00021636Y00024705D01*
X00021666Y00024699D01*
X00021696Y00024691D01*
X00021725Y00024680D01*
X00021753Y00024667D01*
X00021780Y00024652D01*
X00021806Y00024635D01*
X00021830Y00024616D01*
X00021853Y00024595D01*
X00021874Y00024572D01*
X00021893Y00024548D01*
X00021910Y00024522D01*
X00021925Y00024495D01*
X00021938Y00024467D01*
X00021949Y00024438D01*
X00021957Y00024408D01*
X00021963Y00024378D01*
X00021967Y00024347D01*
X00021968Y00024316D01*
X00021968Y00020143D01*
X00021967Y00020113D01*
X00021963Y00020082D01*
X00021957Y00020052D01*
X00021949Y00020022D01*
X00021938Y00019993D01*
X00021925Y00019965D01*
X00021910Y00019938D01*
X00021893Y00019912D01*
X00021874Y00019888D01*
X00021853Y00019865D01*
X00021830Y00019844D01*
X00021806Y00019825D01*
X00021780Y00019808D01*
X00021753Y00019793D01*
X00021725Y00019780D01*
X00021696Y00019769D01*
X00021666Y00019761D01*
X00021636Y00019755D01*
X00021605Y00019751D01*
X00021574Y00019750D01*
X00021377Y00019750D01*
X00021347Y00019751D01*
X00021316Y00019755D01*
X00021286Y00019761D01*
X00021256Y00019769D01*
X00021227Y00019780D01*
X00021199Y00019793D01*
X00021172Y00019808D01*
X00021146Y00019825D01*
X00021122Y00019844D01*
X00021099Y00019865D01*
X00021078Y00019888D01*
X00021059Y00019912D01*
X00021042Y00019938D01*
X00021027Y00019965D01*
X00021014Y00019993D01*
X00021003Y00020022D01*
X00020995Y00020052D01*
X00020989Y00020082D01*
X00020985Y00020113D01*
X00020984Y00020143D01*
X00020984Y00024316D01*
X00020316Y00025968D02*
X00020316Y00025968D01*
X00020347Y00025967D01*
X00020378Y00025963D01*
X00020408Y00025957D01*
X00020438Y00025949D01*
X00020467Y00025938D01*
X00020495Y00025925D01*
X00020522Y00025910D01*
X00020548Y00025893D01*
X00020572Y00025874D01*
X00020595Y00025853D01*
X00020616Y00025830D01*
X00020635Y00025806D01*
X00020652Y00025780D01*
X00020667Y00025753D01*
X00020680Y00025725D01*
X00020691Y00025696D01*
X00020699Y00025666D01*
X00020705Y00025636D01*
X00020709Y00025605D01*
X00020710Y00025574D01*
X00020710Y00025377D01*
X00020709Y00025347D01*
X00020705Y00025316D01*
X00020699Y00025286D01*
X00020691Y00025256D01*
X00020680Y00025227D01*
X00020667Y00025199D01*
X00020652Y00025172D01*
X00020635Y00025146D01*
X00020616Y00025122D01*
X00020595Y00025099D01*
X00020572Y00025078D01*
X00020548Y00025059D01*
X00020522Y00025042D01*
X00020495Y00025027D01*
X00020467Y00025014D01*
X00020438Y00025003D01*
X00020408Y00024995D01*
X00020378Y00024989D01*
X00020347Y00024985D01*
X00020316Y00024984D01*
X00017143Y00024984D01*
X00017113Y00024985D01*
X00017082Y00024989D01*
X00017052Y00024995D01*
X00017022Y00025003D01*
X00016993Y00025014D01*
X00016965Y00025027D01*
X00016938Y00025042D01*
X00016912Y00025059D01*
X00016888Y00025078D01*
X00016865Y00025099D01*
X00016844Y00025122D01*
X00016825Y00025146D01*
X00016808Y00025172D01*
X00016793Y00025199D01*
X00016780Y00025227D01*
X00016769Y00025256D01*
X00016761Y00025286D01*
X00016755Y00025316D01*
X00016751Y00025347D01*
X00016750Y00025377D01*
X00016750Y00025574D01*
X00016751Y00025605D01*
X00016755Y00025636D01*
X00016761Y00025666D01*
X00016769Y00025696D01*
X00016780Y00025725D01*
X00016793Y00025753D01*
X00016808Y00025780D01*
X00016825Y00025806D01*
X00016844Y00025830D01*
X00016865Y00025853D01*
X00016888Y00025874D01*
X00016912Y00025893D01*
X00016938Y00025910D01*
X00016965Y00025925D01*
X00016993Y00025938D01*
X00017022Y00025949D01*
X00017052Y00025957D01*
X00017082Y00025963D01*
X00017113Y00025967D01*
X00017143Y00025968D01*
X00020316Y00025968D01*
X00021968Y00026636D02*
X00021968Y00026636D01*
X00021967Y00026605D01*
X00021963Y00026574D01*
X00021957Y00026544D01*
X00021949Y00026514D01*
X00021938Y00026485D01*
X00021925Y00026457D01*
X00021910Y00026430D01*
X00021893Y00026404D01*
X00021874Y00026380D01*
X00021853Y00026357D01*
X00021830Y00026336D01*
X00021806Y00026317D01*
X00021780Y00026300D01*
X00021753Y00026285D01*
X00021725Y00026272D01*
X00021696Y00026261D01*
X00021666Y00026253D01*
X00021636Y00026247D01*
X00021605Y00026243D01*
X00021574Y00026242D01*
X00021377Y00026242D01*
X00021347Y00026243D01*
X00021316Y00026247D01*
X00021286Y00026253D01*
X00021256Y00026261D01*
X00021227Y00026272D01*
X00021199Y00026285D01*
X00021172Y00026300D01*
X00021146Y00026317D01*
X00021122Y00026336D01*
X00021099Y00026357D01*
X00021078Y00026380D01*
X00021059Y00026404D01*
X00021042Y00026430D01*
X00021027Y00026457D01*
X00021014Y00026485D01*
X00021003Y00026514D01*
X00020995Y00026544D01*
X00020989Y00026574D01*
X00020985Y00026605D01*
X00020984Y00026636D01*
X00020984Y00030808D01*
X00020985Y00030839D01*
X00020989Y00030870D01*
X00020995Y00030900D01*
X00021003Y00030930D01*
X00021014Y00030959D01*
X00021027Y00030987D01*
X00021042Y00031014D01*
X00021059Y00031040D01*
X00021078Y00031064D01*
X00021099Y00031087D01*
X00021122Y00031108D01*
X00021146Y00031127D01*
X00021172Y00031144D01*
X00021199Y00031159D01*
X00021227Y00031172D01*
X00021256Y00031183D01*
X00021286Y00031191D01*
X00021316Y00031197D01*
X00021347Y00031201D01*
X00021377Y00031202D01*
X00021574Y00031202D01*
X00021605Y00031201D01*
X00021636Y00031197D01*
X00021666Y00031191D01*
X00021696Y00031183D01*
X00021725Y00031172D01*
X00021753Y00031159D01*
X00021780Y00031144D01*
X00021806Y00031127D01*
X00021830Y00031108D01*
X00021853Y00031087D01*
X00021874Y00031064D01*
X00021893Y00031040D01*
X00021910Y00031014D01*
X00021925Y00030987D01*
X00021938Y00030959D01*
X00021949Y00030930D01*
X00021957Y00030900D01*
X00021963Y00030870D01*
X00021967Y00030839D01*
X00021968Y00030808D01*
X00021968Y00026636D01*
X00022636Y00011999D02*
X00022636Y00011999D01*
X00022605Y00012001D01*
X00022574Y00012004D01*
X00022544Y00012010D01*
X00022514Y00012019D01*
X00022485Y00012029D01*
X00022457Y00012042D01*
X00022430Y00012058D01*
X00022404Y00012075D01*
X00022380Y00012094D01*
X00022357Y00012115D01*
X00022336Y00012138D01*
X00022317Y00012162D01*
X00022300Y00012187D01*
X00022285Y00012214D01*
X00022272Y00012243D01*
X00022261Y00012272D01*
X00022253Y00012301D01*
X00022247Y00012332D01*
X00022243Y00012362D01*
X00022242Y00012393D01*
X00022242Y00012590D01*
X00022243Y00012621D01*
X00022247Y00012652D01*
X00022253Y00012682D01*
X00022261Y00012712D01*
X00022272Y00012741D01*
X00022285Y00012769D01*
X00022300Y00012796D01*
X00022317Y00012821D01*
X00022336Y00012846D01*
X00022357Y00012868D01*
X00022380Y00012889D01*
X00022404Y00012909D01*
X00022430Y00012926D01*
X00022457Y00012941D01*
X00022485Y00012954D01*
X00022514Y00012964D01*
X00022544Y00012973D01*
X00022574Y00012979D01*
X00022605Y00012983D01*
X00022636Y00012984D01*
X00025808Y00012984D01*
X00025839Y00012983D01*
X00025870Y00012979D01*
X00025900Y00012973D01*
X00025930Y00012964D01*
X00025959Y00012954D01*
X00025987Y00012941D01*
X00026014Y00012926D01*
X00026040Y00012909D01*
X00026064Y00012889D01*
X00026087Y00012868D01*
X00026108Y00012846D01*
X00026127Y00012821D01*
X00026144Y00012796D01*
X00026159Y00012769D01*
X00026172Y00012741D01*
X00026183Y00012712D01*
X00026191Y00012682D01*
X00026197Y00012652D01*
X00026201Y00012621D01*
X00026202Y00012590D01*
X00026202Y00012393D01*
X00026201Y00012362D01*
X00026197Y00012332D01*
X00026191Y00012301D01*
X00026183Y00012272D01*
X00026172Y00012243D01*
X00026159Y00012214D01*
X00026144Y00012187D01*
X00026127Y00012162D01*
X00026108Y00012138D01*
X00026087Y00012115D01*
X00026064Y00012094D01*
X00026040Y00012075D01*
X00026014Y00012058D01*
X00025987Y00012042D01*
X00025959Y00012029D01*
X00025930Y00012019D01*
X00025900Y00012010D01*
X00025870Y00012004D01*
X00025839Y00012001D01*
X00025808Y00011999D01*
X00022636Y00011999D01*
X00020984Y00011332D02*
X00020984Y00011332D01*
X00020985Y00011363D01*
X00020989Y00011393D01*
X00020995Y00011424D01*
X00021003Y00011454D01*
X00021014Y00011483D01*
X00021027Y00011511D01*
X00021042Y00011538D01*
X00021059Y00011563D01*
X00021078Y00011588D01*
X00021099Y00011610D01*
X00021122Y00011631D01*
X00021146Y00011650D01*
X00021172Y00011668D01*
X00021199Y00011683D01*
X00021227Y00011696D01*
X00021256Y00011706D01*
X00021286Y00011715D01*
X00021316Y00011721D01*
X00021347Y00011724D01*
X00021377Y00011726D01*
X00021574Y00011726D01*
X00021605Y00011724D01*
X00021636Y00011721D01*
X00021666Y00011715D01*
X00021696Y00011706D01*
X00021725Y00011696D01*
X00021753Y00011683D01*
X00021780Y00011668D01*
X00021806Y00011650D01*
X00021830Y00011631D01*
X00021853Y00011610D01*
X00021874Y00011588D01*
X00021893Y00011563D01*
X00021910Y00011538D01*
X00021925Y00011511D01*
X00021938Y00011483D01*
X00021949Y00011454D01*
X00021957Y00011424D01*
X00021963Y00011393D01*
X00021967Y00011363D01*
X00021968Y00011332D01*
X00021968Y00007159D01*
X00021967Y00007128D01*
X00021963Y00007098D01*
X00021957Y00007067D01*
X00021949Y00007038D01*
X00021938Y00007009D01*
X00021925Y00006981D01*
X00021910Y00006954D01*
X00021893Y00006928D01*
X00021874Y00006904D01*
X00021853Y00006881D01*
X00021830Y00006860D01*
X00021806Y00006841D01*
X00021780Y00006824D01*
X00021753Y00006808D01*
X00021725Y00006796D01*
X00021696Y00006785D01*
X00021666Y00006776D01*
X00021636Y00006770D01*
X00021605Y00006767D01*
X00021574Y00006766D01*
X00021377Y00006766D01*
X00021347Y00006767D01*
X00021316Y00006770D01*
X00021286Y00006776D01*
X00021256Y00006785D01*
X00021227Y00006796D01*
X00021199Y00006808D01*
X00021172Y00006824D01*
X00021146Y00006841D01*
X00021122Y00006860D01*
X00021099Y00006881D01*
X00021078Y00006904D01*
X00021059Y00006928D01*
X00021042Y00006954D01*
X00021027Y00006981D01*
X00021014Y00007009D01*
X00021003Y00007038D01*
X00020995Y00007067D01*
X00020989Y00007098D01*
X00020985Y00007128D01*
X00020984Y00007159D01*
X00020984Y00011332D01*
X00020316Y00012984D02*
X00020316Y00012984D01*
X00020347Y00012983D01*
X00020378Y00012979D01*
X00020408Y00012973D01*
X00020438Y00012964D01*
X00020467Y00012954D01*
X00020495Y00012941D01*
X00020522Y00012926D01*
X00020548Y00012909D01*
X00020572Y00012889D01*
X00020595Y00012868D01*
X00020616Y00012846D01*
X00020635Y00012821D01*
X00020652Y00012796D01*
X00020667Y00012769D01*
X00020680Y00012741D01*
X00020691Y00012712D01*
X00020699Y00012682D01*
X00020705Y00012652D01*
X00020709Y00012621D01*
X00020710Y00012590D01*
X00020710Y00012393D01*
X00020709Y00012362D01*
X00020705Y00012332D01*
X00020699Y00012301D01*
X00020691Y00012272D01*
X00020680Y00012243D01*
X00020667Y00012214D01*
X00020652Y00012187D01*
X00020635Y00012162D01*
X00020616Y00012138D01*
X00020595Y00012115D01*
X00020572Y00012094D01*
X00020548Y00012075D01*
X00020522Y00012058D01*
X00020495Y00012042D01*
X00020467Y00012029D01*
X00020438Y00012019D01*
X00020408Y00012010D01*
X00020378Y00012004D01*
X00020347Y00012001D01*
X00020316Y00011999D01*
X00017143Y00011999D01*
X00017113Y00012001D01*
X00017082Y00012004D01*
X00017052Y00012010D01*
X00017022Y00012019D01*
X00016993Y00012029D01*
X00016965Y00012042D01*
X00016938Y00012058D01*
X00016912Y00012075D01*
X00016888Y00012094D01*
X00016865Y00012115D01*
X00016844Y00012138D01*
X00016825Y00012162D01*
X00016808Y00012187D01*
X00016793Y00012214D01*
X00016780Y00012243D01*
X00016769Y00012272D01*
X00016761Y00012301D01*
X00016755Y00012332D01*
X00016751Y00012362D01*
X00016750Y00012393D01*
X00016750Y00012590D01*
X00016751Y00012621D01*
X00016755Y00012652D01*
X00016761Y00012682D01*
X00016769Y00012712D01*
X00016780Y00012741D01*
X00016793Y00012769D01*
X00016808Y00012796D01*
X00016825Y00012821D01*
X00016844Y00012846D01*
X00016865Y00012868D01*
X00016888Y00012889D01*
X00016912Y00012909D01*
X00016938Y00012926D01*
X00016965Y00012941D01*
X00016993Y00012954D01*
X00017022Y00012964D01*
X00017052Y00012973D01*
X00017082Y00012979D01*
X00017113Y00012983D01*
X00017143Y00012984D01*
X00020316Y00012984D01*
X00021968Y00013651D02*
X00021968Y00013651D01*
X00021967Y00013620D01*
X00021963Y00013590D01*
X00021957Y00013559D01*
X00021949Y00013530D01*
X00021938Y00013501D01*
X00021925Y00013473D01*
X00021910Y00013446D01*
X00021893Y00013420D01*
X00021874Y00013396D01*
X00021853Y00013373D01*
X00021830Y00013352D01*
X00021806Y00013333D01*
X00021780Y00013316D01*
X00021753Y00013301D01*
X00021725Y00013288D01*
X00021696Y00013277D01*
X00021666Y00013269D01*
X00021636Y00013263D01*
X00021605Y00013259D01*
X00021574Y00013258D01*
X00021377Y00013258D01*
X00021347Y00013259D01*
X00021316Y00013263D01*
X00021286Y00013269D01*
X00021256Y00013277D01*
X00021227Y00013288D01*
X00021199Y00013301D01*
X00021172Y00013316D01*
X00021146Y00013333D01*
X00021122Y00013352D01*
X00021099Y00013373D01*
X00021078Y00013396D01*
X00021059Y00013420D01*
X00021042Y00013446D01*
X00021027Y00013473D01*
X00021014Y00013501D01*
X00021003Y00013530D01*
X00020995Y00013559D01*
X00020989Y00013590D01*
X00020985Y00013620D01*
X00020984Y00013651D01*
X00020984Y00017824D01*
X00020985Y00017855D01*
X00020989Y00017886D01*
X00020995Y00017916D01*
X00021003Y00017946D01*
X00021014Y00017975D01*
X00021027Y00018003D01*
X00021042Y00018030D01*
X00021059Y00018055D01*
X00021078Y00018080D01*
X00021099Y00018102D01*
X00021122Y00018123D01*
X00021146Y00018143D01*
X00021172Y00018160D01*
X00021199Y00018175D01*
X00021227Y00018188D01*
X00021256Y00018198D01*
X00021286Y00018207D01*
X00021316Y00018213D01*
X00021347Y00018216D01*
X00021377Y00018218D01*
X00021574Y00018218D01*
X00021605Y00018216D01*
X00021636Y00018213D01*
X00021666Y00018207D01*
X00021696Y00018198D01*
X00021725Y00018188D01*
X00021753Y00018175D01*
X00021780Y00018160D01*
X00021806Y00018143D01*
X00021830Y00018123D01*
X00021853Y00018102D01*
X00021874Y00018080D01*
X00021893Y00018055D01*
X00021910Y00018030D01*
X00021925Y00018003D01*
X00021938Y00017975D01*
X00021949Y00017946D01*
X00021957Y00017916D01*
X00021963Y00017886D01*
X00021967Y00017855D01*
X00021968Y00017824D01*
X00021968Y00013651D01*
X00009999Y00024316D02*
X00009999Y00024316D01*
X00010001Y00024347D01*
X00010004Y00024378D01*
X00010010Y00024408D01*
X00010019Y00024438D01*
X00010029Y00024467D01*
X00010042Y00024495D01*
X00010058Y00024522D01*
X00010075Y00024548D01*
X00010094Y00024572D01*
X00010115Y00024595D01*
X00010138Y00024616D01*
X00010162Y00024635D01*
X00010187Y00024652D01*
X00010214Y00024667D01*
X00010243Y00024680D01*
X00010272Y00024691D01*
X00010301Y00024699D01*
X00010332Y00024705D01*
X00010362Y00024709D01*
X00010393Y00024710D01*
X00010590Y00024710D01*
X00010621Y00024709D01*
X00010652Y00024705D01*
X00010682Y00024699D01*
X00010712Y00024691D01*
X00010741Y00024680D01*
X00010769Y00024667D01*
X00010796Y00024652D01*
X00010821Y00024635D01*
X00010846Y00024616D01*
X00010868Y00024595D01*
X00010889Y00024572D01*
X00010909Y00024548D01*
X00010926Y00024522D01*
X00010941Y00024495D01*
X00010954Y00024467D01*
X00010964Y00024438D01*
X00010973Y00024408D01*
X00010979Y00024378D01*
X00010983Y00024347D01*
X00010984Y00024316D01*
X00010984Y00020143D01*
X00010983Y00020113D01*
X00010979Y00020082D01*
X00010973Y00020052D01*
X00010964Y00020022D01*
X00010954Y00019993D01*
X00010941Y00019965D01*
X00010926Y00019938D01*
X00010909Y00019912D01*
X00010889Y00019888D01*
X00010868Y00019865D01*
X00010846Y00019844D01*
X00010821Y00019825D01*
X00010796Y00019808D01*
X00010769Y00019793D01*
X00010741Y00019780D01*
X00010712Y00019769D01*
X00010682Y00019761D01*
X00010652Y00019755D01*
X00010621Y00019751D01*
X00010590Y00019750D01*
X00010393Y00019750D01*
X00010362Y00019751D01*
X00010332Y00019755D01*
X00010301Y00019761D01*
X00010272Y00019769D01*
X00010243Y00019780D01*
X00010214Y00019793D01*
X00010187Y00019808D01*
X00010162Y00019825D01*
X00010138Y00019844D01*
X00010115Y00019865D01*
X00010094Y00019888D01*
X00010075Y00019912D01*
X00010058Y00019938D01*
X00010042Y00019965D01*
X00010029Y00019993D01*
X00010019Y00020022D01*
X00010010Y00020052D01*
X00010004Y00020082D01*
X00010001Y00020113D01*
X00009999Y00020143D01*
X00009999Y00024316D01*
X00009332Y00025968D02*
X00009332Y00025968D01*
X00009363Y00025967D01*
X00009393Y00025963D01*
X00009424Y00025957D01*
X00009454Y00025949D01*
X00009483Y00025938D01*
X00009511Y00025925D01*
X00009538Y00025910D01*
X00009563Y00025893D01*
X00009588Y00025874D01*
X00009610Y00025853D01*
X00009631Y00025830D01*
X00009650Y00025806D01*
X00009668Y00025780D01*
X00009683Y00025753D01*
X00009696Y00025725D01*
X00009706Y00025696D01*
X00009715Y00025666D01*
X00009721Y00025636D01*
X00009724Y00025605D01*
X00009726Y00025574D01*
X00009726Y00025377D01*
X00009724Y00025347D01*
X00009721Y00025316D01*
X00009715Y00025286D01*
X00009706Y00025256D01*
X00009696Y00025227D01*
X00009683Y00025199D01*
X00009668Y00025172D01*
X00009650Y00025146D01*
X00009631Y00025122D01*
X00009610Y00025099D01*
X00009588Y00025078D01*
X00009563Y00025059D01*
X00009538Y00025042D01*
X00009511Y00025027D01*
X00009483Y00025014D01*
X00009454Y00025003D01*
X00009424Y00024995D01*
X00009393Y00024989D01*
X00009363Y00024985D01*
X00009332Y00024984D01*
X00006159Y00024984D01*
X00006128Y00024985D01*
X00006098Y00024989D01*
X00006067Y00024995D01*
X00006038Y00025003D01*
X00006009Y00025014D01*
X00005981Y00025027D01*
X00005954Y00025042D01*
X00005928Y00025059D01*
X00005904Y00025078D01*
X00005881Y00025099D01*
X00005860Y00025122D01*
X00005841Y00025146D01*
X00005824Y00025172D01*
X00005808Y00025199D01*
X00005796Y00025227D01*
X00005785Y00025256D01*
X00005776Y00025286D01*
X00005770Y00025316D01*
X00005767Y00025347D01*
X00005766Y00025377D01*
X00005766Y00025574D01*
X00005767Y00025605D01*
X00005770Y00025636D01*
X00005776Y00025666D01*
X00005785Y00025696D01*
X00005796Y00025725D01*
X00005808Y00025753D01*
X00005824Y00025780D01*
X00005841Y00025806D01*
X00005860Y00025830D01*
X00005881Y00025853D01*
X00005904Y00025874D01*
X00005928Y00025893D01*
X00005954Y00025910D01*
X00005981Y00025925D01*
X00006009Y00025938D01*
X00006038Y00025949D01*
X00006067Y00025957D01*
X00006098Y00025963D01*
X00006128Y00025967D01*
X00006159Y00025968D01*
X00009332Y00025968D01*
X00010984Y00026636D02*
X00010984Y00026636D01*
X00010983Y00026605D01*
X00010979Y00026574D01*
X00010973Y00026544D01*
X00010964Y00026514D01*
X00010954Y00026485D01*
X00010941Y00026457D01*
X00010926Y00026430D01*
X00010909Y00026404D01*
X00010889Y00026380D01*
X00010868Y00026357D01*
X00010846Y00026336D01*
X00010821Y00026317D01*
X00010796Y00026300D01*
X00010769Y00026285D01*
X00010741Y00026272D01*
X00010712Y00026261D01*
X00010682Y00026253D01*
X00010652Y00026247D01*
X00010621Y00026243D01*
X00010590Y00026242D01*
X00010393Y00026242D01*
X00010362Y00026243D01*
X00010332Y00026247D01*
X00010301Y00026253D01*
X00010272Y00026261D01*
X00010243Y00026272D01*
X00010214Y00026285D01*
X00010187Y00026300D01*
X00010162Y00026317D01*
X00010138Y00026336D01*
X00010115Y00026357D01*
X00010094Y00026380D01*
X00010075Y00026404D01*
X00010058Y00026430D01*
X00010042Y00026457D01*
X00010029Y00026485D01*
X00010019Y00026514D01*
X00010010Y00026544D01*
X00010004Y00026574D01*
X00010001Y00026605D01*
X00009999Y00026636D01*
X00009999Y00030808D01*
X00010001Y00030839D01*
X00010004Y00030870D01*
X00010010Y00030900D01*
X00010019Y00030930D01*
X00010029Y00030959D01*
X00010042Y00030987D01*
X00010058Y00031014D01*
X00010075Y00031040D01*
X00010094Y00031064D01*
X00010115Y00031087D01*
X00010138Y00031108D01*
X00010162Y00031127D01*
X00010187Y00031144D01*
X00010214Y00031159D01*
X00010243Y00031172D01*
X00010272Y00031183D01*
X00010301Y00031191D01*
X00010332Y00031197D01*
X00010362Y00031201D01*
X00010393Y00031202D01*
X00010590Y00031202D01*
X00010621Y00031201D01*
X00010652Y00031197D01*
X00010682Y00031191D01*
X00010712Y00031183D01*
X00010741Y00031172D01*
X00010769Y00031159D01*
X00010796Y00031144D01*
X00010821Y00031127D01*
X00010846Y00031108D01*
X00010868Y00031087D01*
X00010889Y00031064D01*
X00010909Y00031040D01*
X00010926Y00031014D01*
X00010941Y00030987D01*
X00010954Y00030959D01*
X00010964Y00030930D01*
X00010973Y00030900D01*
X00010979Y00030870D01*
X00010983Y00030839D01*
X00010984Y00030808D01*
X00010984Y00026636D01*
X00011651Y00011999D02*
X00011651Y00011999D01*
X00011620Y00012001D01*
X00011590Y00012004D01*
X00011559Y00012010D01*
X00011530Y00012019D01*
X00011501Y00012029D01*
X00011473Y00012042D01*
X00011446Y00012058D01*
X00011420Y00012075D01*
X00011396Y00012094D01*
X00011373Y00012115D01*
X00011352Y00012138D01*
X00011333Y00012162D01*
X00011316Y00012187D01*
X00011301Y00012214D01*
X00011288Y00012243D01*
X00011277Y00012272D01*
X00011269Y00012301D01*
X00011263Y00012332D01*
X00011259Y00012362D01*
X00011258Y00012393D01*
X00011258Y00012590D01*
X00011259Y00012621D01*
X00011263Y00012652D01*
X00011269Y00012682D01*
X00011277Y00012712D01*
X00011288Y00012741D01*
X00011301Y00012769D01*
X00011316Y00012796D01*
X00011333Y00012821D01*
X00011352Y00012846D01*
X00011373Y00012868D01*
X00011396Y00012889D01*
X00011420Y00012909D01*
X00011446Y00012926D01*
X00011473Y00012941D01*
X00011501Y00012954D01*
X00011530Y00012964D01*
X00011559Y00012973D01*
X00011590Y00012979D01*
X00011620Y00012983D01*
X00011651Y00012984D01*
X00014824Y00012984D01*
X00014855Y00012983D01*
X00014886Y00012979D01*
X00014916Y00012973D01*
X00014946Y00012964D01*
X00014975Y00012954D01*
X00015003Y00012941D01*
X00015030Y00012926D01*
X00015055Y00012909D01*
X00015080Y00012889D01*
X00015102Y00012868D01*
X00015123Y00012846D01*
X00015143Y00012821D01*
X00015160Y00012796D01*
X00015175Y00012769D01*
X00015188Y00012741D01*
X00015198Y00012712D01*
X00015207Y00012682D01*
X00015213Y00012652D01*
X00015216Y00012621D01*
X00015218Y00012590D01*
X00015218Y00012393D01*
X00015216Y00012362D01*
X00015213Y00012332D01*
X00015207Y00012301D01*
X00015198Y00012272D01*
X00015188Y00012243D01*
X00015175Y00012214D01*
X00015160Y00012187D01*
X00015143Y00012162D01*
X00015123Y00012138D01*
X00015102Y00012115D01*
X00015080Y00012094D01*
X00015055Y00012075D01*
X00015030Y00012058D01*
X00015003Y00012042D01*
X00014975Y00012029D01*
X00014946Y00012019D01*
X00014916Y00012010D01*
X00014886Y00012004D01*
X00014855Y00012001D01*
X00014824Y00011999D01*
X00011651Y00011999D01*
X00009999Y00011332D02*
X00009999Y00011332D01*
X00010001Y00011363D01*
X00010004Y00011393D01*
X00010010Y00011424D01*
X00010019Y00011454D01*
X00010029Y00011483D01*
X00010042Y00011511D01*
X00010058Y00011538D01*
X00010075Y00011563D01*
X00010094Y00011588D01*
X00010115Y00011610D01*
X00010138Y00011631D01*
X00010162Y00011650D01*
X00010187Y00011668D01*
X00010214Y00011683D01*
X00010243Y00011696D01*
X00010272Y00011706D01*
X00010301Y00011715D01*
X00010332Y00011721D01*
X00010362Y00011724D01*
X00010393Y00011726D01*
X00010590Y00011726D01*
X00010621Y00011724D01*
X00010652Y00011721D01*
X00010682Y00011715D01*
X00010712Y00011706D01*
X00010741Y00011696D01*
X00010769Y00011683D01*
X00010796Y00011668D01*
X00010821Y00011650D01*
X00010846Y00011631D01*
X00010868Y00011610D01*
X00010889Y00011588D01*
X00010909Y00011563D01*
X00010926Y00011538D01*
X00010941Y00011511D01*
X00010954Y00011483D01*
X00010964Y00011454D01*
X00010973Y00011424D01*
X00010979Y00011393D01*
X00010983Y00011363D01*
X00010984Y00011332D01*
X00010984Y00007159D01*
X00010983Y00007128D01*
X00010979Y00007098D01*
X00010973Y00007067D01*
X00010964Y00007038D01*
X00010954Y00007009D01*
X00010941Y00006981D01*
X00010926Y00006954D01*
X00010909Y00006928D01*
X00010889Y00006904D01*
X00010868Y00006881D01*
X00010846Y00006860D01*
X00010821Y00006841D01*
X00010796Y00006824D01*
X00010769Y00006808D01*
X00010741Y00006796D01*
X00010712Y00006785D01*
X00010682Y00006776D01*
X00010652Y00006770D01*
X00010621Y00006767D01*
X00010590Y00006766D01*
X00010393Y00006766D01*
X00010362Y00006767D01*
X00010332Y00006770D01*
X00010301Y00006776D01*
X00010272Y00006785D01*
X00010243Y00006796D01*
X00010214Y00006808D01*
X00010187Y00006824D01*
X00010162Y00006841D01*
X00010138Y00006860D01*
X00010115Y00006881D01*
X00010094Y00006904D01*
X00010075Y00006928D01*
X00010058Y00006954D01*
X00010042Y00006981D01*
X00010029Y00007009D01*
X00010019Y00007038D01*
X00010010Y00007067D01*
X00010004Y00007098D01*
X00010001Y00007128D01*
X00009999Y00007159D01*
X00009999Y00011332D01*
X00009332Y00012984D02*
X00009332Y00012984D01*
X00009363Y00012983D01*
X00009393Y00012979D01*
X00009424Y00012973D01*
X00009454Y00012964D01*
X00009483Y00012954D01*
X00009511Y00012941D01*
X00009538Y00012926D01*
X00009563Y00012909D01*
X00009588Y00012889D01*
X00009610Y00012868D01*
X00009631Y00012846D01*
X00009650Y00012821D01*
X00009668Y00012796D01*
X00009683Y00012769D01*
X00009696Y00012741D01*
X00009706Y00012712D01*
X00009715Y00012682D01*
X00009721Y00012652D01*
X00009724Y00012621D01*
X00009726Y00012590D01*
X00009726Y00012393D01*
X00009724Y00012362D01*
X00009721Y00012332D01*
X00009715Y00012301D01*
X00009706Y00012272D01*
X00009696Y00012243D01*
X00009683Y00012214D01*
X00009668Y00012187D01*
X00009650Y00012162D01*
X00009631Y00012138D01*
X00009610Y00012115D01*
X00009588Y00012094D01*
X00009563Y00012075D01*
X00009538Y00012058D01*
X00009511Y00012042D01*
X00009483Y00012029D01*
X00009454Y00012019D01*
X00009424Y00012010D01*
X00009393Y00012004D01*
X00009363Y00012001D01*
X00009332Y00011999D01*
X00006159Y00011999D01*
X00006128Y00012001D01*
X00006098Y00012004D01*
X00006067Y00012010D01*
X00006038Y00012019D01*
X00006009Y00012029D01*
X00005981Y00012042D01*
X00005954Y00012058D01*
X00005928Y00012075D01*
X00005904Y00012094D01*
X00005881Y00012115D01*
X00005860Y00012138D01*
X00005841Y00012162D01*
X00005824Y00012187D01*
X00005808Y00012214D01*
X00005796Y00012243D01*
X00005785Y00012272D01*
X00005776Y00012301D01*
X00005770Y00012332D01*
X00005767Y00012362D01*
X00005766Y00012393D01*
X00005766Y00012590D01*
X00005767Y00012621D01*
X00005770Y00012652D01*
X00005776Y00012682D01*
X00005785Y00012712D01*
X00005796Y00012741D01*
X00005808Y00012769D01*
X00005824Y00012796D01*
X00005841Y00012821D01*
X00005860Y00012846D01*
X00005881Y00012868D01*
X00005904Y00012889D01*
X00005928Y00012909D01*
X00005954Y00012926D01*
X00005981Y00012941D01*
X00006009Y00012954D01*
X00006038Y00012964D01*
X00006067Y00012973D01*
X00006098Y00012979D01*
X00006128Y00012983D01*
X00006159Y00012984D01*
X00009332Y00012984D01*
X00010984Y00013651D02*
X00010984Y00013651D01*
X00010983Y00013620D01*
X00010979Y00013590D01*
X00010973Y00013559D01*
X00010964Y00013530D01*
X00010954Y00013501D01*
X00010941Y00013473D01*
X00010926Y00013446D01*
X00010909Y00013420D01*
X00010889Y00013396D01*
X00010868Y00013373D01*
X00010846Y00013352D01*
X00010821Y00013333D01*
X00010796Y00013316D01*
X00010769Y00013301D01*
X00010741Y00013288D01*
X00010712Y00013277D01*
X00010682Y00013269D01*
X00010652Y00013263D01*
X00010621Y00013259D01*
X00010590Y00013258D01*
X00010393Y00013258D01*
X00010362Y00013259D01*
X00010332Y00013263D01*
X00010301Y00013269D01*
X00010272Y00013277D01*
X00010243Y00013288D01*
X00010214Y00013301D01*
X00010187Y00013316D01*
X00010162Y00013333D01*
X00010138Y00013352D01*
X00010115Y00013373D01*
X00010094Y00013396D01*
X00010075Y00013420D01*
X00010058Y00013446D01*
X00010042Y00013473D01*
X00010029Y00013501D01*
X00010019Y00013530D01*
X00010010Y00013559D01*
X00010004Y00013590D01*
X00010001Y00013620D01*
X00009999Y00013651D01*
X00009999Y00017824D01*
X00010001Y00017855D01*
X00010004Y00017886D01*
X00010010Y00017916D01*
X00010019Y00017946D01*
X00010029Y00017975D01*
X00010042Y00018003D01*
X00010058Y00018030D01*
X00010075Y00018055D01*
X00010094Y00018080D01*
X00010115Y00018102D01*
X00010138Y00018123D01*
X00010162Y00018143D01*
X00010187Y00018160D01*
X00010214Y00018175D01*
X00010243Y00018188D01*
X00010272Y00018198D01*
X00010301Y00018207D01*
X00010332Y00018213D01*
X00010362Y00018216D01*
X00010393Y00018218D01*
X00010590Y00018218D01*
X00010621Y00018216D01*
X00010652Y00018213D01*
X00010682Y00018207D01*
X00010712Y00018198D01*
X00010741Y00018188D01*
X00010769Y00018175D01*
X00010796Y00018160D01*
X00010821Y00018143D01*
X00010846Y00018123D01*
X00010868Y00018102D01*
X00010889Y00018080D01*
X00010909Y00018055D01*
X00010926Y00018030D01*
X00010941Y00018003D01*
X00010954Y00017975D01*
X00010964Y00017946D01*
X00010973Y00017916D01*
X00010979Y00017886D01*
X00010983Y00017855D01*
X00010984Y00017824D01*
X00010984Y00013651D01*
M02*