%
M48
METRIC,000.000
T01C0.50
%
T01
X025649Y012607
X025649Y013607
X025649Y014607
X025649Y015607
X025649Y016607
X025649Y017607
X027649Y017538
X027649Y016538
X027649Y015538
X027649Y014538
X027649Y013538
X027649Y012538
X043565Y030729
X042565Y030729
X041565Y030729
X040565Y030729
X039565Y030729
X038565Y030729
X037565Y030729
X037969Y032729
X038969Y032729
X039969Y032729
X040969Y032729
X041969Y032729
X042969Y032729
X025649Y029607
X025618Y030601
X024665Y030729
X023665Y030729
X025649Y033587
X025649Y034587
X024069Y032729
X025069Y032729
X029565Y030729
X028565Y030729
X027656Y030537
X027649Y029538
X027649Y034518
X027649Y033518
X027969Y032729
X028969Y032729
X025649Y045587
X025649Y046587
X025649Y047587
X025649Y048587
X025649Y049587
X025649Y050587
X027649Y050518
X027649Y049518
X027649Y048518
X027649Y047518
X027649Y046518
X027649Y045518
X025649Y062587
X025618Y063581
X024665Y063709
X023665Y063709
X025649Y066567
X025649Y067567
X024069Y065710
X025069Y065710
X029565Y063709
X028565Y063709
X027656Y063517
X027649Y062518
X027649Y067498
X027649Y066498
X027969Y065710
X028969Y065710
X015665Y063709
X014665Y063709
X013665Y063709
X012665Y063709
X011665Y063709
X010665Y063709
X009665Y063709
X010069Y065710
X011069Y065710
X012069Y065710
X013069Y065710
X014069Y065710
X015069Y065710
X015665Y030729
X014665Y030729
X013665Y030729
X012665Y030729
X011665Y030729
X010665Y030729
X009665Y030729
X010069Y032729
X011069Y032729
X012069Y032729
X013069Y032729
X014069Y032729
X015069Y032729
X043565Y063709
X042565Y063709
X041565Y063709
X040565Y063709
X039565Y063709
X038565Y063709
X037565Y063709
X037969Y065710
X038969Y065710
X039969Y065710
X040969Y065710
X041969Y065710
X042969Y065710
X025649Y078567
X025649Y079567
X025649Y080567
X025649Y081567
X025649Y082567
X025649Y083567
X027649Y083498
X027649Y082498
X027649Y081498
X027649Y080498
X027649Y079498
X027649Y078498
X053549Y012607
X053549Y013607
X053549Y014607
X053549Y015607
X053549Y016607
X053549Y017607
X055549Y017538
X055549Y016538
X055549Y015538
X055549Y014538
X055549Y013538
X055549Y012538
X053549Y029607
X053518Y030601
X052565Y030729
X051565Y030729
X057465Y030729
X056465Y030729
X055556Y030537
X055549Y029538
X053549Y033587
X053549Y034587
X051969Y032729
X052969Y032729
X055549Y034518
X055549Y033518
X055869Y032729
X056869Y032729
X071465Y030729
X070465Y030729
X069465Y030729
X068465Y030729
X067465Y030729
X066465Y030729
X065465Y030729
X065869Y032729
X066869Y032729
X067869Y032729
X068869Y032729
X069869Y032729
X070869Y032729
X053549Y062587
X053518Y063581
X052565Y063709
X051565Y063709
X053549Y066567
X053549Y067567
X051969Y065710
X052969Y065710
X057465Y063709
X056465Y063709
X055556Y063517
X055549Y062518
X055549Y067498
X055549Y066498
X055869Y065710
X056869Y065710
X071465Y063709
X070465Y063709
X069465Y063709
X068465Y063709
X067465Y063709
X066465Y063709
X065465Y063709
X065869Y065710
X066869Y065710
X067869Y065710
X068869Y065710
X069869Y065710
X070869Y065710
X053549Y078567
X053549Y079567
X053549Y080567
X053549Y081567
X053549Y082567
X053549Y083567
X055549Y083498
X055549Y082498
X055549Y081498
X055549Y080498
X055549Y079498
X055549Y078498
X053549Y045587
X053549Y046587
X053549Y047587
X053549Y048587
X053549Y049587
X053549Y050587
X055549Y050518
X055549Y049518
X055549Y048518
X055549Y047518
X055549Y046518
X055549Y045518
M30