%
M48
METRIC,000.000
T01C0.41
T02C0.99
%
T01
X005587Y025399
X005587Y022859
X005587Y016509
X008127Y021843
X008635Y022859
X008889Y007365
X009905Y001523
X010159Y007365
X010921Y001523
X011175Y007365
X011429Y015239
X011429Y005333
X011429Y004062
X012191Y007365
X012445Y016254
X013207Y018287
X013969Y019049
X013969Y017779
X013969Y015493
X015239Y007365
X015747Y005333
X015747Y004062
X016254Y007365
X017017Y018795
X017271Y007365
X017779Y001523
X018795Y011429
X018795Y001523
X019811Y025399
X019811Y022859
X020065Y010159
X020573Y014985
X020573Y013969
X022351Y022859
X005587Y058379
X005587Y055839
X005587Y049489
X008127Y054823
X008635Y055839
X008889Y040345
X009905Y034503
X010159Y040345
X010921Y034503
X011175Y040345
X011429Y048219
X011429Y038313
X011429Y037043
X012191Y040345
X012445Y049235
X013207Y051267
X013969Y052029
X013969Y050759
X013969Y048473
X015239Y040345
X015747Y038313
X015747Y037043
X016254Y040345
X017017Y051775
X017271Y040345
X017779Y034503
X018795Y044409
X018795Y034503
X019811Y058379
X019811Y055839
X020065Y043139
X020573Y047965
X020573Y046949
X022351Y055839
X005587Y091360
X005587Y088820
X005587Y082470
X008127Y087804
X008635Y088820
X008889Y073326
X009905Y067484
X010159Y073326
X010921Y067484
X011175Y073326
X011429Y081200
X011429Y071294
X011429Y070024
X012191Y073326
X012445Y082216
X013207Y084248
X013969Y085010
X013969Y083740
X013969Y081454
X015239Y073326
X015747Y071294
X015747Y070024
X016254Y073326
X017017Y084756
X017271Y073326
X017779Y067484
X018795Y077390
X018795Y067484
X019811Y091360
X019811Y088820
X020065Y076120
X020573Y080946
X020573Y079930
X022351Y088820
X033487Y025399
X033487Y022859
X033487Y016509
X036027Y021843
X036535Y022859
X036789Y007365
X037805Y001523
X038059Y007365
X038821Y001523
X039075Y007365
X039329Y015239
X039329Y005333
X039329Y004062
X040091Y007365
X040345Y016254
X041107Y018287
X041869Y019049
X041869Y017779
X041869Y015493
X043139Y007365
X043647Y005333
X043647Y004062
X044155Y007365
X044917Y018795
X045171Y007365
X045679Y001523
X046695Y011429
X046695Y001523
X047711Y025399
X047711Y022859
X047965Y010159
X048473Y014985
X048473Y013969
X050251Y022859
X061387Y025399
X061387Y022859
X061387Y016509
X063927Y021843
X064435Y022859
X064688Y007365
X065705Y001523
X065959Y007365
X066721Y001523
X066975Y007365
X067229Y015239
X067229Y005333
X067229Y004062
X067991Y007365
X068245Y016254
X069007Y018287
X069769Y019049
X069769Y017779
X069769Y015493
X071039Y007365
X071547Y005333
X071547Y004062
X072055Y007365
X072817Y018795
X073071Y007365
X073579Y001523
X074595Y011429
X074595Y001523
X075611Y025399
X075611Y022859
X075865Y010159
X076373Y014985
X076373Y013969
X078151Y022859
X033487Y058379
X033487Y055839
X033487Y049489
X036027Y054823
X036535Y055839
X036789Y040345
X037805Y034503
X038059Y040345
X038821Y034503
X039075Y040345
X039329Y048219
X039329Y038313
X039329Y037043
X040091Y040345
X040345Y049235
X041107Y051267
X041869Y052029
X041869Y050759
X041869Y048473
X043139Y040345
X043647Y038313
X043647Y037043
X044155Y040345
X044917Y051775
X045171Y040345
X045679Y034503
X046695Y044409
X046695Y034503
X047711Y058379
X047711Y055839
X047965Y043139
X048473Y047965
X048473Y046949
X050251Y055839
X033487Y091360
X033487Y088820
X033487Y082470
X036027Y087804
X036535Y088820
X036789Y073326
X037805Y067484
X038059Y073326
X038821Y067484
X039075Y073326
X039329Y081200
X039329Y071294
X039329Y070024
X040091Y073326
X040345Y082216
X041107Y084248
X041869Y085010
X041869Y083740
X041869Y081454
X043139Y073326
X043647Y071294
X043647Y070024
X044155Y073326
X044917Y084756
X045171Y073326
X045679Y067484
X046695Y077390
X046695Y067484
X047711Y091360
X047711Y088820
X047965Y076120
X048473Y080946
X048473Y079930
X050251Y088820
X061387Y058379
X061387Y055839
X061387Y049489
X063927Y054823
X064435Y055839
X064688Y040345
X065705Y034503
X065959Y040345
X066721Y034503
X066975Y040345
X067229Y048219
X067229Y038313
X067229Y037043
X067991Y040345
X068245Y049235
X069007Y051267
X069769Y052029
X069769Y050759
X069769Y048473
X071039Y040345
X071547Y038313
X071547Y037043
X072055Y040345
X072817Y051775
X073071Y040345
X073579Y034503
X074595Y044409
X074595Y034503
X075611Y058379
X075611Y055839
X075865Y043139
X076373Y047965
X076373Y046949
X078151Y055839
X061387Y091360
X061387Y088820
X061387Y082470
X063927Y087804
X064435Y088820
X064688Y073326
X065705Y067484
X065959Y073326
X066721Y067484
X066975Y073326
X067229Y081200
X067229Y071294
X067229Y070024
X067991Y073326
X068245Y082216
X069007Y084248
X069769Y085010
X069769Y083740
X069769Y081454
X071039Y073326
X071547Y071294
X071547Y070024
X072055Y073326
X072817Y084756
X073071Y073326
X073579Y067484
X074595Y077390
X074595Y067484
X075611Y091360
X075611Y088820
X075865Y076120
X076373Y080946
X076373Y079930
X078151Y088820
T02
X002539Y027939
X002539Y025399
X002539Y020319
X002539Y017779
X002539Y015239
X002539Y010159
X002539Y005079
X002539Y002539
X007619Y027939
X010159Y027939
X012699Y010159
X015239Y027939
X015239Y010159
X017779Y027939
X017779Y010159
X022859Y027939
X022859Y025399
X022859Y020319
X022859Y017779
X022859Y015239
X022859Y007619
X022859Y005079
X022859Y002539
X002539Y060919
X002539Y058379
X002539Y053299
X002539Y050759
X002539Y048219
X002539Y043139
X002539Y038059
X002539Y035519
X007619Y060919
X010159Y060919
X012699Y043139
X015239Y060919
X015239Y043139
X017779Y060919
X017779Y043139
X022859Y060919
X022859Y058379
X022859Y053299
X022859Y050759
X022859Y048219
X022859Y040599
X022859Y038059
X022859Y035519
X002539Y093900
X002539Y091360
X002539Y086280
X002539Y083740
X002539Y081200
X002539Y076120
X002539Y071040
X002539Y068500
X007619Y093900
X010159Y093900
X012699Y076120
X015239Y093900
X015239Y076120
X017779Y093900
X017779Y076120
X022859Y093900
X022859Y091360
X022859Y086280
X022859Y083740
X022859Y081200
X022859Y073580
X022859Y071040
X022859Y068500
X030439Y027939
X030439Y025399
X030439Y020319
X030439Y017779
X030439Y015239
X030439Y010159
X030439Y005079
X030439Y002539
X035519Y027939
X038059Y027939
X040599Y010159
X043139Y027939
X043139Y010159
X045679Y027939
X045679Y010159
X050759Y027939
X050759Y025399
X050759Y020319
X050759Y017779
X050759Y015239
X050759Y007619
X050759Y005079
X050759Y002539
X058339Y027939
X058339Y025399
X058339Y020319
X058339Y017779
X058339Y015239
X058339Y010159
X058339Y005079
X058339Y002539
X063419Y027939
X065959Y027939
X068499Y010159
X071039Y027939
X071039Y010159
X073579Y027939
X073579Y010159
X078659Y027939
X078659Y025399
X078659Y020319
X078659Y017779
X078659Y015239
X078659Y007619
X078659Y005079
X078659Y002539
X030439Y060919
X030439Y058379
X030439Y053299
X030439Y050759
X030439Y048219
X030439Y043139
X030439Y038059
X030439Y035519
X035519Y060919
X038059Y060919
X040599Y043139
X043139Y060919
X043139Y043139
X045679Y060919
X045679Y043139
X050759Y060919
X050759Y058379
X050759Y053299
X050759Y050759
X050759Y048219
X050759Y040599
X050759Y038059
X050759Y035519
X030439Y093900
X030439Y091360
X030439Y086280
X030439Y083740
X030439Y081200
X030439Y076120
X030439Y071040
X030439Y068500
X035519Y093900
X038059Y093900
X040599Y076120
X043139Y093900
X043139Y076120
X045679Y093900
X045679Y076120
X050759Y093900
X050759Y091360
X050759Y086280
X050759Y083740
X050759Y081200
X050759Y073580
X050759Y071040
X050759Y068500
X058339Y060919
X058339Y058379
X058339Y053299
X058339Y050759
X058339Y048219
X058339Y043139
X058339Y038059
X058339Y035519
X063419Y060919
X065959Y060919
X068499Y043139
X071039Y060919
X071039Y043139
X073579Y060919
X073579Y043139
X078659Y060919
X078659Y058379
X078659Y053299
X078659Y050759
X078659Y048219
X078659Y040599
X078659Y038059
X078659Y035519
X058339Y093900
X058339Y091360
X058339Y086280
X058339Y083740
X058339Y081200
X058339Y076120
X058339Y071040
X058339Y068500
X063419Y093900
X065959Y093900
X068499Y076120
X071039Y093900
X071039Y076120
X073579Y093900
X073579Y076120
X078659Y093900
X078659Y091360
X078659Y086280
X078659Y083740
X078659Y081200
X078659Y073580
X078659Y071040
X078659Y068500
M30