%MOIN*%
%OFA0B0*%
%FSLAX46Y46*%
%IPPOS*%
%LPD*%
%ADD10C,0.0039370078740157488*%
%ADD11R,0.07874015748031496X0.055118110236220472*%
%ADD12R,0.047244094488188976X0.0452755905511811*%
%ADD13R,0.0452755905511811X0.047244094488188976*%
%ADD14R,0.086614173228346469X0.1141732283464567*%
%ADD15R,0.072834645669291348X0.033464566929133861*%
%ADD16R,0.055118110236220472X0.074803149606299218*%
%ADD17R,0.055118110236220472X0.086614173228346469*%
%ADD18R,0.10236220472440946X0.088188976377952769*%
%ADD19R,0.082677165354330714X0.082677165354330714*%
%ADD20O,0.082677165354330714X0.082677165354330714*%
%ADD21R,0.051181102362204731X0.047244094488188976*%
%ADD22R,0.051181102362204731X0.035433070866141732*%
%ADD23R,0.035433070866141732X0.051181102362204731*%
%ADD24C,0.03937007874015748*%
%ADD35C,0.0039370078740157488*%
%ADD36R,0.07874015748031496X0.055118110236220472*%
%ADD37R,0.047244094488188976X0.0452755905511811*%
%ADD38R,0.0452755905511811X0.047244094488188976*%
%ADD39R,0.086614173228346469X0.1141732283464567*%
%ADD40R,0.072834645669291348X0.033464566929133861*%
%ADD41R,0.055118110236220472X0.074803149606299218*%
%ADD42R,0.055118110236220472X0.086614173228346469*%
%ADD43R,0.10236220472440946X0.088188976377952769*%
%ADD44R,0.082677165354330714X0.082677165354330714*%
%ADD45O,0.082677165354330714X0.082677165354330714*%
%ADD46R,0.051181102362204731X0.047244094488188976*%
%ADD47R,0.051181102362204731X0.035433070866141732*%
%ADD48R,0.035433070866141732X0.051181102362204731*%
%ADD49C,0.03937007874015748*%
%ADD50C,0.0039370078740157488*%
%ADD51R,0.07874015748031496X0.055118110236220472*%
%ADD52R,0.047244094488188976X0.0452755905511811*%
%ADD53R,0.0452755905511811X0.047244094488188976*%
%ADD54R,0.086614173228346469X0.1141732283464567*%
%ADD55R,0.072834645669291348X0.033464566929133861*%
%ADD56R,0.055118110236220472X0.074803149606299218*%
%ADD57R,0.055118110236220472X0.086614173228346469*%
%ADD58R,0.10236220472440946X0.088188976377952769*%
%ADD59R,0.082677165354330714X0.082677165354330714*%
%ADD60O,0.082677165354330714X0.082677165354330714*%
%ADD61R,0.051181102362204731X0.047244094488188976*%
%ADD62R,0.051181102362204731X0.035433070866141732*%
%ADD63R,0.035433070866141732X0.051181102362204731*%
%ADD64C,0.03937007874015748*%
%ADD65C,0.0039370078740157488*%
%ADD66R,0.07874015748031496X0.055118110236220472*%
%ADD67R,0.047244094488188976X0.0452755905511811*%
%ADD68R,0.0452755905511811X0.047244094488188976*%
%ADD69R,0.086614173228346469X0.1141732283464567*%
%ADD70R,0.072834645669291348X0.033464566929133861*%
%ADD71R,0.055118110236220472X0.074803149606299218*%
%ADD72R,0.055118110236220472X0.086614173228346469*%
%ADD73R,0.10236220472440946X0.088188976377952769*%
%ADD74R,0.082677165354330714X0.082677165354330714*%
%ADD75O,0.082677165354330714X0.082677165354330714*%
%ADD76R,0.051181102362204731X0.047244094488188976*%
%ADD77R,0.051181102362204731X0.035433070866141732*%
%ADD78R,0.035433070866141732X0.051181102362204731*%
%ADD79C,0.03937007874015748*%
%ADD80C,0.0039370078740157488*%
%ADD81R,0.07874015748031496X0.055118110236220472*%
%ADD82R,0.047244094488188976X0.0452755905511811*%
%ADD83R,0.0452755905511811X0.047244094488188976*%
%ADD84R,0.086614173228346469X0.1141732283464567*%
%ADD85R,0.072834645669291348X0.033464566929133861*%
%ADD86R,0.055118110236220472X0.074803149606299218*%
%ADD87R,0.055118110236220472X0.086614173228346469*%
%ADD88R,0.10236220472440946X0.088188976377952769*%
%ADD89R,0.082677165354330714X0.082677165354330714*%
%ADD90O,0.082677165354330714X0.082677165354330714*%
%ADD91R,0.051181102362204731X0.047244094488188976*%
%ADD92R,0.051181102362204731X0.035433070866141732*%
%ADD93R,0.035433070866141732X0.051181102362204731*%
%ADD94C,0.03937007874015748*%
%ADD95C,0.0039370078740157488*%
%ADD96R,0.07874015748031496X0.055118110236220472*%
%ADD97R,0.047244094488188976X0.0452755905511811*%
%ADD98R,0.0452755905511811X0.047244094488188976*%
%ADD99R,0.086614173228346469X0.1141732283464567*%
%ADD100R,0.072834645669291348X0.033464566929133861*%
%ADD101R,0.055118110236220472X0.074803149606299218*%
%ADD102R,0.055118110236220472X0.086614173228346469*%
%ADD103R,0.10236220472440946X0.088188976377952769*%
%ADD104R,0.082677165354330714X0.082677165354330714*%
%ADD105O,0.082677165354330714X0.082677165354330714*%
%ADD106R,0.051181102362204731X0.047244094488188976*%
%ADD107R,0.051181102362204731X0.035433070866141732*%
%ADD108R,0.035433070866141732X0.051181102362204731*%
%ADD109C,0.03937007874015748*%
%ADD110C,0.0039370078740157488*%
%ADD111R,0.07874015748031496X0.055118110236220472*%
%ADD112R,0.047244094488188976X0.0452755905511811*%
%ADD113R,0.0452755905511811X0.047244094488188976*%
%ADD114R,0.086614173228346469X0.1141732283464567*%
%ADD115R,0.072834645669291348X0.033464566929133861*%
%ADD116R,0.055118110236220472X0.074803149606299218*%
%ADD117R,0.055118110236220472X0.086614173228346469*%
%ADD118R,0.10236220472440946X0.088188976377952769*%
%ADD119R,0.082677165354330714X0.082677165354330714*%
%ADD120O,0.082677165354330714X0.082677165354330714*%
%ADD121R,0.051181102362204731X0.047244094488188976*%
%ADD122R,0.051181102362204731X0.035433070866141732*%
%ADD123R,0.035433070866141732X0.051181102362204731*%
%ADD124C,0.03937007874015748*%
%ADD125C,0.0039370078740157488*%
%ADD126R,0.07874015748031496X0.055118110236220472*%
%ADD127R,0.047244094488188976X0.0452755905511811*%
%ADD128R,0.0452755905511811X0.047244094488188976*%
%ADD129R,0.086614173228346469X0.1141732283464567*%
%ADD130R,0.072834645669291348X0.033464566929133861*%
%ADD131R,0.055118110236220472X0.074803149606299218*%
%ADD132R,0.055118110236220472X0.086614173228346469*%
%ADD133R,0.10236220472440946X0.088188976377952769*%
%ADD134R,0.082677165354330714X0.082677165354330714*%
%ADD135O,0.082677165354330714X0.082677165354330714*%
%ADD136R,0.051181102362204731X0.047244094488188976*%
%ADD137R,0.051181102362204731X0.035433070866141732*%
%ADD138R,0.035433070866141732X0.051181102362204731*%
%ADD139C,0.03937007874015748*%
%ADD140C,0.0039370078740157488*%
%ADD141R,0.07874015748031496X0.055118110236220472*%
%ADD142R,0.047244094488188976X0.0452755905511811*%
%ADD143R,0.0452755905511811X0.047244094488188976*%
%ADD144R,0.086614173228346469X0.1141732283464567*%
%ADD145R,0.072834645669291348X0.033464566929133861*%
%ADD146R,0.055118110236220472X0.074803149606299218*%
%ADD147R,0.055118110236220472X0.086614173228346469*%
%ADD148R,0.10236220472440946X0.088188976377952769*%
%ADD149R,0.082677165354330714X0.082677165354330714*%
%ADD150O,0.082677165354330714X0.082677165354330714*%
%ADD151R,0.051181102362204731X0.047244094488188976*%
%ADD152R,0.051181102362204731X0.035433070866141732*%
%ADD153R,0.035433070866141732X0.051181102362204731*%
%ADD154C,0.03937007874015748*%
G01G01*
D10*
D11*
X-0005400000Y0004799999D02*
X0000374999Y0000115944D03*
X0000374999Y0000234055D03*
D12*
X0000279527Y0000699999D03*
X0000220472Y0000699999D03*
X0000720472Y0000699999D03*
X0000779527Y0000699999D03*
D13*
X0000199999Y0001070472D03*
X0000199999Y0001129527D03*
X0000799999Y0001070472D03*
X0000799999Y0001129527D03*
D11*
X0000699999Y0000115944D03*
X0000699999Y0000234055D03*
D12*
X0000454527Y0000549999D03*
X0000395472Y0000549999D03*
D13*
X0000799999Y0000354527D03*
X0000799999Y0000295472D03*
D14*
X0000249999Y0000096259D03*
X0000249999Y0000253740D03*
D15*
X0000383858Y0000634842D03*
X0000383858Y0000660432D03*
X0000383858Y0000686023D03*
X0000383858Y0000711614D03*
X0000383858Y0000737204D03*
X0000383858Y0000762795D03*
X0000383858Y0000788385D03*
X0000383858Y0000813976D03*
X0000383858Y0000839566D03*
X0000383858Y0000865157D03*
X0000616141Y0000865157D03*
X0000616141Y0000839566D03*
X0000616141Y0000813976D03*
X0000616141Y0000788385D03*
X0000616141Y0000762795D03*
X0000616141Y0000737204D03*
X0000616141Y0000711614D03*
X0000616141Y0000686023D03*
X0000616141Y0000660432D03*
X0000616141Y0000634842D03*
D10*
G36*
X0000565058Y0000279606D02*
X0000588680Y0000230393D01*
X0000486318Y0000230393D01*
X0000509940Y0000279606D01*
X0000565058Y0000279606D01*
X0000565058Y0000279606D01*
G37*
D16*
X0000596554Y0000091732D03*
D17*
X0000537499Y0000097499D03*
D16*
X0000478444Y0000091732D03*
D18*
X0000537499Y0000202499D03*
D10*
G36*
X0000513877Y0000119440D02*
X0000486318Y0000174558D01*
X0000588680Y0000174558D01*
X0000561121Y0000119440D01*
X0000513877Y0000119440D01*
X0000513877Y0000119440D01*
G37*
D19*
X0000099999Y0000199999D03*
D20*
X0000099999Y0000099999D03*
D19*
X0000099999Y0000399999D03*
X0000899999Y0000099999D03*
D20*
X0000899999Y0000199999D03*
X0000899999Y0000299999D03*
D19*
X0000099999Y0000599999D03*
D20*
X0000099999Y0000699999D03*
X0000099999Y0000799999D03*
D19*
X0000099999Y0000999999D03*
D20*
X0000099999Y0001099999D03*
D19*
X0000299999Y0001099999D03*
D20*
X0000399999Y0001099999D03*
D19*
X0000699999Y0001099999D03*
D20*
X0000599999Y0001099999D03*
D19*
X0000899999Y0000999999D03*
D20*
X0000899999Y0001099999D03*
D19*
X0000899999Y0000599999D03*
D20*
X0000899999Y0000699999D03*
X0000899999Y0000799999D03*
D19*
X0000499999Y0000399999D03*
D20*
X0000599999Y0000399999D03*
X0000699999Y0000399999D03*
D21*
X0000289369Y0000987401D03*
X0000289369Y0000912598D03*
X0000210629Y0000949999D03*
X0000710629Y0000912598D03*
X0000710629Y0000987401D03*
X0000789369Y0000949999D03*
D22*
X0000349999Y0000940472D03*
X0000349999Y0000999527D03*
D23*
X0000220472Y0000839999D03*
X0000279527Y0000839999D03*
D22*
X0000224999Y0000429527D03*
X0000224999Y0000370472D03*
X0000299999Y0000370472D03*
X0000299999Y0000429527D03*
D23*
X0000870472Y0000389999D03*
X0000929527Y0000389999D03*
X0000279527Y0000769999D03*
X0000220472Y0000769999D03*
D22*
X0000469999Y0000940472D03*
X0000469999Y0000999527D03*
X0000409999Y0000940472D03*
X0000409999Y0000999527D03*
D23*
X0000779527Y0000769999D03*
X0000720472Y0000769999D03*
D22*
X0000529999Y0000999527D03*
X0000529999Y0000940472D03*
X0000589999Y0000999527D03*
X0000589999Y0000940472D03*
D23*
X0000545472Y0000549999D03*
X0000604527Y0000549999D03*
X0000779527Y0000839999D03*
X0000720472Y0000839999D03*
X0000779527Y0000599999D03*
X0000720472Y0000599999D03*
D22*
X0000649999Y0000999527D03*
X0000649999Y0000940472D03*
D23*
X0000720472Y0000524999D03*
X0000779527Y0000524999D03*
D13*
X0000374999Y0000370472D03*
X0000374999Y0000429527D03*
D21*
X0000235629Y0000512598D03*
X0000235629Y0000587401D03*
X0000314369Y0000549999D03*
D22*
X0000799999Y0000229527D03*
X0000799999Y0000170472D03*
X0000799999Y0000129527D03*
X0000799999Y0000070472D03*
D24*
X0000429999Y0000059999D03*
X0000389999Y0000059999D03*
X0000739999Y0000059999D03*
X0000699999Y0000059999D03*
X0000219999Y0000649999D03*
X0000879999Y0000899999D03*
X0000779999Y0000899999D03*
X0000779999Y0000999999D03*
X0000219999Y0000999999D03*
X0000219999Y0000899999D03*
X0000319999Y0000859999D03*
X0000339999Y0000899999D03*
X0000619999Y0000159999D03*
X0000619999Y0000209999D03*
X0000449999Y0000159999D03*
X0000449999Y0000209999D03*
X0000679999Y0000289999D03*
X0000639999Y0000289999D03*
X0000599999Y0000289999D03*
X0000479999Y0000289999D03*
X0000439999Y0000289999D03*
X0000399999Y0000289999D03*
X0000349999Y0000289999D03*
X0000789999Y0000399999D03*
X0000449999Y0000599999D03*
X0000489999Y0000639999D03*
X0000549999Y0000609999D03*
X0000669999Y0000739999D03*
X0000549999Y0000749999D03*
X0000549999Y0000699999D03*
X0000739999Y0000449999D03*
X0000519999Y0000719999D03*
X0000809999Y0000589999D03*
X0000809999Y0000549999D03*
G04 next file*
G04 #@! TF.FileFunction,Soldermask,Bot*
G04 Gerber Fmt 4.6, Leading zero omitted, Abs format (unit mm)*
G04 Created by KiCad (PCBNEW (2015-09-22 BZR 6208)-product) date 14.8.2018 10:54:20*
G01G01*
G04 APERTURE LIST*
G04 APERTURE END LIST*
D35*
D36*
X-0005400000Y0006098424D02*
X0000374999Y0001414369D03*
X0000374999Y0001532480D03*
D37*
X0000279527Y0001998424D03*
X0000220472Y0001998424D03*
X0000720472Y0001998424D03*
X0000779527Y0001998424D03*
D38*
X0000199999Y0002368897D03*
X0000199999Y0002427952D03*
X0000799999Y0002368897D03*
X0000799999Y0002427952D03*
D36*
X0000699999Y0001414369D03*
X0000699999Y0001532480D03*
D37*
X0000454527Y0001848424D03*
X0000395472Y0001848424D03*
D38*
X0000799999Y0001652952D03*
X0000799999Y0001593897D03*
D39*
X0000249999Y0001394684D03*
X0000249999Y0001552165D03*
D40*
X0000383858Y0001933267D03*
X0000383858Y0001958857D03*
X0000383858Y0001984448D03*
X0000383858Y0002010039D03*
X0000383858Y0002035629D03*
X0000383858Y0002061220D03*
X0000383858Y0002086810D03*
X0000383858Y0002112401D03*
X0000383858Y0002137991D03*
X0000383858Y0002163582D03*
X0000616141Y0002163582D03*
X0000616141Y0002137991D03*
X0000616141Y0002112401D03*
X0000616141Y0002086810D03*
X0000616141Y0002061220D03*
X0000616141Y0002035629D03*
X0000616141Y0002010039D03*
X0000616141Y0001984448D03*
X0000616141Y0001958857D03*
X0000616141Y0001933267D03*
D35*
G36*
X0000565058Y0001578031D02*
X0000588680Y0001528818D01*
X0000486318Y0001528818D01*
X0000509940Y0001578031D01*
X0000565058Y0001578031D01*
X0000565058Y0001578031D01*
G37*
D41*
X0000596554Y0001390157D03*
D42*
X0000537499Y0001395924D03*
D41*
X0000478444Y0001390157D03*
D43*
X0000537499Y0001500924D03*
D35*
G36*
X0000513877Y0001417865D02*
X0000486318Y0001472983D01*
X0000588680Y0001472983D01*
X0000561121Y0001417865D01*
X0000513877Y0001417865D01*
X0000513877Y0001417865D01*
G37*
D44*
X0000099999Y0001498424D03*
D45*
X0000099999Y0001398424D03*
D44*
X0000099999Y0001698424D03*
X0000899999Y0001398424D03*
D45*
X0000899999Y0001498424D03*
X0000899999Y0001598424D03*
D44*
X0000099999Y0001898424D03*
D45*
X0000099999Y0001998424D03*
X0000099999Y0002098424D03*
D44*
X0000099999Y0002298424D03*
D45*
X0000099999Y0002398424D03*
D44*
X0000299999Y0002398424D03*
D45*
X0000399999Y0002398424D03*
D44*
X0000699999Y0002398424D03*
D45*
X0000599999Y0002398424D03*
D44*
X0000899999Y0002298424D03*
D45*
X0000899999Y0002398424D03*
D44*
X0000899999Y0001898424D03*
D45*
X0000899999Y0001998424D03*
X0000899999Y0002098424D03*
D44*
X0000499999Y0001698424D03*
D45*
X0000599999Y0001698424D03*
X0000699999Y0001698424D03*
D46*
X0000289369Y0002285826D03*
X0000289369Y0002211023D03*
X0000210629Y0002248424D03*
X0000710629Y0002211023D03*
X0000710629Y0002285826D03*
X0000789369Y0002248424D03*
D47*
X0000349999Y0002238897D03*
X0000349999Y0002297952D03*
D48*
X0000220472Y0002138424D03*
X0000279527Y0002138424D03*
D47*
X0000224999Y0001727952D03*
X0000224999Y0001668897D03*
X0000299999Y0001668897D03*
X0000299999Y0001727952D03*
D48*
X0000870472Y0001688424D03*
X0000929527Y0001688424D03*
X0000279527Y0002068424D03*
X0000220472Y0002068424D03*
D47*
X0000469999Y0002238897D03*
X0000469999Y0002297952D03*
X0000409999Y0002238897D03*
X0000409999Y0002297952D03*
D48*
X0000779527Y0002068424D03*
X0000720472Y0002068424D03*
D47*
X0000529999Y0002297952D03*
X0000529999Y0002238897D03*
X0000589999Y0002297952D03*
X0000589999Y0002238897D03*
D48*
X0000545472Y0001848424D03*
X0000604527Y0001848424D03*
X0000779527Y0002138424D03*
X0000720472Y0002138424D03*
X0000779527Y0001898424D03*
X0000720472Y0001898424D03*
D47*
X0000649999Y0002297952D03*
X0000649999Y0002238897D03*
D48*
X0000720472Y0001823424D03*
X0000779527Y0001823424D03*
D38*
X0000374999Y0001668897D03*
X0000374999Y0001727952D03*
D46*
X0000235629Y0001811023D03*
X0000235629Y0001885826D03*
X0000314369Y0001848424D03*
D47*
X0000799999Y0001527952D03*
X0000799999Y0001468897D03*
X0000799999Y0001427952D03*
X0000799999Y0001368897D03*
D49*
X0000429999Y0001358424D03*
X0000389999Y0001358424D03*
X0000739999Y0001358424D03*
X0000699999Y0001358424D03*
X0000219999Y0001948424D03*
X0000879999Y0002198424D03*
X0000779999Y0002198424D03*
X0000779999Y0002298424D03*
X0000219999Y0002298424D03*
X0000219999Y0002198424D03*
X0000319999Y0002158424D03*
X0000339999Y0002198424D03*
X0000619999Y0001458424D03*
X0000619999Y0001508424D03*
X0000449999Y0001458424D03*
X0000449999Y0001508424D03*
X0000679999Y0001588424D03*
X0000639999Y0001588424D03*
X0000599999Y0001588424D03*
X0000479999Y0001588424D03*
X0000439999Y0001588424D03*
X0000399999Y0001588424D03*
X0000349999Y0001588424D03*
X0000789999Y0001698424D03*
X0000449999Y0001898424D03*
X0000489999Y0001938424D03*
X0000549999Y0001908424D03*
X0000669999Y0002038424D03*
X0000549999Y0002048424D03*
X0000549999Y0001998424D03*
X0000739999Y0001748424D03*
X0000519999Y0002018424D03*
X0000809999Y0001888424D03*
X0000809999Y0001848424D03*
G04 next file*
G04 #@! TF.FileFunction,Soldermask,Bot*
G04 Gerber Fmt 4.6, Leading zero omitted, Abs format (unit mm)*
G04 Created by KiCad (PCBNEW (2015-09-22 BZR 6208)-product) date 14.8.2018 10:54:20*
G01G01*
G04 APERTURE LIST*
G04 APERTURE END LIST*
D50*
D51*
X-0005400000Y0007396850D02*
X0000374999Y0002712795D03*
X0000374999Y0002830905D03*
D52*
X0000279527Y0003296850D03*
X0000220472Y0003296850D03*
X0000720472Y0003296850D03*
X0000779527Y0003296850D03*
D53*
X0000199999Y0003667322D03*
X0000199999Y0003726378D03*
X0000799999Y0003667322D03*
X0000799999Y0003726378D03*
D51*
X0000699999Y0002712795D03*
X0000699999Y0002830905D03*
D52*
X0000454527Y0003146850D03*
X0000395472Y0003146850D03*
D53*
X0000799999Y0002951378D03*
X0000799999Y0002892322D03*
D54*
X0000249999Y0002693110D03*
X0000249999Y0002850590D03*
D55*
X0000383858Y0003231693D03*
X0000383858Y0003257283D03*
X0000383858Y0003282874D03*
X0000383858Y0003308464D03*
X0000383858Y0003334055D03*
X0000383858Y0003359645D03*
X0000383858Y0003385236D03*
X0000383858Y0003410826D03*
X0000383858Y0003436417D03*
X0000383858Y0003462008D03*
X0000616141Y0003462008D03*
X0000616141Y0003436417D03*
X0000616141Y0003410826D03*
X0000616141Y0003385236D03*
X0000616141Y0003359645D03*
X0000616141Y0003334055D03*
X0000616141Y0003308464D03*
X0000616141Y0003282874D03*
X0000616141Y0003257283D03*
X0000616141Y0003231693D03*
D50*
G36*
X0000565058Y0002876456D02*
X0000588680Y0002827244D01*
X0000486318Y0002827244D01*
X0000509940Y0002876456D01*
X0000565058Y0002876456D01*
X0000565058Y0002876456D01*
G37*
D56*
X0000596554Y0002688582D03*
D57*
X0000537499Y0002694350D03*
D56*
X0000478444Y0002688582D03*
D58*
X0000537499Y0002799350D03*
D50*
G36*
X0000513877Y0002716291D02*
X0000486318Y0002771409D01*
X0000588680Y0002771409D01*
X0000561121Y0002716291D01*
X0000513877Y0002716291D01*
X0000513877Y0002716291D01*
G37*
D59*
X0000099999Y0002796850D03*
D60*
X0000099999Y0002696850D03*
D59*
X0000099999Y0002996850D03*
X0000899999Y0002696850D03*
D60*
X0000899999Y0002796850D03*
X0000899999Y0002896850D03*
D59*
X0000099999Y0003196850D03*
D60*
X0000099999Y0003296850D03*
X0000099999Y0003396850D03*
D59*
X0000099999Y0003596850D03*
D60*
X0000099999Y0003696850D03*
D59*
X0000299999Y0003696850D03*
D60*
X0000399999Y0003696850D03*
D59*
X0000699999Y0003696850D03*
D60*
X0000599999Y0003696850D03*
D59*
X0000899999Y0003596850D03*
D60*
X0000899999Y0003696850D03*
D59*
X0000899999Y0003196850D03*
D60*
X0000899999Y0003296850D03*
X0000899999Y0003396850D03*
D59*
X0000499999Y0002996850D03*
D60*
X0000599999Y0002996850D03*
X0000699999Y0002996850D03*
D61*
X0000289369Y0003584252D03*
X0000289369Y0003509448D03*
X0000210629Y0003546850D03*
X0000710629Y0003509448D03*
X0000710629Y0003584252D03*
X0000789369Y0003546850D03*
D62*
X0000349999Y0003537322D03*
X0000349999Y0003596378D03*
D63*
X0000220472Y0003436850D03*
X0000279527Y0003436850D03*
D62*
X0000224999Y0003026378D03*
X0000224999Y0002967322D03*
X0000299999Y0002967322D03*
X0000299999Y0003026378D03*
D63*
X0000870472Y0002986850D03*
X0000929527Y0002986850D03*
X0000279527Y0003366850D03*
X0000220472Y0003366850D03*
D62*
X0000469999Y0003537322D03*
X0000469999Y0003596378D03*
X0000409999Y0003537322D03*
X0000409999Y0003596378D03*
D63*
X0000779527Y0003366850D03*
X0000720472Y0003366850D03*
D62*
X0000529999Y0003596378D03*
X0000529999Y0003537322D03*
X0000589999Y0003596378D03*
X0000589999Y0003537322D03*
D63*
X0000545472Y0003146850D03*
X0000604527Y0003146850D03*
X0000779527Y0003436850D03*
X0000720472Y0003436850D03*
X0000779527Y0003196850D03*
X0000720472Y0003196850D03*
D62*
X0000649999Y0003596378D03*
X0000649999Y0003537322D03*
D63*
X0000720472Y0003121850D03*
X0000779527Y0003121850D03*
D53*
X0000374999Y0002967322D03*
X0000374999Y0003026378D03*
D61*
X0000235629Y0003109448D03*
X0000235629Y0003184252D03*
X0000314369Y0003146850D03*
D62*
X0000799999Y0002826378D03*
X0000799999Y0002767322D03*
X0000799999Y0002726378D03*
X0000799999Y0002667322D03*
D64*
X0000429999Y0002656850D03*
X0000389999Y0002656850D03*
X0000739999Y0002656850D03*
X0000699999Y0002656850D03*
X0000219999Y0003246850D03*
X0000879999Y0003496850D03*
X0000779999Y0003496850D03*
X0000779999Y0003596850D03*
X0000219999Y0003596850D03*
X0000219999Y0003496850D03*
X0000319999Y0003456850D03*
X0000339999Y0003496850D03*
X0000619999Y0002756850D03*
X0000619999Y0002806850D03*
X0000449999Y0002756850D03*
X0000449999Y0002806850D03*
X0000679999Y0002886850D03*
X0000639999Y0002886850D03*
X0000599999Y0002886850D03*
X0000479999Y0002886850D03*
X0000439999Y0002886850D03*
X0000399999Y0002886850D03*
X0000349999Y0002886850D03*
X0000789999Y0002996850D03*
X0000449999Y0003196850D03*
X0000489999Y0003236850D03*
X0000549999Y0003206850D03*
X0000669999Y0003336850D03*
X0000549999Y0003346850D03*
X0000549999Y0003296850D03*
X0000739999Y0003046850D03*
X0000519999Y0003316850D03*
X0000809999Y0003186850D03*
X0000809999Y0003146850D03*
G04 next file*
G04 #@! TF.FileFunction,Soldermask,Bot*
G04 Gerber Fmt 4.6, Leading zero omitted, Abs format (unit mm)*
G04 Created by KiCad (PCBNEW (2015-09-22 BZR 6208)-product) date 14.8.2018 10:54:20*
G01G01*
G04 APERTURE LIST*
G04 APERTURE END LIST*
D65*
D66*
X-0004301574Y0004799999D02*
X0001473425Y0000115944D03*
X0001473425Y0000234055D03*
D67*
X0001377952Y0000699999D03*
X0001318897Y0000699999D03*
X0001818897Y0000699999D03*
X0001877952Y0000699999D03*
D68*
X0001298425Y0001070472D03*
X0001298425Y0001129527D03*
X0001898425Y0001070472D03*
X0001898425Y0001129527D03*
D66*
X0001798425Y0000115944D03*
X0001798425Y0000234055D03*
D67*
X0001552952Y0000549999D03*
X0001493897Y0000549999D03*
D68*
X0001898425Y0000354527D03*
X0001898425Y0000295472D03*
D69*
X0001348425Y0000096259D03*
X0001348425Y0000253740D03*
D70*
X0001482283Y0000634842D03*
X0001482283Y0000660432D03*
X0001482283Y0000686023D03*
X0001482283Y0000711614D03*
X0001482283Y0000737204D03*
X0001482283Y0000762795D03*
X0001482283Y0000788385D03*
X0001482283Y0000813976D03*
X0001482283Y0000839566D03*
X0001482283Y0000865157D03*
X0001714566Y0000865157D03*
X0001714566Y0000839566D03*
X0001714566Y0000813976D03*
X0001714566Y0000788385D03*
X0001714566Y0000762795D03*
X0001714566Y0000737204D03*
X0001714566Y0000711614D03*
X0001714566Y0000686023D03*
X0001714566Y0000660432D03*
X0001714566Y0000634842D03*
D65*
G36*
X0001663484Y0000279606D02*
X0001687106Y0000230393D01*
X0001584743Y0000230393D01*
X0001608366Y0000279606D01*
X0001663484Y0000279606D01*
X0001663484Y0000279606D01*
G37*
D71*
X0001694980Y0000091732D03*
D72*
X0001635925Y0000097499D03*
D71*
X0001576869Y0000091732D03*
D73*
X0001635925Y0000202499D03*
D65*
G36*
X0001612303Y0000119440D02*
X0001584743Y0000174558D01*
X0001687106Y0000174558D01*
X0001659547Y0000119440D01*
X0001612303Y0000119440D01*
X0001612303Y0000119440D01*
G37*
D74*
X0001198425Y0000199999D03*
D75*
X0001198425Y0000099999D03*
D74*
X0001198425Y0000399999D03*
X0001998425Y0000099999D03*
D75*
X0001998425Y0000199999D03*
X0001998425Y0000299999D03*
D74*
X0001198425Y0000599999D03*
D75*
X0001198425Y0000699999D03*
X0001198425Y0000799999D03*
D74*
X0001198425Y0000999999D03*
D75*
X0001198425Y0001099999D03*
D74*
X0001398425Y0001099999D03*
D75*
X0001498425Y0001099999D03*
D74*
X0001798425Y0001099999D03*
D75*
X0001698425Y0001099999D03*
D74*
X0001998425Y0000999999D03*
D75*
X0001998425Y0001099999D03*
D74*
X0001998425Y0000599999D03*
D75*
X0001998425Y0000699999D03*
X0001998425Y0000799999D03*
D74*
X0001598425Y0000399999D03*
D75*
X0001698425Y0000399999D03*
X0001798425Y0000399999D03*
D76*
X0001387795Y0000987401D03*
X0001387795Y0000912598D03*
X0001309055Y0000949999D03*
X0001809055Y0000912598D03*
X0001809055Y0000987401D03*
X0001887795Y0000949999D03*
D77*
X0001448425Y0000940472D03*
X0001448425Y0000999527D03*
D78*
X0001318897Y0000839999D03*
X0001377952Y0000839999D03*
D77*
X0001323425Y0000429527D03*
X0001323425Y0000370472D03*
X0001398425Y0000370472D03*
X0001398425Y0000429527D03*
D78*
X0001968897Y0000389999D03*
X0002027952Y0000389999D03*
X0001377952Y0000769999D03*
X0001318897Y0000769999D03*
D77*
X0001568425Y0000940472D03*
X0001568425Y0000999527D03*
X0001508425Y0000940472D03*
X0001508425Y0000999527D03*
D78*
X0001877952Y0000769999D03*
X0001818897Y0000769999D03*
D77*
X0001628425Y0000999527D03*
X0001628425Y0000940472D03*
X0001688425Y0000999527D03*
X0001688425Y0000940472D03*
D78*
X0001643897Y0000549999D03*
X0001702952Y0000549999D03*
X0001877952Y0000839999D03*
X0001818897Y0000839999D03*
X0001877952Y0000599999D03*
X0001818897Y0000599999D03*
D77*
X0001748425Y0000999527D03*
X0001748425Y0000940472D03*
D78*
X0001818897Y0000524999D03*
X0001877952Y0000524999D03*
D68*
X0001473425Y0000370472D03*
X0001473425Y0000429527D03*
D76*
X0001334055Y0000512598D03*
X0001334055Y0000587401D03*
X0001412795Y0000549999D03*
D77*
X0001898425Y0000229527D03*
X0001898425Y0000170472D03*
X0001898425Y0000129527D03*
X0001898425Y0000070472D03*
D79*
X0001528425Y0000059999D03*
X0001488425Y0000059999D03*
X0001838425Y0000059999D03*
X0001798425Y0000059999D03*
X0001318425Y0000649999D03*
X0001978425Y0000899999D03*
X0001878425Y0000899999D03*
X0001878425Y0000999999D03*
X0001318425Y0000999999D03*
X0001318425Y0000899999D03*
X0001418425Y0000859999D03*
X0001438425Y0000899999D03*
X0001718425Y0000159999D03*
X0001718425Y0000209999D03*
X0001548425Y0000159999D03*
X0001548425Y0000209999D03*
X0001778425Y0000289999D03*
X0001738425Y0000289999D03*
X0001698425Y0000289999D03*
X0001578425Y0000289999D03*
X0001538425Y0000289999D03*
X0001498425Y0000289999D03*
X0001448425Y0000289999D03*
X0001888425Y0000399999D03*
X0001548425Y0000599999D03*
X0001588425Y0000639999D03*
X0001648425Y0000609999D03*
X0001768425Y0000739999D03*
X0001648425Y0000749999D03*
X0001648425Y0000699999D03*
X0001838425Y0000449999D03*
X0001618425Y0000719999D03*
X0001908425Y0000589999D03*
X0001908425Y0000549999D03*
G04 next file*
G04 #@! TF.FileFunction,Soldermask,Bot*
G04 Gerber Fmt 4.6, Leading zero omitted, Abs format (unit mm)*
G04 Created by KiCad (PCBNEW (2015-09-22 BZR 6208)-product) date 14.8.2018 10:54:20*
G01G01*
G04 APERTURE LIST*
G04 APERTURE END LIST*
D80*
D81*
X-0003203149Y0004799999D02*
X0002571850Y0000115944D03*
X0002571850Y0000234055D03*
D82*
X0002476377Y0000699999D03*
X0002417322Y0000699999D03*
X0002917322Y0000699999D03*
X0002976377Y0000699999D03*
D83*
X0002396850Y0001070472D03*
X0002396850Y0001129527D03*
X0002996850Y0001070472D03*
X0002996850Y0001129527D03*
D81*
X0002896850Y0000115944D03*
X0002896850Y0000234055D03*
D82*
X0002651377Y0000549999D03*
X0002592322Y0000549999D03*
D83*
X0002996850Y0000354527D03*
X0002996850Y0000295472D03*
D84*
X0002446850Y0000096259D03*
X0002446850Y0000253740D03*
D85*
X0002580708Y0000634842D03*
X0002580708Y0000660432D03*
X0002580708Y0000686023D03*
X0002580708Y0000711614D03*
X0002580708Y0000737204D03*
X0002580708Y0000762795D03*
X0002580708Y0000788385D03*
X0002580708Y0000813976D03*
X0002580708Y0000839566D03*
X0002580708Y0000865157D03*
X0002812992Y0000865157D03*
X0002812992Y0000839566D03*
X0002812992Y0000813976D03*
X0002812992Y0000788385D03*
X0002812992Y0000762795D03*
X0002812992Y0000737204D03*
X0002812992Y0000711614D03*
X0002812992Y0000686023D03*
X0002812992Y0000660432D03*
X0002812992Y0000634842D03*
D80*
G36*
X0002761909Y0000279606D02*
X0002785531Y0000230393D01*
X0002683169Y0000230393D01*
X0002706791Y0000279606D01*
X0002761909Y0000279606D01*
X0002761909Y0000279606D01*
G37*
D86*
X0002793405Y0000091732D03*
D87*
X0002734350Y0000097499D03*
D86*
X0002675295Y0000091732D03*
D88*
X0002734350Y0000202499D03*
D80*
G36*
X0002710728Y0000119440D02*
X0002683169Y0000174558D01*
X0002785531Y0000174558D01*
X0002757972Y0000119440D01*
X0002710728Y0000119440D01*
X0002710728Y0000119440D01*
G37*
D89*
X0002296850Y0000199999D03*
D90*
X0002296850Y0000099999D03*
D89*
X0002296850Y0000399999D03*
X0003096850Y0000099999D03*
D90*
X0003096850Y0000199999D03*
X0003096850Y0000299999D03*
D89*
X0002296850Y0000599999D03*
D90*
X0002296850Y0000699999D03*
X0002296850Y0000799999D03*
D89*
X0002296850Y0000999999D03*
D90*
X0002296850Y0001099999D03*
D89*
X0002496850Y0001099999D03*
D90*
X0002596850Y0001099999D03*
D89*
X0002896850Y0001099999D03*
D90*
X0002796850Y0001099999D03*
D89*
X0003096850Y0000999999D03*
D90*
X0003096850Y0001099999D03*
D89*
X0003096850Y0000599999D03*
D90*
X0003096850Y0000699999D03*
X0003096850Y0000799999D03*
D89*
X0002696850Y0000399999D03*
D90*
X0002796850Y0000399999D03*
X0002896850Y0000399999D03*
D91*
X0002486220Y0000987401D03*
X0002486220Y0000912598D03*
X0002407480Y0000949999D03*
X0002907480Y0000912598D03*
X0002907480Y0000987401D03*
X0002986220Y0000949999D03*
D92*
X0002546850Y0000940472D03*
X0002546850Y0000999527D03*
D93*
X0002417322Y0000839999D03*
X0002476377Y0000839999D03*
D92*
X0002421850Y0000429527D03*
X0002421850Y0000370472D03*
X0002496850Y0000370472D03*
X0002496850Y0000429527D03*
D93*
X0003067322Y0000389999D03*
X0003126377Y0000389999D03*
X0002476377Y0000769999D03*
X0002417322Y0000769999D03*
D92*
X0002666850Y0000940472D03*
X0002666850Y0000999527D03*
X0002606850Y0000940472D03*
X0002606850Y0000999527D03*
D93*
X0002976377Y0000769999D03*
X0002917322Y0000769999D03*
D92*
X0002726850Y0000999527D03*
X0002726850Y0000940472D03*
X0002786850Y0000999527D03*
X0002786850Y0000940472D03*
D93*
X0002742322Y0000549999D03*
X0002801377Y0000549999D03*
X0002976377Y0000839999D03*
X0002917322Y0000839999D03*
X0002976377Y0000599999D03*
X0002917322Y0000599999D03*
D92*
X0002846850Y0000999527D03*
X0002846850Y0000940472D03*
D93*
X0002917322Y0000524999D03*
X0002976377Y0000524999D03*
D83*
X0002571850Y0000370472D03*
X0002571850Y0000429527D03*
D91*
X0002432480Y0000512598D03*
X0002432480Y0000587401D03*
X0002511220Y0000549999D03*
D92*
X0002996850Y0000229527D03*
X0002996850Y0000170472D03*
X0002996850Y0000129527D03*
X0002996850Y0000070472D03*
D94*
X0002626850Y0000059999D03*
X0002586850Y0000059999D03*
X0002936850Y0000059999D03*
X0002896850Y0000059999D03*
X0002416850Y0000649999D03*
X0003076850Y0000899999D03*
X0002976850Y0000899999D03*
X0002976850Y0000999999D03*
X0002416850Y0000999999D03*
X0002416850Y0000899999D03*
X0002516850Y0000859999D03*
X0002536850Y0000899999D03*
X0002816850Y0000159999D03*
X0002816850Y0000209999D03*
X0002646850Y0000159999D03*
X0002646850Y0000209999D03*
X0002876850Y0000289999D03*
X0002836850Y0000289999D03*
X0002796850Y0000289999D03*
X0002676850Y0000289999D03*
X0002636850Y0000289999D03*
X0002596850Y0000289999D03*
X0002546850Y0000289999D03*
X0002986850Y0000399999D03*
X0002646850Y0000599999D03*
X0002686850Y0000639999D03*
X0002746850Y0000609999D03*
X0002866850Y0000739999D03*
X0002746850Y0000749999D03*
X0002746850Y0000699999D03*
X0002936850Y0000449999D03*
X0002716850Y0000719999D03*
X0003006850Y0000589999D03*
X0003006850Y0000549999D03*
G04 next file*
G04 #@! TF.FileFunction,Soldermask,Bot*
G04 Gerber Fmt 4.6, Leading zero omitted, Abs format (unit mm)*
G04 Created by KiCad (PCBNEW (2015-09-22 BZR 6208)-product) date 14.8.2018 10:54:20*
G01G01*
G04 APERTURE LIST*
G04 APERTURE END LIST*
D95*
D96*
X-0004301574Y0006098424D02*
X0001473425Y0001414369D03*
X0001473425Y0001532480D03*
D97*
X0001377952Y0001998424D03*
X0001318897Y0001998424D03*
X0001818897Y0001998424D03*
X0001877952Y0001998424D03*
D98*
X0001298425Y0002368897D03*
X0001298425Y0002427952D03*
X0001898425Y0002368897D03*
X0001898425Y0002427952D03*
D96*
X0001798425Y0001414369D03*
X0001798425Y0001532480D03*
D97*
X0001552952Y0001848424D03*
X0001493897Y0001848424D03*
D98*
X0001898425Y0001652952D03*
X0001898425Y0001593897D03*
D99*
X0001348425Y0001394684D03*
X0001348425Y0001552165D03*
D100*
X0001482283Y0001933267D03*
X0001482283Y0001958857D03*
X0001482283Y0001984448D03*
X0001482283Y0002010039D03*
X0001482283Y0002035629D03*
X0001482283Y0002061220D03*
X0001482283Y0002086810D03*
X0001482283Y0002112401D03*
X0001482283Y0002137991D03*
X0001482283Y0002163582D03*
X0001714566Y0002163582D03*
X0001714566Y0002137991D03*
X0001714566Y0002112401D03*
X0001714566Y0002086810D03*
X0001714566Y0002061220D03*
X0001714566Y0002035629D03*
X0001714566Y0002010039D03*
X0001714566Y0001984448D03*
X0001714566Y0001958857D03*
X0001714566Y0001933267D03*
D95*
G36*
X0001663484Y0001578031D02*
X0001687106Y0001528818D01*
X0001584743Y0001528818D01*
X0001608366Y0001578031D01*
X0001663484Y0001578031D01*
X0001663484Y0001578031D01*
G37*
D101*
X0001694980Y0001390157D03*
D102*
X0001635925Y0001395924D03*
D101*
X0001576869Y0001390157D03*
D103*
X0001635925Y0001500924D03*
D95*
G36*
X0001612303Y0001417865D02*
X0001584743Y0001472983D01*
X0001687106Y0001472983D01*
X0001659547Y0001417865D01*
X0001612303Y0001417865D01*
X0001612303Y0001417865D01*
G37*
D104*
X0001198425Y0001498424D03*
D105*
X0001198425Y0001398424D03*
D104*
X0001198425Y0001698424D03*
X0001998425Y0001398424D03*
D105*
X0001998425Y0001498424D03*
X0001998425Y0001598424D03*
D104*
X0001198425Y0001898424D03*
D105*
X0001198425Y0001998424D03*
X0001198425Y0002098424D03*
D104*
X0001198425Y0002298424D03*
D105*
X0001198425Y0002398424D03*
D104*
X0001398425Y0002398424D03*
D105*
X0001498425Y0002398424D03*
D104*
X0001798425Y0002398424D03*
D105*
X0001698425Y0002398424D03*
D104*
X0001998425Y0002298424D03*
D105*
X0001998425Y0002398424D03*
D104*
X0001998425Y0001898424D03*
D105*
X0001998425Y0001998424D03*
X0001998425Y0002098424D03*
D104*
X0001598425Y0001698424D03*
D105*
X0001698425Y0001698424D03*
X0001798425Y0001698424D03*
D106*
X0001387795Y0002285826D03*
X0001387795Y0002211023D03*
X0001309055Y0002248424D03*
X0001809055Y0002211023D03*
X0001809055Y0002285826D03*
X0001887795Y0002248424D03*
D107*
X0001448425Y0002238897D03*
X0001448425Y0002297952D03*
D108*
X0001318897Y0002138424D03*
X0001377952Y0002138424D03*
D107*
X0001323425Y0001727952D03*
X0001323425Y0001668897D03*
X0001398425Y0001668897D03*
X0001398425Y0001727952D03*
D108*
X0001968897Y0001688424D03*
X0002027952Y0001688424D03*
X0001377952Y0002068424D03*
X0001318897Y0002068424D03*
D107*
X0001568425Y0002238897D03*
X0001568425Y0002297952D03*
X0001508425Y0002238897D03*
X0001508425Y0002297952D03*
D108*
X0001877952Y0002068424D03*
X0001818897Y0002068424D03*
D107*
X0001628425Y0002297952D03*
X0001628425Y0002238897D03*
X0001688425Y0002297952D03*
X0001688425Y0002238897D03*
D108*
X0001643897Y0001848424D03*
X0001702952Y0001848424D03*
X0001877952Y0002138424D03*
X0001818897Y0002138424D03*
X0001877952Y0001898424D03*
X0001818897Y0001898424D03*
D107*
X0001748425Y0002297952D03*
X0001748425Y0002238897D03*
D108*
X0001818897Y0001823424D03*
X0001877952Y0001823424D03*
D98*
X0001473425Y0001668897D03*
X0001473425Y0001727952D03*
D106*
X0001334055Y0001811023D03*
X0001334055Y0001885826D03*
X0001412795Y0001848424D03*
D107*
X0001898425Y0001527952D03*
X0001898425Y0001468897D03*
X0001898425Y0001427952D03*
X0001898425Y0001368897D03*
D109*
X0001528425Y0001358424D03*
X0001488425Y0001358424D03*
X0001838425Y0001358424D03*
X0001798425Y0001358424D03*
X0001318425Y0001948424D03*
X0001978425Y0002198424D03*
X0001878425Y0002198424D03*
X0001878425Y0002298424D03*
X0001318425Y0002298424D03*
X0001318425Y0002198424D03*
X0001418425Y0002158424D03*
X0001438425Y0002198424D03*
X0001718425Y0001458424D03*
X0001718425Y0001508424D03*
X0001548425Y0001458424D03*
X0001548425Y0001508424D03*
X0001778425Y0001588424D03*
X0001738425Y0001588424D03*
X0001698425Y0001588424D03*
X0001578425Y0001588424D03*
X0001538425Y0001588424D03*
X0001498425Y0001588424D03*
X0001448425Y0001588424D03*
X0001888425Y0001698424D03*
X0001548425Y0001898424D03*
X0001588425Y0001938424D03*
X0001648425Y0001908424D03*
X0001768425Y0002038424D03*
X0001648425Y0002048424D03*
X0001648425Y0001998424D03*
X0001838425Y0001748424D03*
X0001618425Y0002018424D03*
X0001908425Y0001888424D03*
X0001908425Y0001848424D03*
G04 next file*
G04 #@! TF.FileFunction,Soldermask,Bot*
G04 Gerber Fmt 4.6, Leading zero omitted, Abs format (unit mm)*
G04 Created by KiCad (PCBNEW (2015-09-22 BZR 6208)-product) date 14.8.2018 10:54:20*
G01G01*
G04 APERTURE LIST*
G04 APERTURE END LIST*
D110*
D111*
X-0004301574Y0007396850D02*
X0001473425Y0002712795D03*
X0001473425Y0002830905D03*
D112*
X0001377952Y0003296850D03*
X0001318897Y0003296850D03*
X0001818897Y0003296850D03*
X0001877952Y0003296850D03*
D113*
X0001298425Y0003667322D03*
X0001298425Y0003726378D03*
X0001898425Y0003667322D03*
X0001898425Y0003726378D03*
D111*
X0001798425Y0002712795D03*
X0001798425Y0002830905D03*
D112*
X0001552952Y0003146850D03*
X0001493897Y0003146850D03*
D113*
X0001898425Y0002951378D03*
X0001898425Y0002892322D03*
D114*
X0001348425Y0002693110D03*
X0001348425Y0002850590D03*
D115*
X0001482283Y0003231693D03*
X0001482283Y0003257283D03*
X0001482283Y0003282874D03*
X0001482283Y0003308464D03*
X0001482283Y0003334055D03*
X0001482283Y0003359645D03*
X0001482283Y0003385236D03*
X0001482283Y0003410826D03*
X0001482283Y0003436417D03*
X0001482283Y0003462008D03*
X0001714566Y0003462008D03*
X0001714566Y0003436417D03*
X0001714566Y0003410826D03*
X0001714566Y0003385236D03*
X0001714566Y0003359645D03*
X0001714566Y0003334055D03*
X0001714566Y0003308464D03*
X0001714566Y0003282874D03*
X0001714566Y0003257283D03*
X0001714566Y0003231693D03*
D110*
G36*
X0001663484Y0002876456D02*
X0001687106Y0002827244D01*
X0001584743Y0002827244D01*
X0001608366Y0002876456D01*
X0001663484Y0002876456D01*
X0001663484Y0002876456D01*
G37*
D116*
X0001694980Y0002688582D03*
D117*
X0001635925Y0002694350D03*
D116*
X0001576869Y0002688582D03*
D118*
X0001635925Y0002799350D03*
D110*
G36*
X0001612303Y0002716291D02*
X0001584743Y0002771409D01*
X0001687106Y0002771409D01*
X0001659547Y0002716291D01*
X0001612303Y0002716291D01*
X0001612303Y0002716291D01*
G37*
D119*
X0001198425Y0002796850D03*
D120*
X0001198425Y0002696850D03*
D119*
X0001198425Y0002996850D03*
X0001998425Y0002696850D03*
D120*
X0001998425Y0002796850D03*
X0001998425Y0002896850D03*
D119*
X0001198425Y0003196850D03*
D120*
X0001198425Y0003296850D03*
X0001198425Y0003396850D03*
D119*
X0001198425Y0003596850D03*
D120*
X0001198425Y0003696850D03*
D119*
X0001398425Y0003696850D03*
D120*
X0001498425Y0003696850D03*
D119*
X0001798425Y0003696850D03*
D120*
X0001698425Y0003696850D03*
D119*
X0001998425Y0003596850D03*
D120*
X0001998425Y0003696850D03*
D119*
X0001998425Y0003196850D03*
D120*
X0001998425Y0003296850D03*
X0001998425Y0003396850D03*
D119*
X0001598425Y0002996850D03*
D120*
X0001698425Y0002996850D03*
X0001798425Y0002996850D03*
D121*
X0001387795Y0003584252D03*
X0001387795Y0003509448D03*
X0001309055Y0003546850D03*
X0001809055Y0003509448D03*
X0001809055Y0003584252D03*
X0001887795Y0003546850D03*
D122*
X0001448425Y0003537322D03*
X0001448425Y0003596378D03*
D123*
X0001318897Y0003436850D03*
X0001377952Y0003436850D03*
D122*
X0001323425Y0003026378D03*
X0001323425Y0002967322D03*
X0001398425Y0002967322D03*
X0001398425Y0003026378D03*
D123*
X0001968897Y0002986850D03*
X0002027952Y0002986850D03*
X0001377952Y0003366850D03*
X0001318897Y0003366850D03*
D122*
X0001568425Y0003537322D03*
X0001568425Y0003596378D03*
X0001508425Y0003537322D03*
X0001508425Y0003596378D03*
D123*
X0001877952Y0003366850D03*
X0001818897Y0003366850D03*
D122*
X0001628425Y0003596378D03*
X0001628425Y0003537322D03*
X0001688425Y0003596378D03*
X0001688425Y0003537322D03*
D123*
X0001643897Y0003146850D03*
X0001702952Y0003146850D03*
X0001877952Y0003436850D03*
X0001818897Y0003436850D03*
X0001877952Y0003196850D03*
X0001818897Y0003196850D03*
D122*
X0001748425Y0003596378D03*
X0001748425Y0003537322D03*
D123*
X0001818897Y0003121850D03*
X0001877952Y0003121850D03*
D113*
X0001473425Y0002967322D03*
X0001473425Y0003026378D03*
D121*
X0001334055Y0003109448D03*
X0001334055Y0003184252D03*
X0001412795Y0003146850D03*
D122*
X0001898425Y0002826378D03*
X0001898425Y0002767322D03*
X0001898425Y0002726378D03*
X0001898425Y0002667322D03*
D124*
X0001528425Y0002656850D03*
X0001488425Y0002656850D03*
X0001838425Y0002656850D03*
X0001798425Y0002656850D03*
X0001318425Y0003246850D03*
X0001978425Y0003496850D03*
X0001878425Y0003496850D03*
X0001878425Y0003596850D03*
X0001318425Y0003596850D03*
X0001318425Y0003496850D03*
X0001418425Y0003456850D03*
X0001438425Y0003496850D03*
X0001718425Y0002756850D03*
X0001718425Y0002806850D03*
X0001548425Y0002756850D03*
X0001548425Y0002806850D03*
X0001778425Y0002886850D03*
X0001738425Y0002886850D03*
X0001698425Y0002886850D03*
X0001578425Y0002886850D03*
X0001538425Y0002886850D03*
X0001498425Y0002886850D03*
X0001448425Y0002886850D03*
X0001888425Y0002996850D03*
X0001548425Y0003196850D03*
X0001588425Y0003236850D03*
X0001648425Y0003206850D03*
X0001768425Y0003336850D03*
X0001648425Y0003346850D03*
X0001648425Y0003296850D03*
X0001838425Y0003046850D03*
X0001618425Y0003316850D03*
X0001908425Y0003186850D03*
X0001908425Y0003146850D03*
G04 next file*
G04 #@! TF.FileFunction,Soldermask,Bot*
G04 Gerber Fmt 4.6, Leading zero omitted, Abs format (unit mm)*
G04 Created by KiCad (PCBNEW (2015-09-22 BZR 6208)-product) date 14.8.2018 10:54:20*
G01G01*
G04 APERTURE LIST*
G04 APERTURE END LIST*
D125*
D126*
X-0003203149Y0006098424D02*
X0002571850Y0001414369D03*
X0002571850Y0001532480D03*
D127*
X0002476377Y0001998424D03*
X0002417322Y0001998424D03*
X0002917322Y0001998424D03*
X0002976377Y0001998424D03*
D128*
X0002396850Y0002368897D03*
X0002396850Y0002427952D03*
X0002996850Y0002368897D03*
X0002996850Y0002427952D03*
D126*
X0002896850Y0001414369D03*
X0002896850Y0001532480D03*
D127*
X0002651377Y0001848424D03*
X0002592322Y0001848424D03*
D128*
X0002996850Y0001652952D03*
X0002996850Y0001593897D03*
D129*
X0002446850Y0001394684D03*
X0002446850Y0001552165D03*
D130*
X0002580708Y0001933267D03*
X0002580708Y0001958857D03*
X0002580708Y0001984448D03*
X0002580708Y0002010039D03*
X0002580708Y0002035629D03*
X0002580708Y0002061220D03*
X0002580708Y0002086810D03*
X0002580708Y0002112401D03*
X0002580708Y0002137991D03*
X0002580708Y0002163582D03*
X0002812992Y0002163582D03*
X0002812992Y0002137991D03*
X0002812992Y0002112401D03*
X0002812992Y0002086810D03*
X0002812992Y0002061220D03*
X0002812992Y0002035629D03*
X0002812992Y0002010039D03*
X0002812992Y0001984448D03*
X0002812992Y0001958857D03*
X0002812992Y0001933267D03*
D125*
G36*
X0002761909Y0001578031D02*
X0002785531Y0001528818D01*
X0002683169Y0001528818D01*
X0002706791Y0001578031D01*
X0002761909Y0001578031D01*
X0002761909Y0001578031D01*
G37*
D131*
X0002793405Y0001390157D03*
D132*
X0002734350Y0001395924D03*
D131*
X0002675295Y0001390157D03*
D133*
X0002734350Y0001500924D03*
D125*
G36*
X0002710728Y0001417865D02*
X0002683169Y0001472983D01*
X0002785531Y0001472983D01*
X0002757972Y0001417865D01*
X0002710728Y0001417865D01*
X0002710728Y0001417865D01*
G37*
D134*
X0002296850Y0001498424D03*
D135*
X0002296850Y0001398424D03*
D134*
X0002296850Y0001698424D03*
X0003096850Y0001398424D03*
D135*
X0003096850Y0001498424D03*
X0003096850Y0001598424D03*
D134*
X0002296850Y0001898424D03*
D135*
X0002296850Y0001998424D03*
X0002296850Y0002098424D03*
D134*
X0002296850Y0002298424D03*
D135*
X0002296850Y0002398424D03*
D134*
X0002496850Y0002398424D03*
D135*
X0002596850Y0002398424D03*
D134*
X0002896850Y0002398424D03*
D135*
X0002796850Y0002398424D03*
D134*
X0003096850Y0002298424D03*
D135*
X0003096850Y0002398424D03*
D134*
X0003096850Y0001898424D03*
D135*
X0003096850Y0001998424D03*
X0003096850Y0002098424D03*
D134*
X0002696850Y0001698424D03*
D135*
X0002796850Y0001698424D03*
X0002896850Y0001698424D03*
D136*
X0002486220Y0002285826D03*
X0002486220Y0002211023D03*
X0002407480Y0002248424D03*
X0002907480Y0002211023D03*
X0002907480Y0002285826D03*
X0002986220Y0002248424D03*
D137*
X0002546850Y0002238897D03*
X0002546850Y0002297952D03*
D138*
X0002417322Y0002138424D03*
X0002476377Y0002138424D03*
D137*
X0002421850Y0001727952D03*
X0002421850Y0001668897D03*
X0002496850Y0001668897D03*
X0002496850Y0001727952D03*
D138*
X0003067322Y0001688424D03*
X0003126377Y0001688424D03*
X0002476377Y0002068424D03*
X0002417322Y0002068424D03*
D137*
X0002666850Y0002238897D03*
X0002666850Y0002297952D03*
X0002606850Y0002238897D03*
X0002606850Y0002297952D03*
D138*
X0002976377Y0002068424D03*
X0002917322Y0002068424D03*
D137*
X0002726850Y0002297952D03*
X0002726850Y0002238897D03*
X0002786850Y0002297952D03*
X0002786850Y0002238897D03*
D138*
X0002742322Y0001848424D03*
X0002801377Y0001848424D03*
X0002976377Y0002138424D03*
X0002917322Y0002138424D03*
X0002976377Y0001898424D03*
X0002917322Y0001898424D03*
D137*
X0002846850Y0002297952D03*
X0002846850Y0002238897D03*
D138*
X0002917322Y0001823424D03*
X0002976377Y0001823424D03*
D128*
X0002571850Y0001668897D03*
X0002571850Y0001727952D03*
D136*
X0002432480Y0001811023D03*
X0002432480Y0001885826D03*
X0002511220Y0001848424D03*
D137*
X0002996850Y0001527952D03*
X0002996850Y0001468897D03*
X0002996850Y0001427952D03*
X0002996850Y0001368897D03*
D139*
X0002626850Y0001358424D03*
X0002586850Y0001358424D03*
X0002936850Y0001358424D03*
X0002896850Y0001358424D03*
X0002416850Y0001948424D03*
X0003076850Y0002198424D03*
X0002976850Y0002198424D03*
X0002976850Y0002298424D03*
X0002416850Y0002298424D03*
X0002416850Y0002198424D03*
X0002516850Y0002158424D03*
X0002536850Y0002198424D03*
X0002816850Y0001458424D03*
X0002816850Y0001508424D03*
X0002646850Y0001458424D03*
X0002646850Y0001508424D03*
X0002876850Y0001588424D03*
X0002836850Y0001588424D03*
X0002796850Y0001588424D03*
X0002676850Y0001588424D03*
X0002636850Y0001588424D03*
X0002596850Y0001588424D03*
X0002546850Y0001588424D03*
X0002986850Y0001698424D03*
X0002646850Y0001898424D03*
X0002686850Y0001938424D03*
X0002746850Y0001908424D03*
X0002866850Y0002038424D03*
X0002746850Y0002048424D03*
X0002746850Y0001998424D03*
X0002936850Y0001748424D03*
X0002716850Y0002018424D03*
X0003006850Y0001888424D03*
X0003006850Y0001848424D03*
G04 next file*
G04 #@! TF.FileFunction,Soldermask,Bot*
G04 Gerber Fmt 4.6, Leading zero omitted, Abs format (unit mm)*
G04 Created by KiCad (PCBNEW (2015-09-22 BZR 6208)-product) date 14.8.2018 10:54:20*
G01G01*
G04 APERTURE LIST*
G04 APERTURE END LIST*
D140*
D141*
X-0003203149Y0007396850D02*
X0002571850Y0002712795D03*
X0002571850Y0002830905D03*
D142*
X0002476377Y0003296850D03*
X0002417322Y0003296850D03*
X0002917322Y0003296850D03*
X0002976377Y0003296850D03*
D143*
X0002396850Y0003667322D03*
X0002396850Y0003726378D03*
X0002996850Y0003667322D03*
X0002996850Y0003726378D03*
D141*
X0002896850Y0002712795D03*
X0002896850Y0002830905D03*
D142*
X0002651377Y0003146850D03*
X0002592322Y0003146850D03*
D143*
X0002996850Y0002951378D03*
X0002996850Y0002892322D03*
D144*
X0002446850Y0002693110D03*
X0002446850Y0002850590D03*
D145*
X0002580708Y0003231693D03*
X0002580708Y0003257283D03*
X0002580708Y0003282874D03*
X0002580708Y0003308464D03*
X0002580708Y0003334055D03*
X0002580708Y0003359645D03*
X0002580708Y0003385236D03*
X0002580708Y0003410826D03*
X0002580708Y0003436417D03*
X0002580708Y0003462008D03*
X0002812992Y0003462008D03*
X0002812992Y0003436417D03*
X0002812992Y0003410826D03*
X0002812992Y0003385236D03*
X0002812992Y0003359645D03*
X0002812992Y0003334055D03*
X0002812992Y0003308464D03*
X0002812992Y0003282874D03*
X0002812992Y0003257283D03*
X0002812992Y0003231693D03*
D140*
G36*
X0002761909Y0002876456D02*
X0002785531Y0002827244D01*
X0002683169Y0002827244D01*
X0002706791Y0002876456D01*
X0002761909Y0002876456D01*
X0002761909Y0002876456D01*
G37*
D146*
X0002793405Y0002688582D03*
D147*
X0002734350Y0002694350D03*
D146*
X0002675295Y0002688582D03*
D148*
X0002734350Y0002799350D03*
D140*
G36*
X0002710728Y0002716291D02*
X0002683169Y0002771409D01*
X0002785531Y0002771409D01*
X0002757972Y0002716291D01*
X0002710728Y0002716291D01*
X0002710728Y0002716291D01*
G37*
D149*
X0002296850Y0002796850D03*
D150*
X0002296850Y0002696850D03*
D149*
X0002296850Y0002996850D03*
X0003096850Y0002696850D03*
D150*
X0003096850Y0002796850D03*
X0003096850Y0002896850D03*
D149*
X0002296850Y0003196850D03*
D150*
X0002296850Y0003296850D03*
X0002296850Y0003396850D03*
D149*
X0002296850Y0003596850D03*
D150*
X0002296850Y0003696850D03*
D149*
X0002496850Y0003696850D03*
D150*
X0002596850Y0003696850D03*
D149*
X0002896850Y0003696850D03*
D150*
X0002796850Y0003696850D03*
D149*
X0003096850Y0003596850D03*
D150*
X0003096850Y0003696850D03*
D149*
X0003096850Y0003196850D03*
D150*
X0003096850Y0003296850D03*
X0003096850Y0003396850D03*
D149*
X0002696850Y0002996850D03*
D150*
X0002796850Y0002996850D03*
X0002896850Y0002996850D03*
D151*
X0002486220Y0003584252D03*
X0002486220Y0003509448D03*
X0002407480Y0003546850D03*
X0002907480Y0003509448D03*
X0002907480Y0003584252D03*
X0002986220Y0003546850D03*
D152*
X0002546850Y0003537322D03*
X0002546850Y0003596378D03*
D153*
X0002417322Y0003436850D03*
X0002476377Y0003436850D03*
D152*
X0002421850Y0003026378D03*
X0002421850Y0002967322D03*
X0002496850Y0002967322D03*
X0002496850Y0003026378D03*
D153*
X0003067322Y0002986850D03*
X0003126377Y0002986850D03*
X0002476377Y0003366850D03*
X0002417322Y0003366850D03*
D152*
X0002666850Y0003537322D03*
X0002666850Y0003596378D03*
X0002606850Y0003537322D03*
X0002606850Y0003596378D03*
D153*
X0002976377Y0003366850D03*
X0002917322Y0003366850D03*
D152*
X0002726850Y0003596378D03*
X0002726850Y0003537322D03*
X0002786850Y0003596378D03*
X0002786850Y0003537322D03*
D153*
X0002742322Y0003146850D03*
X0002801377Y0003146850D03*
X0002976377Y0003436850D03*
X0002917322Y0003436850D03*
X0002976377Y0003196850D03*
X0002917322Y0003196850D03*
D152*
X0002846850Y0003596378D03*
X0002846850Y0003537322D03*
D153*
X0002917322Y0003121850D03*
X0002976377Y0003121850D03*
D143*
X0002571850Y0002967322D03*
X0002571850Y0003026378D03*
D151*
X0002432480Y0003109448D03*
X0002432480Y0003184252D03*
X0002511220Y0003146850D03*
D152*
X0002996850Y0002826378D03*
X0002996850Y0002767322D03*
X0002996850Y0002726378D03*
X0002996850Y0002667322D03*
D154*
X0002626850Y0002656850D03*
X0002586850Y0002656850D03*
X0002936850Y0002656850D03*
X0002896850Y0002656850D03*
X0002416850Y0003246850D03*
X0003076850Y0003496850D03*
X0002976850Y0003496850D03*
X0002976850Y0003596850D03*
X0002416850Y0003596850D03*
X0002416850Y0003496850D03*
X0002516850Y0003456850D03*
X0002536850Y0003496850D03*
X0002816850Y0002756850D03*
X0002816850Y0002806850D03*
X0002646850Y0002756850D03*
X0002646850Y0002806850D03*
X0002876850Y0002886850D03*
X0002836850Y0002886850D03*
X0002796850Y0002886850D03*
X0002676850Y0002886850D03*
X0002636850Y0002886850D03*
X0002596850Y0002886850D03*
X0002546850Y0002886850D03*
X0002986850Y0002996850D03*
X0002646850Y0003196850D03*
X0002686850Y0003236850D03*
X0002746850Y0003206850D03*
X0002866850Y0003336850D03*
X0002746850Y0003346850D03*
X0002746850Y0003296850D03*
X0002936850Y0003046850D03*
X0002716850Y0003316850D03*
X0003006850Y0003186850D03*
X0003006850Y0003146850D03*
M02*