%MOIN*%
%OFA0B0*%
%FSLAX46Y46*%
%IPPOS*%
%LPD*%
%ADD10C,0.0039370078740157488*%
%ADD11R,0.062992125984251982X0.062992125984251982*%
%ADD12R,0.082677165354330714X0.082677165354330714*%
%ADD13O,0.082677165354330714X0.082677165354330714*%
%ADD14C,0.03937007874015748*%
%ADD25C,0.0039370078740157488*%
%ADD26R,0.062992125984251982X0.062992125984251982*%
%ADD27R,0.082677165354330714X0.082677165354330714*%
%ADD28O,0.082677165354330714X0.082677165354330714*%
%ADD29C,0.03937007874015748*%
%ADD30C,0.0039370078740157488*%
%ADD31R,0.062992125984251982X0.062992125984251982*%
%ADD32R,0.082677165354330714X0.082677165354330714*%
%ADD33O,0.082677165354330714X0.082677165354330714*%
%ADD34C,0.03937007874015748*%
%ADD35C,0.0039370078740157488*%
%ADD36R,0.062992125984251982X0.062992125984251982*%
%ADD37R,0.082677165354330714X0.082677165354330714*%
%ADD38O,0.082677165354330714X0.082677165354330714*%
%ADD39C,0.03937007874015748*%
%ADD40C,0.0039370078740157488*%
%ADD41R,0.062992125984251982X0.062992125984251982*%
%ADD42R,0.082677165354330714X0.082677165354330714*%
%ADD43O,0.082677165354330714X0.082677165354330714*%
%ADD44C,0.03937007874015748*%
%ADD45C,0.0039370078740157488*%
%ADD46R,0.062992125984251982X0.062992125984251982*%
%ADD47R,0.082677165354330714X0.082677165354330714*%
%ADD48O,0.082677165354330714X0.082677165354330714*%
%ADD49C,0.03937007874015748*%
%ADD50C,0.0039370078740157488*%
%ADD51R,0.062992125984251982X0.062992125984251982*%
%ADD52R,0.082677165354330714X0.082677165354330714*%
%ADD53O,0.082677165354330714X0.082677165354330714*%
%ADD54C,0.03937007874015748*%
%ADD55C,0.0039370078740157488*%
%ADD56R,0.062992125984251982X0.062992125984251982*%
%ADD57R,0.082677165354330714X0.082677165354330714*%
%ADD58O,0.082677165354330714X0.082677165354330714*%
%ADD59C,0.03937007874015748*%
%ADD60C,0.0039370078740157488*%
%ADD61R,0.062992125984251982X0.062992125984251982*%
%ADD62R,0.082677165354330714X0.082677165354330714*%
%ADD63O,0.082677165354330714X0.082677165354330714*%
%ADD64C,0.03937007874015748*%
G01G01*
D10*
D11*
X-0005400000Y0004799999D02*
X0000719999Y0000716692D03*
X0000719999Y0000803307D03*
X0000719999Y0000546692D03*
X0000719999Y0000633307D03*
D12*
X0000099999Y0000199999D03*
D13*
X0000099999Y0000099999D03*
D12*
X0000099999Y0000399999D03*
X0000899999Y0000099999D03*
D13*
X0000899999Y0000199999D03*
X0000899999Y0000299999D03*
D12*
X0000099999Y0000599999D03*
D13*
X0000099999Y0000699999D03*
X0000099999Y0000799999D03*
D12*
X0000099999Y0000999999D03*
D13*
X0000099999Y0001099999D03*
D12*
X0000299999Y0001099999D03*
D13*
X0000399999Y0001099999D03*
D12*
X0000699999Y0001099999D03*
D13*
X0000599999Y0001099999D03*
D12*
X0000899999Y0000999999D03*
D13*
X0000899999Y0001099999D03*
D12*
X0000899999Y0000599999D03*
D13*
X0000899999Y0000699999D03*
X0000899999Y0000799999D03*
D12*
X0000499999Y0000399999D03*
D13*
X0000599999Y0000399999D03*
X0000699999Y0000399999D03*
D14*
X0000429999Y0000059999D03*
X0000389999Y0000059999D03*
X0000739999Y0000059999D03*
X0000699999Y0000059999D03*
X0000219999Y0000649999D03*
X0000879999Y0000899999D03*
X0000779999Y0000899999D03*
X0000779999Y0000999999D03*
X0000219999Y0000999999D03*
X0000219999Y0000899999D03*
X0000319999Y0000859999D03*
X0000339999Y0000899999D03*
X0000619999Y0000159999D03*
X0000619999Y0000209999D03*
X0000449999Y0000159999D03*
X0000449999Y0000209999D03*
X0000679999Y0000289999D03*
X0000639999Y0000289999D03*
X0000599999Y0000289999D03*
X0000479999Y0000289999D03*
X0000439999Y0000289999D03*
X0000399999Y0000289999D03*
X0000349999Y0000289999D03*
X0000789999Y0000399999D03*
X0000449999Y0000599999D03*
X0000489999Y0000639999D03*
X0000549999Y0000609999D03*
X0000669999Y0000739999D03*
X0000549999Y0000749999D03*
X0000549999Y0000699999D03*
X0000739999Y0000449999D03*
X0000519999Y0000719999D03*
X0000809999Y0000589999D03*
X0000809999Y0000549999D03*
G04 next file*
G04 #@! TF.FileFunction,Soldermask,Top*
G04 Gerber Fmt 4.6, Leading zero omitted, Abs format (unit mm)*
G04 Created by KiCad (PCBNEW (2015-09-22 BZR 6208)-product) date 14.8.2018 10:54:20*
G01G01*
G04 APERTURE LIST*
G04 APERTURE END LIST*
D25*
D26*
X-0005400000Y0006098424D02*
X0000719999Y0002015117D03*
X0000719999Y0002101732D03*
X0000719999Y0001845117D03*
X0000719999Y0001931732D03*
D27*
X0000099999Y0001498424D03*
D28*
X0000099999Y0001398424D03*
D27*
X0000099999Y0001698424D03*
X0000899999Y0001398424D03*
D28*
X0000899999Y0001498424D03*
X0000899999Y0001598424D03*
D27*
X0000099999Y0001898424D03*
D28*
X0000099999Y0001998424D03*
X0000099999Y0002098424D03*
D27*
X0000099999Y0002298424D03*
D28*
X0000099999Y0002398424D03*
D27*
X0000299999Y0002398424D03*
D28*
X0000399999Y0002398424D03*
D27*
X0000699999Y0002398424D03*
D28*
X0000599999Y0002398424D03*
D27*
X0000899999Y0002298424D03*
D28*
X0000899999Y0002398424D03*
D27*
X0000899999Y0001898424D03*
D28*
X0000899999Y0001998424D03*
X0000899999Y0002098424D03*
D27*
X0000499999Y0001698424D03*
D28*
X0000599999Y0001698424D03*
X0000699999Y0001698424D03*
D29*
X0000429999Y0001358424D03*
X0000389999Y0001358424D03*
X0000739999Y0001358424D03*
X0000699999Y0001358424D03*
X0000219999Y0001948424D03*
X0000879999Y0002198424D03*
X0000779999Y0002198424D03*
X0000779999Y0002298424D03*
X0000219999Y0002298424D03*
X0000219999Y0002198424D03*
X0000319999Y0002158424D03*
X0000339999Y0002198424D03*
X0000619999Y0001458424D03*
X0000619999Y0001508424D03*
X0000449999Y0001458424D03*
X0000449999Y0001508424D03*
X0000679999Y0001588424D03*
X0000639999Y0001588424D03*
X0000599999Y0001588424D03*
X0000479999Y0001588424D03*
X0000439999Y0001588424D03*
X0000399999Y0001588424D03*
X0000349999Y0001588424D03*
X0000789999Y0001698424D03*
X0000449999Y0001898424D03*
X0000489999Y0001938424D03*
X0000549999Y0001908424D03*
X0000669999Y0002038424D03*
X0000549999Y0002048424D03*
X0000549999Y0001998424D03*
X0000739999Y0001748424D03*
X0000519999Y0002018424D03*
X0000809999Y0001888424D03*
X0000809999Y0001848424D03*
G04 next file*
G04 #@! TF.FileFunction,Soldermask,Top*
G04 Gerber Fmt 4.6, Leading zero omitted, Abs format (unit mm)*
G04 Created by KiCad (PCBNEW (2015-09-22 BZR 6208)-product) date 14.8.2018 10:54:20*
G01G01*
G04 APERTURE LIST*
G04 APERTURE END LIST*
D30*
D31*
X-0005400000Y0007396850D02*
X0000719999Y0003313543D03*
X0000719999Y0003400157D03*
X0000719999Y0003143543D03*
X0000719999Y0003230157D03*
D32*
X0000099999Y0002796850D03*
D33*
X0000099999Y0002696850D03*
D32*
X0000099999Y0002996850D03*
X0000899999Y0002696850D03*
D33*
X0000899999Y0002796850D03*
X0000899999Y0002896850D03*
D32*
X0000099999Y0003196850D03*
D33*
X0000099999Y0003296850D03*
X0000099999Y0003396850D03*
D32*
X0000099999Y0003596850D03*
D33*
X0000099999Y0003696850D03*
D32*
X0000299999Y0003696850D03*
D33*
X0000399999Y0003696850D03*
D32*
X0000699999Y0003696850D03*
D33*
X0000599999Y0003696850D03*
D32*
X0000899999Y0003596850D03*
D33*
X0000899999Y0003696850D03*
D32*
X0000899999Y0003196850D03*
D33*
X0000899999Y0003296850D03*
X0000899999Y0003396850D03*
D32*
X0000499999Y0002996850D03*
D33*
X0000599999Y0002996850D03*
X0000699999Y0002996850D03*
D34*
X0000429999Y0002656850D03*
X0000389999Y0002656850D03*
X0000739999Y0002656850D03*
X0000699999Y0002656850D03*
X0000219999Y0003246850D03*
X0000879999Y0003496850D03*
X0000779999Y0003496850D03*
X0000779999Y0003596850D03*
X0000219999Y0003596850D03*
X0000219999Y0003496850D03*
X0000319999Y0003456850D03*
X0000339999Y0003496850D03*
X0000619999Y0002756850D03*
X0000619999Y0002806850D03*
X0000449999Y0002756850D03*
X0000449999Y0002806850D03*
X0000679999Y0002886850D03*
X0000639999Y0002886850D03*
X0000599999Y0002886850D03*
X0000479999Y0002886850D03*
X0000439999Y0002886850D03*
X0000399999Y0002886850D03*
X0000349999Y0002886850D03*
X0000789999Y0002996850D03*
X0000449999Y0003196850D03*
X0000489999Y0003236850D03*
X0000549999Y0003206850D03*
X0000669999Y0003336850D03*
X0000549999Y0003346850D03*
X0000549999Y0003296850D03*
X0000739999Y0003046850D03*
X0000519999Y0003316850D03*
X0000809999Y0003186850D03*
X0000809999Y0003146850D03*
G04 next file*
G04 #@! TF.FileFunction,Soldermask,Top*
G04 Gerber Fmt 4.6, Leading zero omitted, Abs format (unit mm)*
G04 Created by KiCad (PCBNEW (2015-09-22 BZR 6208)-product) date 14.8.2018 10:54:20*
G01G01*
G04 APERTURE LIST*
G04 APERTURE END LIST*
D35*
D36*
X-0004301574Y0004799999D02*
X0001818425Y0000716692D03*
X0001818425Y0000803307D03*
X0001818425Y0000546692D03*
X0001818425Y0000633307D03*
D37*
X0001198425Y0000199999D03*
D38*
X0001198425Y0000099999D03*
D37*
X0001198425Y0000399999D03*
X0001998425Y0000099999D03*
D38*
X0001998425Y0000199999D03*
X0001998425Y0000299999D03*
D37*
X0001198425Y0000599999D03*
D38*
X0001198425Y0000699999D03*
X0001198425Y0000799999D03*
D37*
X0001198425Y0000999999D03*
D38*
X0001198425Y0001099999D03*
D37*
X0001398425Y0001099999D03*
D38*
X0001498425Y0001099999D03*
D37*
X0001798425Y0001099999D03*
D38*
X0001698425Y0001099999D03*
D37*
X0001998425Y0000999999D03*
D38*
X0001998425Y0001099999D03*
D37*
X0001998425Y0000599999D03*
D38*
X0001998425Y0000699999D03*
X0001998425Y0000799999D03*
D37*
X0001598425Y0000399999D03*
D38*
X0001698425Y0000399999D03*
X0001798425Y0000399999D03*
D39*
X0001528425Y0000059999D03*
X0001488425Y0000059999D03*
X0001838425Y0000059999D03*
X0001798425Y0000059999D03*
X0001318425Y0000649999D03*
X0001978425Y0000899999D03*
X0001878425Y0000899999D03*
X0001878425Y0000999999D03*
X0001318425Y0000999999D03*
X0001318425Y0000899999D03*
X0001418425Y0000859999D03*
X0001438425Y0000899999D03*
X0001718425Y0000159999D03*
X0001718425Y0000209999D03*
X0001548425Y0000159999D03*
X0001548425Y0000209999D03*
X0001778425Y0000289999D03*
X0001738425Y0000289999D03*
X0001698425Y0000289999D03*
X0001578425Y0000289999D03*
X0001538425Y0000289999D03*
X0001498425Y0000289999D03*
X0001448425Y0000289999D03*
X0001888425Y0000399999D03*
X0001548425Y0000599999D03*
X0001588425Y0000639999D03*
X0001648425Y0000609999D03*
X0001768425Y0000739999D03*
X0001648425Y0000749999D03*
X0001648425Y0000699999D03*
X0001838425Y0000449999D03*
X0001618425Y0000719999D03*
X0001908425Y0000589999D03*
X0001908425Y0000549999D03*
G04 next file*
G04 #@! TF.FileFunction,Soldermask,Top*
G04 Gerber Fmt 4.6, Leading zero omitted, Abs format (unit mm)*
G04 Created by KiCad (PCBNEW (2015-09-22 BZR 6208)-product) date 14.8.2018 10:54:20*
G01G01*
G04 APERTURE LIST*
G04 APERTURE END LIST*
D40*
D41*
X-0003203149Y0004799999D02*
X0002916850Y0000716692D03*
X0002916850Y0000803307D03*
X0002916850Y0000546692D03*
X0002916850Y0000633307D03*
D42*
X0002296850Y0000199999D03*
D43*
X0002296850Y0000099999D03*
D42*
X0002296850Y0000399999D03*
X0003096850Y0000099999D03*
D43*
X0003096850Y0000199999D03*
X0003096850Y0000299999D03*
D42*
X0002296850Y0000599999D03*
D43*
X0002296850Y0000699999D03*
X0002296850Y0000799999D03*
D42*
X0002296850Y0000999999D03*
D43*
X0002296850Y0001099999D03*
D42*
X0002496850Y0001099999D03*
D43*
X0002596850Y0001099999D03*
D42*
X0002896850Y0001099999D03*
D43*
X0002796850Y0001099999D03*
D42*
X0003096850Y0000999999D03*
D43*
X0003096850Y0001099999D03*
D42*
X0003096850Y0000599999D03*
D43*
X0003096850Y0000699999D03*
X0003096850Y0000799999D03*
D42*
X0002696850Y0000399999D03*
D43*
X0002796850Y0000399999D03*
X0002896850Y0000399999D03*
D44*
X0002626850Y0000059999D03*
X0002586850Y0000059999D03*
X0002936850Y0000059999D03*
X0002896850Y0000059999D03*
X0002416850Y0000649999D03*
X0003076850Y0000899999D03*
X0002976850Y0000899999D03*
X0002976850Y0000999999D03*
X0002416850Y0000999999D03*
X0002416850Y0000899999D03*
X0002516850Y0000859999D03*
X0002536850Y0000899999D03*
X0002816850Y0000159999D03*
X0002816850Y0000209999D03*
X0002646850Y0000159999D03*
X0002646850Y0000209999D03*
X0002876850Y0000289999D03*
X0002836850Y0000289999D03*
X0002796850Y0000289999D03*
X0002676850Y0000289999D03*
X0002636850Y0000289999D03*
X0002596850Y0000289999D03*
X0002546850Y0000289999D03*
X0002986850Y0000399999D03*
X0002646850Y0000599999D03*
X0002686850Y0000639999D03*
X0002746850Y0000609999D03*
X0002866850Y0000739999D03*
X0002746850Y0000749999D03*
X0002746850Y0000699999D03*
X0002936850Y0000449999D03*
X0002716850Y0000719999D03*
X0003006850Y0000589999D03*
X0003006850Y0000549999D03*
G04 next file*
G04 #@! TF.FileFunction,Soldermask,Top*
G04 Gerber Fmt 4.6, Leading zero omitted, Abs format (unit mm)*
G04 Created by KiCad (PCBNEW (2015-09-22 BZR 6208)-product) date 14.8.2018 10:54:20*
G01G01*
G04 APERTURE LIST*
G04 APERTURE END LIST*
D45*
D46*
X-0004301574Y0006098424D02*
X0001818425Y0002015117D03*
X0001818425Y0002101732D03*
X0001818425Y0001845117D03*
X0001818425Y0001931732D03*
D47*
X0001198425Y0001498424D03*
D48*
X0001198425Y0001398424D03*
D47*
X0001198425Y0001698424D03*
X0001998425Y0001398424D03*
D48*
X0001998425Y0001498424D03*
X0001998425Y0001598424D03*
D47*
X0001198425Y0001898424D03*
D48*
X0001198425Y0001998424D03*
X0001198425Y0002098424D03*
D47*
X0001198425Y0002298424D03*
D48*
X0001198425Y0002398424D03*
D47*
X0001398425Y0002398424D03*
D48*
X0001498425Y0002398424D03*
D47*
X0001798425Y0002398424D03*
D48*
X0001698425Y0002398424D03*
D47*
X0001998425Y0002298424D03*
D48*
X0001998425Y0002398424D03*
D47*
X0001998425Y0001898424D03*
D48*
X0001998425Y0001998424D03*
X0001998425Y0002098424D03*
D47*
X0001598425Y0001698424D03*
D48*
X0001698425Y0001698424D03*
X0001798425Y0001698424D03*
D49*
X0001528425Y0001358424D03*
X0001488425Y0001358424D03*
X0001838425Y0001358424D03*
X0001798425Y0001358424D03*
X0001318425Y0001948424D03*
X0001978425Y0002198424D03*
X0001878425Y0002198424D03*
X0001878425Y0002298424D03*
X0001318425Y0002298424D03*
X0001318425Y0002198424D03*
X0001418425Y0002158424D03*
X0001438425Y0002198424D03*
X0001718425Y0001458424D03*
X0001718425Y0001508424D03*
X0001548425Y0001458424D03*
X0001548425Y0001508424D03*
X0001778425Y0001588424D03*
X0001738425Y0001588424D03*
X0001698425Y0001588424D03*
X0001578425Y0001588424D03*
X0001538425Y0001588424D03*
X0001498425Y0001588424D03*
X0001448425Y0001588424D03*
X0001888425Y0001698424D03*
X0001548425Y0001898424D03*
X0001588425Y0001938424D03*
X0001648425Y0001908424D03*
X0001768425Y0002038424D03*
X0001648425Y0002048424D03*
X0001648425Y0001998424D03*
X0001838425Y0001748424D03*
X0001618425Y0002018424D03*
X0001908425Y0001888424D03*
X0001908425Y0001848424D03*
G04 next file*
G04 #@! TF.FileFunction,Soldermask,Top*
G04 Gerber Fmt 4.6, Leading zero omitted, Abs format (unit mm)*
G04 Created by KiCad (PCBNEW (2015-09-22 BZR 6208)-product) date 14.8.2018 10:54:20*
G01G01*
G04 APERTURE LIST*
G04 APERTURE END LIST*
D50*
D51*
X-0004301574Y0007396850D02*
X0001818425Y0003313543D03*
X0001818425Y0003400157D03*
X0001818425Y0003143543D03*
X0001818425Y0003230157D03*
D52*
X0001198425Y0002796850D03*
D53*
X0001198425Y0002696850D03*
D52*
X0001198425Y0002996850D03*
X0001998425Y0002696850D03*
D53*
X0001998425Y0002796850D03*
X0001998425Y0002896850D03*
D52*
X0001198425Y0003196850D03*
D53*
X0001198425Y0003296850D03*
X0001198425Y0003396850D03*
D52*
X0001198425Y0003596850D03*
D53*
X0001198425Y0003696850D03*
D52*
X0001398425Y0003696850D03*
D53*
X0001498425Y0003696850D03*
D52*
X0001798425Y0003696850D03*
D53*
X0001698425Y0003696850D03*
D52*
X0001998425Y0003596850D03*
D53*
X0001998425Y0003696850D03*
D52*
X0001998425Y0003196850D03*
D53*
X0001998425Y0003296850D03*
X0001998425Y0003396850D03*
D52*
X0001598425Y0002996850D03*
D53*
X0001698425Y0002996850D03*
X0001798425Y0002996850D03*
D54*
X0001528425Y0002656850D03*
X0001488425Y0002656850D03*
X0001838425Y0002656850D03*
X0001798425Y0002656850D03*
X0001318425Y0003246850D03*
X0001978425Y0003496850D03*
X0001878425Y0003496850D03*
X0001878425Y0003596850D03*
X0001318425Y0003596850D03*
X0001318425Y0003496850D03*
X0001418425Y0003456850D03*
X0001438425Y0003496850D03*
X0001718425Y0002756850D03*
X0001718425Y0002806850D03*
X0001548425Y0002756850D03*
X0001548425Y0002806850D03*
X0001778425Y0002886850D03*
X0001738425Y0002886850D03*
X0001698425Y0002886850D03*
X0001578425Y0002886850D03*
X0001538425Y0002886850D03*
X0001498425Y0002886850D03*
X0001448425Y0002886850D03*
X0001888425Y0002996850D03*
X0001548425Y0003196850D03*
X0001588425Y0003236850D03*
X0001648425Y0003206850D03*
X0001768425Y0003336850D03*
X0001648425Y0003346850D03*
X0001648425Y0003296850D03*
X0001838425Y0003046850D03*
X0001618425Y0003316850D03*
X0001908425Y0003186850D03*
X0001908425Y0003146850D03*
G04 next file*
G04 #@! TF.FileFunction,Soldermask,Top*
G04 Gerber Fmt 4.6, Leading zero omitted, Abs format (unit mm)*
G04 Created by KiCad (PCBNEW (2015-09-22 BZR 6208)-product) date 14.8.2018 10:54:20*
G01G01*
G04 APERTURE LIST*
G04 APERTURE END LIST*
D55*
D56*
X-0003203149Y0006098424D02*
X0002916850Y0002015117D03*
X0002916850Y0002101732D03*
X0002916850Y0001845117D03*
X0002916850Y0001931732D03*
D57*
X0002296850Y0001498424D03*
D58*
X0002296850Y0001398424D03*
D57*
X0002296850Y0001698424D03*
X0003096850Y0001398424D03*
D58*
X0003096850Y0001498424D03*
X0003096850Y0001598424D03*
D57*
X0002296850Y0001898424D03*
D58*
X0002296850Y0001998424D03*
X0002296850Y0002098424D03*
D57*
X0002296850Y0002298424D03*
D58*
X0002296850Y0002398424D03*
D57*
X0002496850Y0002398424D03*
D58*
X0002596850Y0002398424D03*
D57*
X0002896850Y0002398424D03*
D58*
X0002796850Y0002398424D03*
D57*
X0003096850Y0002298424D03*
D58*
X0003096850Y0002398424D03*
D57*
X0003096850Y0001898424D03*
D58*
X0003096850Y0001998424D03*
X0003096850Y0002098424D03*
D57*
X0002696850Y0001698424D03*
D58*
X0002796850Y0001698424D03*
X0002896850Y0001698424D03*
D59*
X0002626850Y0001358424D03*
X0002586850Y0001358424D03*
X0002936850Y0001358424D03*
X0002896850Y0001358424D03*
X0002416850Y0001948424D03*
X0003076850Y0002198424D03*
X0002976850Y0002198424D03*
X0002976850Y0002298424D03*
X0002416850Y0002298424D03*
X0002416850Y0002198424D03*
X0002516850Y0002158424D03*
X0002536850Y0002198424D03*
X0002816850Y0001458424D03*
X0002816850Y0001508424D03*
X0002646850Y0001458424D03*
X0002646850Y0001508424D03*
X0002876850Y0001588424D03*
X0002836850Y0001588424D03*
X0002796850Y0001588424D03*
X0002676850Y0001588424D03*
X0002636850Y0001588424D03*
X0002596850Y0001588424D03*
X0002546850Y0001588424D03*
X0002986850Y0001698424D03*
X0002646850Y0001898424D03*
X0002686850Y0001938424D03*
X0002746850Y0001908424D03*
X0002866850Y0002038424D03*
X0002746850Y0002048424D03*
X0002746850Y0001998424D03*
X0002936850Y0001748424D03*
X0002716850Y0002018424D03*
X0003006850Y0001888424D03*
X0003006850Y0001848424D03*
G04 next file*
G04 #@! TF.FileFunction,Soldermask,Top*
G04 Gerber Fmt 4.6, Leading zero omitted, Abs format (unit mm)*
G04 Created by KiCad (PCBNEW (2015-09-22 BZR 6208)-product) date 14.8.2018 10:54:20*
G01G01*
G04 APERTURE LIST*
G04 APERTURE END LIST*
D60*
D61*
X-0003203149Y0007396850D02*
X0002916850Y0003313543D03*
X0002916850Y0003400157D03*
X0002916850Y0003143543D03*
X0002916850Y0003230157D03*
D62*
X0002296850Y0002796850D03*
D63*
X0002296850Y0002696850D03*
D62*
X0002296850Y0002996850D03*
X0003096850Y0002696850D03*
D63*
X0003096850Y0002796850D03*
X0003096850Y0002896850D03*
D62*
X0002296850Y0003196850D03*
D63*
X0002296850Y0003296850D03*
X0002296850Y0003396850D03*
D62*
X0002296850Y0003596850D03*
D63*
X0002296850Y0003696850D03*
D62*
X0002496850Y0003696850D03*
D63*
X0002596850Y0003696850D03*
D62*
X0002896850Y0003696850D03*
D63*
X0002796850Y0003696850D03*
D62*
X0003096850Y0003596850D03*
D63*
X0003096850Y0003696850D03*
D62*
X0003096850Y0003196850D03*
D63*
X0003096850Y0003296850D03*
X0003096850Y0003396850D03*
D62*
X0002696850Y0002996850D03*
D63*
X0002796850Y0002996850D03*
X0002896850Y0002996850D03*
D64*
X0002626850Y0002656850D03*
X0002586850Y0002656850D03*
X0002936850Y0002656850D03*
X0002896850Y0002656850D03*
X0002416850Y0003246850D03*
X0003076850Y0003496850D03*
X0002976850Y0003496850D03*
X0002976850Y0003596850D03*
X0002416850Y0003596850D03*
X0002416850Y0003496850D03*
X0002516850Y0003456850D03*
X0002536850Y0003496850D03*
X0002816850Y0002756850D03*
X0002816850Y0002806850D03*
X0002646850Y0002756850D03*
X0002646850Y0002806850D03*
X0002876850Y0002886850D03*
X0002836850Y0002886850D03*
X0002796850Y0002886850D03*
X0002676850Y0002886850D03*
X0002636850Y0002886850D03*
X0002596850Y0002886850D03*
X0002546850Y0002886850D03*
X0002986850Y0002996850D03*
X0002646850Y0003196850D03*
X0002686850Y0003236850D03*
X0002746850Y0003206850D03*
X0002866850Y0003336850D03*
X0002746850Y0003346850D03*
X0002746850Y0003296850D03*
X0002936850Y0003046850D03*
X0002716850Y0003316850D03*
X0003006850Y0003186850D03*
X0003006850Y0003146850D03*
M02*