G04 #@! TF.FileFunction,Legend,Top*
%FSLAX46Y46*%
G04 Gerber Fmt 4.6, Leading zero omitted, Abs format (unit mm)*
G04 Created by KiCad (PCBNEW (2015-09-22 BZR 6208)-product) date 14.8.2018 10:54:20*
%MOMM*%
G01*
G04 APERTURE LIST*
%ADD10C,0.100000*%
%ADD11C,0.250000*%
%ADD12C,0.120000*%
%ADD13C,0.200000*%
%ADD14C,0.150000*%
G04 APERTURE END LIST*
D10*
D11*
X146454762Y-109148191D02*
X146502381Y-109005334D01*
X146502381Y-108767238D01*
X146454762Y-108672000D01*
X146407143Y-108624381D01*
X146311905Y-108576762D01*
X146216667Y-108576762D01*
X146121429Y-108624381D01*
X146073810Y-108672000D01*
X146026190Y-108767238D01*
X145978571Y-108957715D01*
X145930952Y-109052953D01*
X145883333Y-109100572D01*
X145788095Y-109148191D01*
X145692857Y-109148191D01*
X145597619Y-109100572D01*
X145550000Y-109052953D01*
X145502381Y-108957715D01*
X145502381Y-108719619D01*
X145550000Y-108576762D01*
X146502381Y-107576762D02*
X146026190Y-107910096D01*
X146502381Y-108148191D02*
X145502381Y-108148191D01*
X145502381Y-107767238D01*
X145550000Y-107672000D01*
X145597619Y-107624381D01*
X145692857Y-107576762D01*
X145835714Y-107576762D01*
X145930952Y-107624381D01*
X145978571Y-107672000D01*
X146026190Y-107767238D01*
X146026190Y-108148191D01*
X145502381Y-107291048D02*
X146502381Y-106957715D01*
X145502381Y-106624381D01*
X146597619Y-106529143D02*
X146597619Y-105767238D01*
X145502381Y-105672000D02*
X146502381Y-105338667D01*
X145502381Y-105005333D01*
X145502381Y-104481524D02*
X145502381Y-104386285D01*
X145550000Y-104291047D01*
X145597619Y-104243428D01*
X145692857Y-104195809D01*
X145883333Y-104148190D01*
X146121429Y-104148190D01*
X146311905Y-104195809D01*
X146407143Y-104243428D01*
X146454762Y-104291047D01*
X146502381Y-104386285D01*
X146502381Y-104481524D01*
X146454762Y-104576762D01*
X146407143Y-104624381D01*
X146311905Y-104672000D01*
X146121429Y-104719619D01*
X145883333Y-104719619D01*
X145692857Y-104672000D01*
X145597619Y-104624381D01*
X145550000Y-104576762D01*
X145502381Y-104481524D01*
X146502381Y-103195809D02*
X146502381Y-103767238D01*
X146502381Y-103481524D02*
X145502381Y-103481524D01*
X145645238Y-103576762D01*
X145740476Y-103672000D01*
X145788095Y-103767238D01*
X147590190Y-99528381D02*
X147780667Y-99528381D01*
X147875905Y-99576000D01*
X147971143Y-99671238D01*
X148018762Y-99861714D01*
X148018762Y-100195048D01*
X147971143Y-100385524D01*
X147875905Y-100480762D01*
X147780667Y-100528381D01*
X147590190Y-100528381D01*
X147494952Y-100480762D01*
X147399714Y-100385524D01*
X147352095Y-100195048D01*
X147352095Y-99861714D01*
X147399714Y-99671238D01*
X147494952Y-99576000D01*
X147590190Y-99528381D01*
X148447333Y-100528381D02*
X148447333Y-99528381D01*
X148447333Y-100004571D02*
X149018762Y-100004571D01*
X149018762Y-100528381D02*
X149018762Y-99528381D01*
X150018762Y-100528381D02*
X149447333Y-100528381D01*
X149733047Y-100528381D02*
X149733047Y-99528381D01*
X149637809Y-99671238D01*
X149542571Y-99766476D01*
X149447333Y-99814095D01*
X150590190Y-99956952D02*
X150494952Y-99909333D01*
X150447333Y-99861714D01*
X150399714Y-99766476D01*
X150399714Y-99718857D01*
X150447333Y-99623619D01*
X150494952Y-99576000D01*
X150590190Y-99528381D01*
X150780667Y-99528381D01*
X150875905Y-99576000D01*
X150923524Y-99623619D01*
X150971143Y-99718857D01*
X150971143Y-99766476D01*
X150923524Y-99861714D01*
X150875905Y-99909333D01*
X150780667Y-99956952D01*
X150590190Y-99956952D01*
X150494952Y-100004571D01*
X150447333Y-100052190D01*
X150399714Y-100147429D01*
X150399714Y-100337905D01*
X150447333Y-100433143D01*
X150494952Y-100480762D01*
X150590190Y-100528381D01*
X150780667Y-100528381D01*
X150875905Y-100480762D01*
X150923524Y-100433143D01*
X150971143Y-100337905D01*
X150971143Y-100147429D01*
X150923524Y-100052190D01*
X150875905Y-100004571D01*
X150780667Y-99956952D01*
X151590190Y-99528381D02*
X151685429Y-99528381D01*
X151780667Y-99576000D01*
X151828286Y-99623619D01*
X151875905Y-99718857D01*
X151923524Y-99909333D01*
X151923524Y-100147429D01*
X151875905Y-100337905D01*
X151828286Y-100433143D01*
X151780667Y-100480762D01*
X151685429Y-100528381D01*
X151590190Y-100528381D01*
X151494952Y-100480762D01*
X151447333Y-100433143D01*
X151399714Y-100337905D01*
X151352095Y-100147429D01*
X151352095Y-99909333D01*
X151399714Y-99718857D01*
X151447333Y-99623619D01*
X151494952Y-99576000D01*
X151590190Y-99528381D01*
X152494952Y-99956952D02*
X152399714Y-99909333D01*
X152352095Y-99861714D01*
X152304476Y-99766476D01*
X152304476Y-99718857D01*
X152352095Y-99623619D01*
X152399714Y-99576000D01*
X152494952Y-99528381D01*
X152685429Y-99528381D01*
X152780667Y-99576000D01*
X152828286Y-99623619D01*
X152875905Y-99718857D01*
X152875905Y-99766476D01*
X152828286Y-99861714D01*
X152780667Y-99909333D01*
X152685429Y-99956952D01*
X152494952Y-99956952D01*
X152399714Y-100004571D01*
X152352095Y-100052190D01*
X152304476Y-100147429D01*
X152304476Y-100337905D01*
X152352095Y-100433143D01*
X152399714Y-100480762D01*
X152494952Y-100528381D01*
X152685429Y-100528381D01*
X152780667Y-100480762D01*
X152828286Y-100433143D01*
X152875905Y-100337905D01*
X152875905Y-100147429D01*
X152828286Y-100052190D01*
X152780667Y-100004571D01*
X152685429Y-99956952D01*
X149488000Y-109474095D02*
X149440381Y-109569333D01*
X149440381Y-109712190D01*
X149488000Y-109855048D01*
X149583238Y-109950286D01*
X149678476Y-109997905D01*
X149868952Y-110045524D01*
X150011810Y-110045524D01*
X150202286Y-109997905D01*
X150297524Y-109950286D01*
X150392762Y-109855048D01*
X150440381Y-109712190D01*
X150440381Y-109616952D01*
X150392762Y-109474095D01*
X150345143Y-109426476D01*
X150011810Y-109426476D01*
X150011810Y-109616952D01*
X150440381Y-108997905D02*
X149440381Y-108997905D01*
X150440381Y-108426476D01*
X149440381Y-108426476D01*
X150440381Y-107950286D02*
X149440381Y-107950286D01*
X149440381Y-107712191D01*
X149488000Y-107569333D01*
X149583238Y-107474095D01*
X149678476Y-107426476D01*
X149868952Y-107378857D01*
X150011810Y-107378857D01*
X150202286Y-107426476D01*
X150297524Y-107474095D01*
X150392762Y-107569333D01*
X150440381Y-107712191D01*
X150440381Y-107950286D01*
X151090381Y-110140762D02*
X151090381Y-109569333D01*
X152090381Y-109855048D02*
X151090381Y-109855048D01*
X151566571Y-109236000D02*
X151566571Y-108902666D01*
X152090381Y-108759809D02*
X152090381Y-109236000D01*
X151090381Y-109236000D01*
X151090381Y-108759809D01*
X152042762Y-108378857D02*
X152090381Y-108236000D01*
X152090381Y-107997904D01*
X152042762Y-107902666D01*
X151995143Y-107855047D01*
X151899905Y-107807428D01*
X151804667Y-107807428D01*
X151709429Y-107855047D01*
X151661810Y-107902666D01*
X151614190Y-107997904D01*
X151566571Y-108188381D01*
X151518952Y-108283619D01*
X151471333Y-108331238D01*
X151376095Y-108378857D01*
X151280857Y-108378857D01*
X151185619Y-108331238D01*
X151138000Y-108283619D01*
X151090381Y-108188381D01*
X151090381Y-107950285D01*
X151138000Y-107807428D01*
X151090381Y-107521714D02*
X151090381Y-106950285D01*
X152090381Y-107236000D02*
X151090381Y-107236000D01*
X153740381Y-109426476D02*
X153264190Y-109759810D01*
X153740381Y-109997905D02*
X152740381Y-109997905D01*
X152740381Y-109616952D01*
X152788000Y-109521714D01*
X152835619Y-109474095D01*
X152930857Y-109426476D01*
X153073714Y-109426476D01*
X153168952Y-109474095D01*
X153216571Y-109521714D01*
X153264190Y-109616952D01*
X153264190Y-109997905D01*
X153692762Y-109045524D02*
X153740381Y-108902667D01*
X153740381Y-108664571D01*
X153692762Y-108569333D01*
X153645143Y-108521714D01*
X153549905Y-108474095D01*
X153454667Y-108474095D01*
X153359429Y-108521714D01*
X153311810Y-108569333D01*
X153264190Y-108664571D01*
X153216571Y-108855048D01*
X153168952Y-108950286D01*
X153121333Y-108997905D01*
X153026095Y-109045524D01*
X152930857Y-109045524D01*
X152835619Y-108997905D01*
X152788000Y-108950286D01*
X152740381Y-108855048D01*
X152740381Y-108616952D01*
X152788000Y-108474095D01*
X152740381Y-108188381D02*
X152740381Y-107616952D01*
X153740381Y-107902667D02*
X152740381Y-107902667D01*
X157099143Y-114884286D02*
X156765809Y-114027143D01*
X156527714Y-114884286D02*
X156527714Y-113084286D01*
X156908667Y-113084286D01*
X157003905Y-113170000D01*
X157051524Y-113255714D01*
X157099143Y-113427143D01*
X157099143Y-113684286D01*
X157051524Y-113855714D01*
X157003905Y-113941429D01*
X156908667Y-114027143D01*
X156527714Y-114027143D01*
X157432476Y-113084286D02*
X158099143Y-114884286D01*
X158099143Y-113084286D02*
X157432476Y-114884286D01*
X156384857Y-116968571D02*
X157146762Y-116968571D01*
X156765810Y-117654286D02*
X156765810Y-116282857D01*
X157480095Y-115854286D02*
X157813428Y-117654286D01*
X158146762Y-115854286D01*
X155956286Y-118710000D02*
X155861048Y-118624286D01*
X155718191Y-118624286D01*
X155575333Y-118710000D01*
X155480095Y-118881429D01*
X155432476Y-119052857D01*
X155384857Y-119395714D01*
X155384857Y-119652857D01*
X155432476Y-119995714D01*
X155480095Y-120167143D01*
X155575333Y-120338571D01*
X155718191Y-120424286D01*
X155813429Y-120424286D01*
X155956286Y-120338571D01*
X156003905Y-120252857D01*
X156003905Y-119652857D01*
X155813429Y-119652857D01*
X156432476Y-120424286D02*
X156432476Y-118624286D01*
X157003905Y-120424286D01*
X157003905Y-118624286D01*
X157480095Y-120424286D02*
X157480095Y-118624286D01*
X157718190Y-118624286D01*
X157861048Y-118710000D01*
X157956286Y-118881429D01*
X158003905Y-119052857D01*
X158051524Y-119395714D01*
X158051524Y-119652857D01*
X158003905Y-119995714D01*
X157956286Y-120167143D01*
X157861048Y-120338571D01*
X157718190Y-120424286D01*
X157480095Y-120424286D01*
X142239905Y-116079000D02*
X142144667Y-115993286D01*
X142001810Y-115993286D01*
X141858952Y-116079000D01*
X141763714Y-116250429D01*
X141716095Y-116421857D01*
X141668476Y-116764714D01*
X141668476Y-117021857D01*
X141716095Y-117364714D01*
X141763714Y-117536143D01*
X141858952Y-117707571D01*
X142001810Y-117793286D01*
X142097048Y-117793286D01*
X142239905Y-117707571D01*
X142287524Y-117621857D01*
X142287524Y-117021857D01*
X142097048Y-117021857D01*
X142716095Y-117793286D02*
X142716095Y-115993286D01*
X143287524Y-117793286D01*
X143287524Y-115993286D01*
X143763714Y-117793286D02*
X143763714Y-115993286D01*
X144001809Y-115993286D01*
X144144667Y-116079000D01*
X144239905Y-116250429D01*
X144287524Y-116421857D01*
X144335143Y-116764714D01*
X144335143Y-117021857D01*
X144287524Y-117364714D01*
X144239905Y-117536143D01*
X144144667Y-117707571D01*
X144001809Y-117793286D01*
X143763714Y-117793286D01*
X141573238Y-118763286D02*
X141906571Y-120563286D01*
X142239905Y-118763286D01*
X142573238Y-120563286D02*
X142573238Y-118763286D01*
X143049428Y-120563286D02*
X143049428Y-118763286D01*
X143620857Y-120563286D01*
X143620857Y-118763286D01*
X141510000Y-110774286D02*
X141843333Y-112574286D01*
X142176667Y-110774286D01*
X142986191Y-112574286D02*
X142510000Y-112574286D01*
X142510000Y-110774286D01*
X143319524Y-112574286D02*
X143319524Y-110774286D01*
X143795714Y-112574286D02*
X143795714Y-110774286D01*
X144176667Y-110774286D01*
X144271905Y-110860000D01*
X144319524Y-110945714D01*
X144367143Y-111117143D01*
X144367143Y-111374286D01*
X144319524Y-111545714D01*
X144271905Y-111631429D01*
X144176667Y-111717143D01*
X143795714Y-111717143D01*
X144986190Y-110774286D02*
X145176667Y-110774286D01*
X145271905Y-110860000D01*
X145367143Y-111031429D01*
X145414762Y-111374286D01*
X145414762Y-111974286D01*
X145367143Y-112317143D01*
X145271905Y-112488571D01*
X145176667Y-112574286D01*
X144986190Y-112574286D01*
X144890952Y-112488571D01*
X144795714Y-112317143D01*
X144748095Y-111974286D01*
X144748095Y-111374286D01*
X144795714Y-111031429D01*
X144890952Y-110860000D01*
X144986190Y-110774286D01*
X156658571Y-108663239D02*
X156658571Y-108472762D01*
X156730000Y-108377524D01*
X156872857Y-108282286D01*
X157158571Y-108234667D01*
X157658571Y-108234667D01*
X157944286Y-108282286D01*
X158087143Y-108377524D01*
X158158571Y-108472762D01*
X158158571Y-108663239D01*
X158087143Y-108758477D01*
X157944286Y-108853715D01*
X157658571Y-108901334D01*
X157158571Y-108901334D01*
X156872857Y-108853715D01*
X156730000Y-108758477D01*
X156658571Y-108663239D01*
X156658571Y-107806096D02*
X157872857Y-107806096D01*
X158015714Y-107758477D01*
X158087143Y-107710858D01*
X158158571Y-107615620D01*
X158158571Y-107425143D01*
X158087143Y-107329905D01*
X158015714Y-107282286D01*
X157872857Y-107234667D01*
X156658571Y-107234667D01*
X156658571Y-106901334D02*
X156658571Y-106329905D01*
X158158571Y-106615620D02*
X156658571Y-106615620D01*
X157587143Y-105234667D02*
X157587143Y-104472762D01*
X158158571Y-104853714D02*
X157015714Y-104853714D01*
X156658571Y-104139429D02*
X158158571Y-103806096D01*
X156658571Y-103472762D01*
X156730000Y-101853714D02*
X156658571Y-101948952D01*
X156658571Y-102091809D01*
X156730000Y-102234667D01*
X156872857Y-102329905D01*
X157015714Y-102377524D01*
X157301429Y-102425143D01*
X157515714Y-102425143D01*
X157801429Y-102377524D01*
X157944286Y-102329905D01*
X158087143Y-102234667D01*
X158158571Y-102091809D01*
X158158571Y-101996571D01*
X158087143Y-101853714D01*
X158015714Y-101806095D01*
X157515714Y-101806095D01*
X157515714Y-101996571D01*
X158158571Y-101377524D02*
X156658571Y-101377524D01*
X158158571Y-100806095D01*
X156658571Y-100806095D01*
X158158571Y-100329905D02*
X156658571Y-100329905D01*
X156658571Y-100091810D01*
X156730000Y-99948952D01*
X156872857Y-99853714D01*
X157015714Y-99806095D01*
X157301429Y-99758476D01*
X157515714Y-99758476D01*
X157801429Y-99806095D01*
X157944286Y-99853714D01*
X158087143Y-99948952D01*
X158158571Y-100091810D01*
X158158571Y-100329905D01*
X141652571Y-100384286D02*
X141843048Y-100384286D01*
X141938286Y-100470000D01*
X142033524Y-100641429D01*
X142081143Y-100984286D01*
X142081143Y-101584286D01*
X142033524Y-101927143D01*
X141938286Y-102098571D01*
X141843048Y-102184286D01*
X141652571Y-102184286D01*
X141557333Y-102098571D01*
X141462095Y-101927143D01*
X141414476Y-101584286D01*
X141414476Y-100984286D01*
X141462095Y-100641429D01*
X141557333Y-100470000D01*
X141652571Y-100384286D01*
X142509714Y-100384286D02*
X142509714Y-101841429D01*
X142557333Y-102012857D01*
X142604952Y-102098571D01*
X142700190Y-102184286D01*
X142890667Y-102184286D01*
X142985905Y-102098571D01*
X143033524Y-102012857D01*
X143081143Y-101841429D01*
X143081143Y-100384286D01*
X143414476Y-100384286D02*
X143985905Y-100384286D01*
X143700190Y-102184286D02*
X143700190Y-100384286D01*
X141462095Y-104268571D02*
X142224000Y-104268571D01*
X141843048Y-104954286D02*
X141843048Y-103582857D01*
X142557333Y-103154286D02*
X142890666Y-104954286D01*
X143224000Y-103154286D01*
X141985905Y-106010000D02*
X141890667Y-105924286D01*
X141747810Y-105924286D01*
X141604952Y-106010000D01*
X141509714Y-106181429D01*
X141462095Y-106352857D01*
X141414476Y-106695714D01*
X141414476Y-106952857D01*
X141462095Y-107295714D01*
X141509714Y-107467143D01*
X141604952Y-107638571D01*
X141747810Y-107724286D01*
X141843048Y-107724286D01*
X141985905Y-107638571D01*
X142033524Y-107552857D01*
X142033524Y-106952857D01*
X141843048Y-106952857D01*
X142462095Y-107724286D02*
X142462095Y-105924286D01*
X143033524Y-107724286D01*
X143033524Y-105924286D01*
X143509714Y-107724286D02*
X143509714Y-105924286D01*
X143747809Y-105924286D01*
X143890667Y-106010000D01*
X143985905Y-106181429D01*
X144033524Y-106352857D01*
X144081143Y-106695714D01*
X144081143Y-106952857D01*
X144033524Y-107295714D01*
X143985905Y-107467143D01*
X143890667Y-107638571D01*
X143747809Y-107724286D01*
X143509714Y-107724286D01*
X152919571Y-98551619D02*
X151419571Y-98551619D01*
X151419571Y-98170666D01*
X151491000Y-98075428D01*
X151562429Y-98027809D01*
X151705286Y-97980190D01*
X151919571Y-97980190D01*
X152062429Y-98027809D01*
X152133857Y-98075428D01*
X152205286Y-98170666D01*
X152205286Y-98551619D01*
X151419571Y-97646857D02*
X152919571Y-97408762D01*
X151848143Y-97218285D01*
X152919571Y-97027809D01*
X151419571Y-96789714D01*
X152919571Y-96408762D02*
X151419571Y-96408762D01*
X152491000Y-96075428D01*
X151419571Y-95742095D01*
X152919571Y-95742095D01*
X155269571Y-97742095D02*
X153769571Y-97742095D01*
X153769571Y-97504000D01*
X153841000Y-97361142D01*
X153983857Y-97265904D01*
X154126714Y-97218285D01*
X154412429Y-97170666D01*
X154626714Y-97170666D01*
X154912429Y-97218285D01*
X155055286Y-97265904D01*
X155198143Y-97361142D01*
X155269571Y-97504000D01*
X155269571Y-97742095D01*
X155269571Y-96742095D02*
X153769571Y-96742095D01*
X155269571Y-95694476D02*
X154555286Y-96027810D01*
X155269571Y-96265905D02*
X153769571Y-96265905D01*
X153769571Y-95884952D01*
X153841000Y-95789714D01*
X153912429Y-95742095D01*
X154055286Y-95694476D01*
X154269571Y-95694476D01*
X154412429Y-95742095D01*
X154483857Y-95789714D01*
X154555286Y-95884952D01*
X154555286Y-96265905D01*
X147054429Y-95742095D02*
X148554429Y-95742095D01*
X148554429Y-96123048D01*
X148483000Y-96218286D01*
X148411571Y-96265905D01*
X148268714Y-96313524D01*
X148054429Y-96313524D01*
X147911571Y-96265905D01*
X147840143Y-96218286D01*
X147768714Y-96123048D01*
X147768714Y-95742095D01*
X148554429Y-96646857D02*
X147054429Y-96884952D01*
X148125857Y-97075429D01*
X147054429Y-97265905D01*
X148554429Y-97504000D01*
X147054429Y-97884952D02*
X148554429Y-97884952D01*
X147483000Y-98218286D01*
X148554429Y-98551619D01*
X147054429Y-98551619D01*
X144704429Y-95742095D02*
X146204429Y-95742095D01*
X146204429Y-95980190D01*
X146133000Y-96123048D01*
X145990143Y-96218286D01*
X145847286Y-96265905D01*
X145561571Y-96313524D01*
X145347286Y-96313524D01*
X145061571Y-96265905D01*
X144918714Y-96218286D01*
X144775857Y-96123048D01*
X144704429Y-95980190D01*
X144704429Y-95742095D01*
X144704429Y-96742095D02*
X146204429Y-96742095D01*
X144704429Y-97789714D02*
X145418714Y-97456380D01*
X144704429Y-97218285D02*
X146204429Y-97218285D01*
X146204429Y-97599238D01*
X146133000Y-97694476D01*
X146061571Y-97742095D01*
X145918714Y-97789714D01*
X145704429Y-97789714D01*
X145561571Y-97742095D01*
X145490143Y-97694476D01*
X145418714Y-97599238D01*
X145418714Y-97218285D01*
X156638857Y-94944143D02*
X157400762Y-94944143D01*
X157019810Y-95515571D02*
X157019810Y-94372714D01*
X157734095Y-94015571D02*
X158067428Y-95515571D01*
X158400762Y-94015571D01*
X156067428Y-96365571D02*
X156257905Y-96365571D01*
X156353143Y-96437000D01*
X156448381Y-96579857D01*
X156496000Y-96865571D01*
X156496000Y-97365571D01*
X156448381Y-97651286D01*
X156353143Y-97794143D01*
X156257905Y-97865571D01*
X156067428Y-97865571D01*
X155972190Y-97794143D01*
X155876952Y-97651286D01*
X155829333Y-97365571D01*
X155829333Y-96865571D01*
X155876952Y-96579857D01*
X155972190Y-96437000D01*
X156067428Y-96365571D01*
X156924571Y-96365571D02*
X156924571Y-97579857D01*
X156972190Y-97722714D01*
X157019809Y-97794143D01*
X157115047Y-97865571D01*
X157305524Y-97865571D01*
X157400762Y-97794143D01*
X157448381Y-97722714D01*
X157496000Y-97579857D01*
X157496000Y-96365571D01*
X157829333Y-96365571D02*
X158400762Y-96365571D01*
X158115047Y-97865571D02*
X158115047Y-96365571D01*
X141462095Y-94944143D02*
X142224000Y-94944143D01*
X141843048Y-95515571D02*
X141843048Y-94372714D01*
X142557333Y-94015571D02*
X142890666Y-95515571D01*
X143224000Y-94015571D01*
X141652571Y-96365571D02*
X141843048Y-96365571D01*
X141938286Y-96437000D01*
X142033524Y-96579857D01*
X142081143Y-96865571D01*
X142081143Y-97365571D01*
X142033524Y-97651286D01*
X141938286Y-97794143D01*
X141843048Y-97865571D01*
X141652571Y-97865571D01*
X141557333Y-97794143D01*
X141462095Y-97651286D01*
X141414476Y-97365571D01*
X141414476Y-96865571D01*
X141462095Y-96579857D01*
X141557333Y-96437000D01*
X141652571Y-96365571D01*
X142509714Y-96365571D02*
X142509714Y-97579857D01*
X142557333Y-97722714D01*
X142604952Y-97794143D01*
X142700190Y-97865571D01*
X142890667Y-97865571D01*
X142985905Y-97794143D01*
X143033524Y-97722714D01*
X143081143Y-97579857D01*
X143081143Y-96365571D01*
X143414476Y-96365571D02*
X143985905Y-96365571D01*
X143700190Y-97865571D02*
X143700190Y-96365571D01*
D12*
X156148000Y-100816000D02*
X154748000Y-100816000D01*
X154748000Y-100816000D02*
X154748000Y-103616000D01*
X156148000Y-100816000D02*
X156148000Y-103616000D01*
X156148000Y-105134000D02*
X154748000Y-105134000D01*
X154748000Y-105134000D02*
X154748000Y-107934000D01*
X156148000Y-105134000D02*
X156148000Y-107934000D01*
X138370000Y-120710000D02*
X141030000Y-120710000D01*
X138370000Y-118110000D02*
X138370000Y-120710000D01*
X141030000Y-118110000D02*
X141030000Y-120710000D01*
X138370000Y-118110000D02*
X141030000Y-118110000D01*
X138370000Y-116840000D02*
X138370000Y-115510000D01*
X138370000Y-115510000D02*
X139700000Y-115510000D01*
X138370000Y-113090000D02*
X141030000Y-113090000D01*
X138370000Y-113030000D02*
X138370000Y-113090000D01*
X141030000Y-113030000D02*
X141030000Y-113090000D01*
X138370000Y-113030000D02*
X141030000Y-113030000D01*
X138370000Y-111760000D02*
X138370000Y-110430000D01*
X138370000Y-110430000D02*
X139700000Y-110430000D01*
X161350000Y-112970000D02*
X158690000Y-112970000D01*
X161350000Y-118110000D02*
X161350000Y-112970000D01*
X158690000Y-118110000D02*
X158690000Y-112970000D01*
X161350000Y-118110000D02*
X158690000Y-118110000D01*
X161350000Y-119380000D02*
X161350000Y-120710000D01*
X161350000Y-120710000D02*
X160020000Y-120710000D01*
X141030000Y-100270000D02*
X138370000Y-100270000D01*
X141030000Y-105410000D02*
X141030000Y-100270000D01*
X138370000Y-105410000D02*
X138370000Y-100270000D01*
X141030000Y-105410000D02*
X138370000Y-105410000D01*
X141030000Y-106680000D02*
X141030000Y-108010000D01*
X141030000Y-108010000D02*
X139700000Y-108010000D01*
X141030000Y-92650000D02*
X138370000Y-92650000D01*
X141030000Y-95250000D02*
X141030000Y-92650000D01*
X138370000Y-95250000D02*
X138370000Y-92650000D01*
X141030000Y-95250000D02*
X138370000Y-95250000D01*
X141030000Y-96520000D02*
X141030000Y-97850000D01*
X141030000Y-97850000D02*
X139700000Y-97850000D01*
X148650000Y-95310000D02*
X148650000Y-92650000D01*
X146050000Y-95310000D02*
X148650000Y-95310000D01*
X146050000Y-92650000D02*
X148650000Y-92650000D01*
X146050000Y-95310000D02*
X146050000Y-92650000D01*
X144780000Y-95310000D02*
X143450000Y-95310000D01*
X143450000Y-95310000D02*
X143450000Y-93980000D01*
X151070000Y-92650000D02*
X151070000Y-95310000D01*
X153670000Y-92650000D02*
X151070000Y-92650000D01*
X153670000Y-95310000D02*
X151070000Y-95310000D01*
X153670000Y-92650000D02*
X153670000Y-95310000D01*
X154940000Y-92650000D02*
X156270000Y-92650000D01*
X156270000Y-92650000D02*
X156270000Y-93980000D01*
X161350000Y-92650000D02*
X158690000Y-92650000D01*
X161350000Y-95250000D02*
X161350000Y-92650000D01*
X158690000Y-95250000D02*
X158690000Y-92650000D01*
X161350000Y-95250000D02*
X158690000Y-95250000D01*
X161350000Y-96520000D02*
X161350000Y-97850000D01*
X161350000Y-97850000D02*
X160020000Y-97850000D01*
X161350000Y-100270000D02*
X158690000Y-100270000D01*
X161350000Y-105410000D02*
X161350000Y-100270000D01*
X158690000Y-105410000D02*
X158690000Y-100270000D01*
X161350000Y-105410000D02*
X158690000Y-105410000D01*
X161350000Y-106680000D02*
X161350000Y-108010000D01*
X161350000Y-108010000D02*
X160020000Y-108010000D01*
X156270000Y-113090000D02*
X156270000Y-110430000D01*
X151130000Y-113090000D02*
X156270000Y-113090000D01*
X151130000Y-110430000D02*
X156270000Y-110430000D01*
X151130000Y-113090000D02*
X151130000Y-110430000D01*
X149860000Y-113090000D02*
X148530000Y-113090000D01*
X148530000Y-113090000D02*
X148530000Y-111760000D01*
D13*
X139977905Y-115006381D02*
X139977905Y-114006381D01*
X140358858Y-114006381D01*
X140454096Y-114054000D01*
X140501715Y-114101619D01*
X140549334Y-114196857D01*
X140549334Y-114339714D01*
X140501715Y-114434952D01*
X140454096Y-114482571D01*
X140358858Y-114530190D01*
X139977905Y-114530190D01*
X141501715Y-115006381D02*
X140930286Y-115006381D01*
X141216000Y-115006381D02*
X141216000Y-114006381D01*
X141120762Y-114149238D01*
X141025524Y-114244476D01*
X140930286Y-114292095D01*
X139977905Y-109926381D02*
X139977905Y-108926381D01*
X140358858Y-108926381D01*
X140454096Y-108974000D01*
X140501715Y-109021619D01*
X140549334Y-109116857D01*
X140549334Y-109259714D01*
X140501715Y-109354952D01*
X140454096Y-109402571D01*
X140358858Y-109450190D01*
X139977905Y-109450190D01*
X140930286Y-109021619D02*
X140977905Y-108974000D01*
X141073143Y-108926381D01*
X141311239Y-108926381D01*
X141406477Y-108974000D01*
X141454096Y-109021619D01*
X141501715Y-109116857D01*
X141501715Y-109212095D01*
X141454096Y-109354952D01*
X140882667Y-109926381D01*
X141501715Y-109926381D01*
X159281905Y-112466381D02*
X159281905Y-111466381D01*
X159662858Y-111466381D01*
X159758096Y-111514000D01*
X159805715Y-111561619D01*
X159853334Y-111656857D01*
X159853334Y-111799714D01*
X159805715Y-111894952D01*
X159758096Y-111942571D01*
X159662858Y-111990190D01*
X159281905Y-111990190D01*
X160186667Y-111466381D02*
X160805715Y-111466381D01*
X160472381Y-111847333D01*
X160615239Y-111847333D01*
X160710477Y-111894952D01*
X160758096Y-111942571D01*
X160805715Y-112037810D01*
X160805715Y-112275905D01*
X160758096Y-112371143D01*
X160710477Y-112418762D01*
X160615239Y-112466381D01*
X160329524Y-112466381D01*
X160234286Y-112418762D01*
X160186667Y-112371143D01*
X140231905Y-99766381D02*
X140231905Y-98766381D01*
X140612858Y-98766381D01*
X140708096Y-98814000D01*
X140755715Y-98861619D01*
X140803334Y-98956857D01*
X140803334Y-99099714D01*
X140755715Y-99194952D01*
X140708096Y-99242571D01*
X140612858Y-99290190D01*
X140231905Y-99290190D01*
X141660477Y-99099714D02*
X141660477Y-99766381D01*
X141422381Y-98718762D02*
X141184286Y-99433048D01*
X141803334Y-99433048D01*
X141247905Y-93416381D02*
X141247905Y-92416381D01*
X141628858Y-92416381D01*
X141724096Y-92464000D01*
X141771715Y-92511619D01*
X141819334Y-92606857D01*
X141819334Y-92749714D01*
X141771715Y-92844952D01*
X141724096Y-92892571D01*
X141628858Y-92940190D01*
X141247905Y-92940190D01*
X142724096Y-92416381D02*
X142247905Y-92416381D01*
X142200286Y-92892571D01*
X142247905Y-92844952D01*
X142343143Y-92797333D01*
X142581239Y-92797333D01*
X142676477Y-92844952D01*
X142724096Y-92892571D01*
X142771715Y-92987810D01*
X142771715Y-93225905D01*
X142724096Y-93321143D01*
X142676477Y-93368762D01*
X142581239Y-93416381D01*
X142343143Y-93416381D01*
X142247905Y-93368762D01*
X142200286Y-93321143D01*
X150058381Y-93956095D02*
X149058381Y-93956095D01*
X149058381Y-93575142D01*
X149106000Y-93479904D01*
X149153619Y-93432285D01*
X149248857Y-93384666D01*
X149391714Y-93384666D01*
X149486952Y-93432285D01*
X149534571Y-93479904D01*
X149582190Y-93575142D01*
X149582190Y-93956095D01*
X149058381Y-92527523D02*
X149058381Y-92718000D01*
X149106000Y-92813238D01*
X149153619Y-92860857D01*
X149296476Y-92956095D01*
X149486952Y-93003714D01*
X149867905Y-93003714D01*
X149963143Y-92956095D01*
X150010762Y-92908476D01*
X150058381Y-92813238D01*
X150058381Y-92622761D01*
X150010762Y-92527523D01*
X149963143Y-92479904D01*
X149867905Y-92432285D01*
X149629810Y-92432285D01*
X149534571Y-92479904D01*
X149486952Y-92527523D01*
X149439333Y-92622761D01*
X149439333Y-92813238D01*
X149486952Y-92908476D01*
X149534571Y-92956095D01*
X149629810Y-93003714D01*
X150820381Y-96242095D02*
X149820381Y-96242095D01*
X149820381Y-95861142D01*
X149868000Y-95765904D01*
X149915619Y-95718285D01*
X150010857Y-95670666D01*
X150153714Y-95670666D01*
X150248952Y-95718285D01*
X150296571Y-95765904D01*
X150344190Y-95861142D01*
X150344190Y-96242095D01*
X149820381Y-95337333D02*
X149820381Y-94670666D01*
X150820381Y-95099238D01*
X156741905Y-93416381D02*
X156741905Y-92416381D01*
X157122858Y-92416381D01*
X157218096Y-92464000D01*
X157265715Y-92511619D01*
X157313334Y-92606857D01*
X157313334Y-92749714D01*
X157265715Y-92844952D01*
X157218096Y-92892571D01*
X157122858Y-92940190D01*
X156741905Y-92940190D01*
X157884762Y-92844952D02*
X157789524Y-92797333D01*
X157741905Y-92749714D01*
X157694286Y-92654476D01*
X157694286Y-92606857D01*
X157741905Y-92511619D01*
X157789524Y-92464000D01*
X157884762Y-92416381D01*
X158075239Y-92416381D01*
X158170477Y-92464000D01*
X158218096Y-92511619D01*
X158265715Y-92606857D01*
X158265715Y-92654476D01*
X158218096Y-92749714D01*
X158170477Y-92797333D01*
X158075239Y-92844952D01*
X157884762Y-92844952D01*
X157789524Y-92892571D01*
X157741905Y-92940190D01*
X157694286Y-93035429D01*
X157694286Y-93225905D01*
X157741905Y-93321143D01*
X157789524Y-93368762D01*
X157884762Y-93416381D01*
X158075239Y-93416381D01*
X158170477Y-93368762D01*
X158218096Y-93321143D01*
X158265715Y-93225905D01*
X158265715Y-93035429D01*
X158218096Y-92940190D01*
X158170477Y-92892571D01*
X158075239Y-92844952D01*
X159281905Y-109418381D02*
X159281905Y-108418381D01*
X159662858Y-108418381D01*
X159758096Y-108466000D01*
X159805715Y-108513619D01*
X159853334Y-108608857D01*
X159853334Y-108751714D01*
X159805715Y-108846952D01*
X159758096Y-108894571D01*
X159662858Y-108942190D01*
X159281905Y-108942190D01*
X160329524Y-109418381D02*
X160520000Y-109418381D01*
X160615239Y-109370762D01*
X160662858Y-109323143D01*
X160758096Y-109180286D01*
X160805715Y-108989810D01*
X160805715Y-108608857D01*
X160758096Y-108513619D01*
X160710477Y-108466000D01*
X160615239Y-108418381D01*
X160424762Y-108418381D01*
X160329524Y-108466000D01*
X160281905Y-108513619D01*
X160234286Y-108608857D01*
X160234286Y-108846952D01*
X160281905Y-108942190D01*
X160329524Y-108989810D01*
X160424762Y-109037429D01*
X160615239Y-109037429D01*
X160710477Y-108989810D01*
X160758096Y-108942190D01*
X160805715Y-108846952D01*
D14*
X147982381Y-112974286D02*
X146982381Y-112974286D01*
X146982381Y-112593333D01*
X147030000Y-112498095D01*
X147077619Y-112450476D01*
X147172857Y-112402857D01*
X147315714Y-112402857D01*
X147410952Y-112450476D01*
X147458571Y-112498095D01*
X147506190Y-112593333D01*
X147506190Y-112974286D01*
X147982381Y-111450476D02*
X147982381Y-112021905D01*
X147982381Y-111736191D02*
X146982381Y-111736191D01*
X147125238Y-111831429D01*
X147220476Y-111926667D01*
X147268095Y-112021905D01*
X146982381Y-110831429D02*
X146982381Y-110736190D01*
X147030000Y-110640952D01*
X147077619Y-110593333D01*
X147172857Y-110545714D01*
X147363333Y-110498095D01*
X147601429Y-110498095D01*
X147791905Y-110545714D01*
X147887143Y-110593333D01*
X147934762Y-110640952D01*
X147982381Y-110736190D01*
X147982381Y-110831429D01*
X147934762Y-110926667D01*
X147887143Y-110974286D01*
X147791905Y-111021905D01*
X147601429Y-111069524D01*
X147363333Y-111069524D01*
X147172857Y-111021905D01*
X147077619Y-110974286D01*
X147030000Y-110926667D01*
X146982381Y-110831429D01*
D13*
X148026381Y-112974286D02*
X147026381Y-112974286D01*
X147026381Y-112593333D01*
X147074000Y-112498095D01*
X147121619Y-112450476D01*
X147216857Y-112402857D01*
X147359714Y-112402857D01*
X147454952Y-112450476D01*
X147502571Y-112498095D01*
X147550190Y-112593333D01*
X147550190Y-112974286D01*
X148026381Y-111450476D02*
X148026381Y-112021905D01*
X148026381Y-111736191D02*
X147026381Y-111736191D01*
X147169238Y-111831429D01*
X147264476Y-111926667D01*
X147312095Y-112021905D01*
X147026381Y-110831429D02*
X147026381Y-110736190D01*
X147074000Y-110640952D01*
X147121619Y-110593333D01*
X147216857Y-110545714D01*
X147407333Y-110498095D01*
X147645429Y-110498095D01*
X147835905Y-110545714D01*
X147931143Y-110593333D01*
X147978762Y-110640952D01*
X148026381Y-110736190D01*
X148026381Y-110831429D01*
X147978762Y-110926667D01*
X147931143Y-110974286D01*
X147835905Y-111021905D01*
X147645429Y-111069524D01*
X147407333Y-111069524D01*
X147216857Y-111021905D01*
X147121619Y-110974286D01*
X147074000Y-110926667D01*
X147026381Y-110831429D01*
M02*
