G04 #@! TF.GenerationSoftware,KiCad,Pcbnew,(5.0.0)*
G04 #@! TF.CreationDate,2018-08-22T14:54:55+02:00*
G04 #@! TF.ProjectId,msp430_servo,6D73703433305F736572766F2E6B6963,rev?*
G04 #@! TF.SameCoordinates,Original*
G04 #@! TF.FileFunction,Legend,Top*
G04 #@! TF.FilePolarity,Positive*
%FSLAX46Y46*%
G04 Gerber Fmt 4.6, Leading zero omitted, Abs format (unit mm)*
G04 Created by KiCad (PCBNEW (5.0.0)) date 08/22/18 14:54:55*
%MOMM*%
%LPD*%
G01*
G04 APERTURE LIST*
%ADD10C,0.250000*%
%ADD11C,0.120000*%
%ADD12C,0.200000*%
%ADD13C,0.150000*%
G04 APERTURE END LIST*
D10*
X146454761Y-109600571D02*
X146502380Y-109457714D01*
X146502380Y-109219619D01*
X146454761Y-109124380D01*
X146407142Y-109076761D01*
X146311904Y-109029142D01*
X146216666Y-109029142D01*
X146121428Y-109076761D01*
X146073809Y-109124380D01*
X146026190Y-109219619D01*
X145978571Y-109410095D01*
X145930952Y-109505333D01*
X145883333Y-109552952D01*
X145788095Y-109600571D01*
X145692857Y-109600571D01*
X145597619Y-109552952D01*
X145550000Y-109505333D01*
X145502380Y-109410095D01*
X145502380Y-109172000D01*
X145550000Y-109029142D01*
X146502380Y-108029142D02*
X146026190Y-108362476D01*
X146502380Y-108600571D02*
X145502380Y-108600571D01*
X145502380Y-108219619D01*
X145550000Y-108124380D01*
X145597619Y-108076761D01*
X145692857Y-108029142D01*
X145835714Y-108029142D01*
X145930952Y-108076761D01*
X145978571Y-108124380D01*
X146026190Y-108219619D01*
X146026190Y-108600571D01*
X145502380Y-107743428D02*
X146502380Y-107410095D01*
X145502380Y-107076761D01*
X146597619Y-106981523D02*
X146597619Y-106219619D01*
X145502380Y-106124380D02*
X146502380Y-105791047D01*
X145502380Y-105457714D01*
X145502380Y-104933904D02*
X145502380Y-104838666D01*
X145550000Y-104743428D01*
X145597619Y-104695809D01*
X145692857Y-104648190D01*
X145883333Y-104600571D01*
X146121428Y-104600571D01*
X146311904Y-104648190D01*
X146407142Y-104695809D01*
X146454761Y-104743428D01*
X146502380Y-104838666D01*
X146502380Y-104933904D01*
X146454761Y-105029142D01*
X146407142Y-105076761D01*
X146311904Y-105124380D01*
X146121428Y-105172000D01*
X145883333Y-105172000D01*
X145692857Y-105124380D01*
X145597619Y-105076761D01*
X145550000Y-105029142D01*
X145502380Y-104933904D01*
X146502380Y-103648190D02*
X146502380Y-104219619D01*
X146502380Y-103933904D02*
X145502380Y-103933904D01*
X145645238Y-104029142D01*
X145740476Y-104124380D01*
X145788095Y-104219619D01*
X146502380Y-102791047D02*
X145978571Y-102791047D01*
X145883333Y-102838666D01*
X145835714Y-102933904D01*
X145835714Y-103124380D01*
X145883333Y-103219619D01*
X146454761Y-102791047D02*
X146502380Y-102886285D01*
X146502380Y-103124380D01*
X146454761Y-103219619D01*
X146359523Y-103267238D01*
X146264285Y-103267238D01*
X146169047Y-103219619D01*
X146121428Y-103124380D01*
X146121428Y-102886285D01*
X146073809Y-102791047D01*
X147590190Y-99528380D02*
X147780666Y-99528380D01*
X147875904Y-99576000D01*
X147971142Y-99671238D01*
X148018761Y-99861714D01*
X148018761Y-100195047D01*
X147971142Y-100385523D01*
X147875904Y-100480761D01*
X147780666Y-100528380D01*
X147590190Y-100528380D01*
X147494952Y-100480761D01*
X147399714Y-100385523D01*
X147352095Y-100195047D01*
X147352095Y-99861714D01*
X147399714Y-99671238D01*
X147494952Y-99576000D01*
X147590190Y-99528380D01*
X148447333Y-100528380D02*
X148447333Y-99528380D01*
X148447333Y-100004571D02*
X149018761Y-100004571D01*
X149018761Y-100528380D02*
X149018761Y-99528380D01*
X150018761Y-100528380D02*
X149447333Y-100528380D01*
X149733047Y-100528380D02*
X149733047Y-99528380D01*
X149637809Y-99671238D01*
X149542571Y-99766476D01*
X149447333Y-99814095D01*
X150590190Y-99956952D02*
X150494952Y-99909333D01*
X150447333Y-99861714D01*
X150399714Y-99766476D01*
X150399714Y-99718857D01*
X150447333Y-99623619D01*
X150494952Y-99576000D01*
X150590190Y-99528380D01*
X150780666Y-99528380D01*
X150875904Y-99576000D01*
X150923523Y-99623619D01*
X150971142Y-99718857D01*
X150971142Y-99766476D01*
X150923523Y-99861714D01*
X150875904Y-99909333D01*
X150780666Y-99956952D01*
X150590190Y-99956952D01*
X150494952Y-100004571D01*
X150447333Y-100052190D01*
X150399714Y-100147428D01*
X150399714Y-100337904D01*
X150447333Y-100433142D01*
X150494952Y-100480761D01*
X150590190Y-100528380D01*
X150780666Y-100528380D01*
X150875904Y-100480761D01*
X150923523Y-100433142D01*
X150971142Y-100337904D01*
X150971142Y-100147428D01*
X150923523Y-100052190D01*
X150875904Y-100004571D01*
X150780666Y-99956952D01*
X151590190Y-99528380D02*
X151685428Y-99528380D01*
X151780666Y-99576000D01*
X151828285Y-99623619D01*
X151875904Y-99718857D01*
X151923523Y-99909333D01*
X151923523Y-100147428D01*
X151875904Y-100337904D01*
X151828285Y-100433142D01*
X151780666Y-100480761D01*
X151685428Y-100528380D01*
X151590190Y-100528380D01*
X151494952Y-100480761D01*
X151447333Y-100433142D01*
X151399714Y-100337904D01*
X151352095Y-100147428D01*
X151352095Y-99909333D01*
X151399714Y-99718857D01*
X151447333Y-99623619D01*
X151494952Y-99576000D01*
X151590190Y-99528380D01*
X152494952Y-99956952D02*
X152399714Y-99909333D01*
X152352095Y-99861714D01*
X152304476Y-99766476D01*
X152304476Y-99718857D01*
X152352095Y-99623619D01*
X152399714Y-99576000D01*
X152494952Y-99528380D01*
X152685428Y-99528380D01*
X152780666Y-99576000D01*
X152828285Y-99623619D01*
X152875904Y-99718857D01*
X152875904Y-99766476D01*
X152828285Y-99861714D01*
X152780666Y-99909333D01*
X152685428Y-99956952D01*
X152494952Y-99956952D01*
X152399714Y-100004571D01*
X152352095Y-100052190D01*
X152304476Y-100147428D01*
X152304476Y-100337904D01*
X152352095Y-100433142D01*
X152399714Y-100480761D01*
X152494952Y-100528380D01*
X152685428Y-100528380D01*
X152780666Y-100480761D01*
X152828285Y-100433142D01*
X152875904Y-100337904D01*
X152875904Y-100147428D01*
X152828285Y-100052190D01*
X152780666Y-100004571D01*
X152685428Y-99956952D01*
X149388000Y-109311595D02*
X149340380Y-109406833D01*
X149340380Y-109549690D01*
X149388000Y-109692547D01*
X149483238Y-109787785D01*
X149578476Y-109835404D01*
X149768952Y-109883023D01*
X149911809Y-109883023D01*
X150102285Y-109835404D01*
X150197523Y-109787785D01*
X150292761Y-109692547D01*
X150340380Y-109549690D01*
X150340380Y-109454452D01*
X150292761Y-109311595D01*
X150245142Y-109263976D01*
X149911809Y-109263976D01*
X149911809Y-109454452D01*
X150340380Y-108835404D02*
X149340380Y-108835404D01*
X150340380Y-108263976D01*
X149340380Y-108263976D01*
X150340380Y-107787785D02*
X149340380Y-107787785D01*
X149340380Y-107549690D01*
X149388000Y-107406833D01*
X149483238Y-107311595D01*
X149578476Y-107263976D01*
X149768952Y-107216357D01*
X149911809Y-107216357D01*
X150102285Y-107263976D01*
X150197523Y-107311595D01*
X150292761Y-107406833D01*
X150340380Y-107549690D01*
X150340380Y-107787785D01*
X151090380Y-109978261D02*
X151090380Y-109406833D01*
X152090380Y-109692547D02*
X151090380Y-109692547D01*
X151566571Y-109073500D02*
X151566571Y-108740166D01*
X152090380Y-108597309D02*
X152090380Y-109073500D01*
X151090380Y-109073500D01*
X151090380Y-108597309D01*
X152042761Y-108216357D02*
X152090380Y-108073500D01*
X152090380Y-107835404D01*
X152042761Y-107740166D01*
X151995142Y-107692547D01*
X151899904Y-107644928D01*
X151804666Y-107644928D01*
X151709428Y-107692547D01*
X151661809Y-107740166D01*
X151614190Y-107835404D01*
X151566571Y-108025880D01*
X151518952Y-108121119D01*
X151471333Y-108168738D01*
X151376095Y-108216357D01*
X151280857Y-108216357D01*
X151185619Y-108168738D01*
X151138000Y-108121119D01*
X151090380Y-108025880D01*
X151090380Y-107787785D01*
X151138000Y-107644928D01*
X151090380Y-107359214D02*
X151090380Y-106787785D01*
X152090380Y-107073500D02*
X151090380Y-107073500D01*
X153840380Y-109263976D02*
X153364190Y-109597309D01*
X153840380Y-109835404D02*
X152840380Y-109835404D01*
X152840380Y-109454452D01*
X152888000Y-109359214D01*
X152935619Y-109311595D01*
X153030857Y-109263976D01*
X153173714Y-109263976D01*
X153268952Y-109311595D01*
X153316571Y-109359214D01*
X153364190Y-109454452D01*
X153364190Y-109835404D01*
X153792761Y-108883023D02*
X153840380Y-108740166D01*
X153840380Y-108502071D01*
X153792761Y-108406833D01*
X153745142Y-108359214D01*
X153649904Y-108311595D01*
X153554666Y-108311595D01*
X153459428Y-108359214D01*
X153411809Y-108406833D01*
X153364190Y-108502071D01*
X153316571Y-108692547D01*
X153268952Y-108787785D01*
X153221333Y-108835404D01*
X153126095Y-108883023D01*
X153030857Y-108883023D01*
X152935619Y-108835404D01*
X152888000Y-108787785D01*
X152840380Y-108692547D01*
X152840380Y-108454452D01*
X152888000Y-108311595D01*
X152840380Y-108025880D02*
X152840380Y-107454452D01*
X153840380Y-107740166D02*
X152840380Y-107740166D01*
X156936642Y-114704285D02*
X156603309Y-113847142D01*
X156365214Y-114704285D02*
X156365214Y-112904285D01*
X156746166Y-112904285D01*
X156841404Y-112990000D01*
X156889023Y-113075714D01*
X156936642Y-113247142D01*
X156936642Y-113504285D01*
X156889023Y-113675714D01*
X156841404Y-113761428D01*
X156746166Y-113847142D01*
X156365214Y-113847142D01*
X157269976Y-112904285D02*
X157936642Y-114704285D01*
X157936642Y-112904285D02*
X157269976Y-114704285D01*
X156222357Y-116968571D02*
X156984261Y-116968571D01*
X156603309Y-117654285D02*
X156603309Y-116282857D01*
X157317595Y-115854285D02*
X157650928Y-117654285D01*
X157984261Y-115854285D01*
X155793785Y-118890000D02*
X155698547Y-118804285D01*
X155555690Y-118804285D01*
X155412833Y-118890000D01*
X155317595Y-119061428D01*
X155269976Y-119232857D01*
X155222357Y-119575714D01*
X155222357Y-119832857D01*
X155269976Y-120175714D01*
X155317595Y-120347142D01*
X155412833Y-120518571D01*
X155555690Y-120604285D01*
X155650928Y-120604285D01*
X155793785Y-120518571D01*
X155841404Y-120432857D01*
X155841404Y-119832857D01*
X155650928Y-119832857D01*
X156269976Y-120604285D02*
X156269976Y-118804285D01*
X156841404Y-120604285D01*
X156841404Y-118804285D01*
X157317595Y-120604285D02*
X157317595Y-118804285D01*
X157555690Y-118804285D01*
X157698547Y-118890000D01*
X157793785Y-119061428D01*
X157841404Y-119232857D01*
X157889023Y-119575714D01*
X157889023Y-119832857D01*
X157841404Y-120175714D01*
X157793785Y-120347142D01*
X157698547Y-120518571D01*
X157555690Y-120604285D01*
X157317595Y-120604285D01*
X142402404Y-115989000D02*
X142307166Y-115903285D01*
X142164309Y-115903285D01*
X142021452Y-115989000D01*
X141926214Y-116160428D01*
X141878595Y-116331857D01*
X141830976Y-116674714D01*
X141830976Y-116931857D01*
X141878595Y-117274714D01*
X141926214Y-117446142D01*
X142021452Y-117617571D01*
X142164309Y-117703285D01*
X142259547Y-117703285D01*
X142402404Y-117617571D01*
X142450023Y-117531857D01*
X142450023Y-116931857D01*
X142259547Y-116931857D01*
X142878595Y-117703285D02*
X142878595Y-115903285D01*
X143450023Y-117703285D01*
X143450023Y-115903285D01*
X143926214Y-117703285D02*
X143926214Y-115903285D01*
X144164309Y-115903285D01*
X144307166Y-115989000D01*
X144402404Y-116160428D01*
X144450023Y-116331857D01*
X144497642Y-116674714D01*
X144497642Y-116931857D01*
X144450023Y-117274714D01*
X144402404Y-117446142D01*
X144307166Y-117617571D01*
X144164309Y-117703285D01*
X143926214Y-117703285D01*
X141735738Y-118853285D02*
X142069071Y-120653285D01*
X142402404Y-118853285D01*
X142735738Y-120653285D02*
X142735738Y-118853285D01*
X143211928Y-120653285D02*
X143211928Y-118853285D01*
X143783357Y-120653285D01*
X143783357Y-118853285D01*
X141510000Y-110774285D02*
X141843333Y-112574285D01*
X142176666Y-110774285D01*
X142986190Y-112574285D02*
X142510000Y-112574285D01*
X142510000Y-110774285D01*
X143319523Y-112574285D02*
X143319523Y-110774285D01*
X143795714Y-112574285D02*
X143795714Y-110774285D01*
X144176666Y-110774285D01*
X144271904Y-110860000D01*
X144319523Y-110945714D01*
X144367142Y-111117142D01*
X144367142Y-111374285D01*
X144319523Y-111545714D01*
X144271904Y-111631428D01*
X144176666Y-111717142D01*
X143795714Y-111717142D01*
X144986190Y-110774285D02*
X145176666Y-110774285D01*
X145271904Y-110860000D01*
X145367142Y-111031428D01*
X145414761Y-111374285D01*
X145414761Y-111974285D01*
X145367142Y-112317142D01*
X145271904Y-112488571D01*
X145176666Y-112574285D01*
X144986190Y-112574285D01*
X144890952Y-112488571D01*
X144795714Y-112317142D01*
X144748095Y-111974285D01*
X144748095Y-111374285D01*
X144795714Y-111031428D01*
X144890952Y-110860000D01*
X144986190Y-110774285D01*
X158301428Y-99962261D02*
X158301428Y-100152738D01*
X158230000Y-100247976D01*
X158087142Y-100343214D01*
X157801428Y-100390833D01*
X157301428Y-100390833D01*
X157015714Y-100343214D01*
X156872857Y-100247976D01*
X156801428Y-100152738D01*
X156801428Y-99962261D01*
X156872857Y-99867023D01*
X157015714Y-99771785D01*
X157301428Y-99724166D01*
X157801428Y-99724166D01*
X158087142Y-99771785D01*
X158230000Y-99867023D01*
X158301428Y-99962261D01*
X158301428Y-100819404D02*
X157087142Y-100819404D01*
X156944285Y-100867023D01*
X156872857Y-100914642D01*
X156801428Y-101009880D01*
X156801428Y-101200357D01*
X156872857Y-101295595D01*
X156944285Y-101343214D01*
X157087142Y-101390833D01*
X158301428Y-101390833D01*
X158301428Y-101724166D02*
X158301428Y-102295595D01*
X156801428Y-102009880D02*
X158301428Y-102009880D01*
X157372857Y-103390833D02*
X157372857Y-104152738D01*
X156801428Y-103771785D02*
X157944285Y-103771785D01*
X158301428Y-104486071D02*
X156801428Y-104819404D01*
X158301428Y-105152738D01*
X158230000Y-106771785D02*
X158301428Y-106676547D01*
X158301428Y-106533690D01*
X158230000Y-106390833D01*
X158087142Y-106295595D01*
X157944285Y-106247976D01*
X157658571Y-106200357D01*
X157444285Y-106200357D01*
X157158571Y-106247976D01*
X157015714Y-106295595D01*
X156872857Y-106390833D01*
X156801428Y-106533690D01*
X156801428Y-106628928D01*
X156872857Y-106771785D01*
X156944285Y-106819404D01*
X157444285Y-106819404D01*
X157444285Y-106628928D01*
X156801428Y-107247976D02*
X158301428Y-107247976D01*
X156801428Y-107819404D01*
X158301428Y-107819404D01*
X156801428Y-108295595D02*
X158301428Y-108295595D01*
X158301428Y-108533690D01*
X158230000Y-108676547D01*
X158087142Y-108771785D01*
X157944285Y-108819404D01*
X157658571Y-108867023D01*
X157444285Y-108867023D01*
X157158571Y-108819404D01*
X157015714Y-108771785D01*
X156872857Y-108676547D01*
X156801428Y-108533690D01*
X156801428Y-108295595D01*
X141815071Y-100204285D02*
X142005547Y-100204285D01*
X142100785Y-100290000D01*
X142196023Y-100461428D01*
X142243642Y-100804285D01*
X142243642Y-101404285D01*
X142196023Y-101747142D01*
X142100785Y-101918571D01*
X142005547Y-102004285D01*
X141815071Y-102004285D01*
X141719833Y-101918571D01*
X141624595Y-101747142D01*
X141576976Y-101404285D01*
X141576976Y-100804285D01*
X141624595Y-100461428D01*
X141719833Y-100290000D01*
X141815071Y-100204285D01*
X142672214Y-100204285D02*
X142672214Y-101661428D01*
X142719833Y-101832857D01*
X142767452Y-101918571D01*
X142862690Y-102004285D01*
X143053166Y-102004285D01*
X143148404Y-101918571D01*
X143196023Y-101832857D01*
X143243642Y-101661428D01*
X143243642Y-100204285D01*
X143576976Y-100204285D02*
X144148404Y-100204285D01*
X143862690Y-102004285D02*
X143862690Y-100204285D01*
X141624595Y-104268571D02*
X142386500Y-104268571D01*
X142005547Y-104954285D02*
X142005547Y-103582857D01*
X142719833Y-103154285D02*
X143053166Y-104954285D01*
X143386500Y-103154285D01*
X142148404Y-106190000D02*
X142053166Y-106104285D01*
X141910309Y-106104285D01*
X141767452Y-106190000D01*
X141672214Y-106361428D01*
X141624595Y-106532857D01*
X141576976Y-106875714D01*
X141576976Y-107132857D01*
X141624595Y-107475714D01*
X141672214Y-107647142D01*
X141767452Y-107818571D01*
X141910309Y-107904285D01*
X142005547Y-107904285D01*
X142148404Y-107818571D01*
X142196023Y-107732857D01*
X142196023Y-107132857D01*
X142005547Y-107132857D01*
X142624595Y-107904285D02*
X142624595Y-106104285D01*
X143196023Y-107904285D01*
X143196023Y-106104285D01*
X143672214Y-107904285D02*
X143672214Y-106104285D01*
X143910309Y-106104285D01*
X144053166Y-106190000D01*
X144148404Y-106361428D01*
X144196023Y-106532857D01*
X144243642Y-106875714D01*
X144243642Y-107132857D01*
X144196023Y-107475714D01*
X144148404Y-107647142D01*
X144053166Y-107818571D01*
X143910309Y-107904285D01*
X143672214Y-107904285D01*
X152844571Y-98714119D02*
X151344571Y-98714119D01*
X151344571Y-98333166D01*
X151416000Y-98237928D01*
X151487428Y-98190309D01*
X151630285Y-98142690D01*
X151844571Y-98142690D01*
X151987428Y-98190309D01*
X152058857Y-98237928D01*
X152130285Y-98333166D01*
X152130285Y-98714119D01*
X151344571Y-97809357D02*
X152844571Y-97571261D01*
X151773142Y-97380785D01*
X152844571Y-97190309D01*
X151344571Y-96952214D01*
X152844571Y-96571261D02*
X151344571Y-96571261D01*
X152416000Y-96237928D01*
X151344571Y-95904595D01*
X152844571Y-95904595D01*
X155344571Y-97904595D02*
X153844571Y-97904595D01*
X153844571Y-97666500D01*
X153916000Y-97523642D01*
X154058857Y-97428404D01*
X154201714Y-97380785D01*
X154487428Y-97333166D01*
X154701714Y-97333166D01*
X154987428Y-97380785D01*
X155130285Y-97428404D01*
X155273142Y-97523642D01*
X155344571Y-97666500D01*
X155344571Y-97904595D01*
X155344571Y-96904595D02*
X153844571Y-96904595D01*
X155344571Y-95856976D02*
X154630285Y-96190309D01*
X155344571Y-96428404D02*
X153844571Y-96428404D01*
X153844571Y-96047452D01*
X153916000Y-95952214D01*
X153987428Y-95904595D01*
X154130285Y-95856976D01*
X154344571Y-95856976D01*
X154487428Y-95904595D01*
X154558857Y-95952214D01*
X154630285Y-96047452D01*
X154630285Y-96428404D01*
X147129428Y-95904595D02*
X148629428Y-95904595D01*
X148629428Y-96285547D01*
X148558000Y-96380785D01*
X148486571Y-96428404D01*
X148343714Y-96476023D01*
X148129428Y-96476023D01*
X147986571Y-96428404D01*
X147915142Y-96380785D01*
X147843714Y-96285547D01*
X147843714Y-95904595D01*
X148629428Y-96809357D02*
X147129428Y-97047452D01*
X148200857Y-97237928D01*
X147129428Y-97428404D01*
X148629428Y-97666500D01*
X147129428Y-98047452D02*
X148629428Y-98047452D01*
X147558000Y-98380785D01*
X148629428Y-98714119D01*
X147129428Y-98714119D01*
X144629428Y-95904595D02*
X146129428Y-95904595D01*
X146129428Y-96142690D01*
X146058000Y-96285547D01*
X145915142Y-96380785D01*
X145772285Y-96428404D01*
X145486571Y-96476023D01*
X145272285Y-96476023D01*
X144986571Y-96428404D01*
X144843714Y-96380785D01*
X144700857Y-96285547D01*
X144629428Y-96142690D01*
X144629428Y-95904595D01*
X144629428Y-96904595D02*
X146129428Y-96904595D01*
X144629428Y-97952214D02*
X145343714Y-97618880D01*
X144629428Y-97380785D02*
X146129428Y-97380785D01*
X146129428Y-97761738D01*
X146058000Y-97856976D01*
X145986571Y-97904595D01*
X145843714Y-97952214D01*
X145629428Y-97952214D01*
X145486571Y-97904595D01*
X145415142Y-97856976D01*
X145343714Y-97761738D01*
X145343714Y-97380785D01*
X156476357Y-94869142D02*
X157238261Y-94869142D01*
X156857309Y-95440571D02*
X156857309Y-94297714D01*
X157571595Y-93940571D02*
X157904928Y-95440571D01*
X158238261Y-93940571D01*
X155904928Y-96440571D02*
X156095404Y-96440571D01*
X156190642Y-96512000D01*
X156285880Y-96654857D01*
X156333500Y-96940571D01*
X156333500Y-97440571D01*
X156285880Y-97726285D01*
X156190642Y-97869142D01*
X156095404Y-97940571D01*
X155904928Y-97940571D01*
X155809690Y-97869142D01*
X155714452Y-97726285D01*
X155666833Y-97440571D01*
X155666833Y-96940571D01*
X155714452Y-96654857D01*
X155809690Y-96512000D01*
X155904928Y-96440571D01*
X156762071Y-96440571D02*
X156762071Y-97654857D01*
X156809690Y-97797714D01*
X156857309Y-97869142D01*
X156952547Y-97940571D01*
X157143023Y-97940571D01*
X157238261Y-97869142D01*
X157285880Y-97797714D01*
X157333500Y-97654857D01*
X157333500Y-96440571D01*
X157666833Y-96440571D02*
X158238261Y-96440571D01*
X157952547Y-97940571D02*
X157952547Y-96440571D01*
X141624595Y-94869142D02*
X142386500Y-94869142D01*
X142005547Y-95440571D02*
X142005547Y-94297714D01*
X142719833Y-93940571D02*
X143053166Y-95440571D01*
X143386500Y-93940571D01*
X141815071Y-96440571D02*
X142005547Y-96440571D01*
X142100785Y-96512000D01*
X142196023Y-96654857D01*
X142243642Y-96940571D01*
X142243642Y-97440571D01*
X142196023Y-97726285D01*
X142100785Y-97869142D01*
X142005547Y-97940571D01*
X141815071Y-97940571D01*
X141719833Y-97869142D01*
X141624595Y-97726285D01*
X141576976Y-97440571D01*
X141576976Y-96940571D01*
X141624595Y-96654857D01*
X141719833Y-96512000D01*
X141815071Y-96440571D01*
X142672214Y-96440571D02*
X142672214Y-97654857D01*
X142719833Y-97797714D01*
X142767452Y-97869142D01*
X142862690Y-97940571D01*
X143053166Y-97940571D01*
X143148404Y-97869142D01*
X143196023Y-97797714D01*
X143243642Y-97654857D01*
X143243642Y-96440571D01*
X143576976Y-96440571D02*
X144148404Y-96440571D01*
X143862690Y-97940571D02*
X143862690Y-96440571D01*
D11*
G04 #@! TO.C,LED1*
X156148000Y-100816000D02*
X154748000Y-100816000D01*
X154748000Y-100816000D02*
X154748000Y-103616000D01*
X156148000Y-100816000D02*
X156148000Y-103616000D01*
G04 #@! TO.C,LED2*
X156148000Y-105134000D02*
X154748000Y-105134000D01*
X154748000Y-105134000D02*
X154748000Y-107934000D01*
X156148000Y-105134000D02*
X156148000Y-107934000D01*
G04 #@! TO.C,P1*
X138370000Y-120710000D02*
X141030000Y-120710000D01*
X138370000Y-118110000D02*
X138370000Y-120710000D01*
X141030000Y-118110000D02*
X141030000Y-120710000D01*
X138370000Y-118110000D02*
X141030000Y-118110000D01*
X138370000Y-116840000D02*
X138370000Y-115510000D01*
X138370000Y-115510000D02*
X139700000Y-115510000D01*
G04 #@! TO.C,P2*
X138370000Y-113090000D02*
X141030000Y-113090000D01*
X138370000Y-113030000D02*
X138370000Y-113090000D01*
X141030000Y-113030000D02*
X141030000Y-113090000D01*
X138370000Y-113030000D02*
X141030000Y-113030000D01*
X138370000Y-111760000D02*
X138370000Y-110430000D01*
X138370000Y-110430000D02*
X139700000Y-110430000D01*
G04 #@! TO.C,P3*
X161350000Y-112970000D02*
X158690000Y-112970000D01*
X161350000Y-118110000D02*
X161350000Y-112970000D01*
X158690000Y-118110000D02*
X158690000Y-112970000D01*
X161350000Y-118110000D02*
X158690000Y-118110000D01*
X161350000Y-119380000D02*
X161350000Y-120710000D01*
X161350000Y-120710000D02*
X160020000Y-120710000D01*
G04 #@! TO.C,P4*
X141030000Y-100270000D02*
X138370000Y-100270000D01*
X141030000Y-105410000D02*
X141030000Y-100270000D01*
X138370000Y-105410000D02*
X138370000Y-100270000D01*
X141030000Y-105410000D02*
X138370000Y-105410000D01*
X141030000Y-106680000D02*
X141030000Y-108010000D01*
X141030000Y-108010000D02*
X139700000Y-108010000D01*
G04 #@! TO.C,P5*
X141030000Y-92650000D02*
X138370000Y-92650000D01*
X141030000Y-95250000D02*
X141030000Y-92650000D01*
X138370000Y-95250000D02*
X138370000Y-92650000D01*
X141030000Y-95250000D02*
X138370000Y-95250000D01*
X141030000Y-96520000D02*
X141030000Y-97850000D01*
X141030000Y-97850000D02*
X139700000Y-97850000D01*
G04 #@! TO.C,P6*
X148650000Y-95310000D02*
X148650000Y-92650000D01*
X146050000Y-95310000D02*
X148650000Y-95310000D01*
X146050000Y-92650000D02*
X148650000Y-92650000D01*
X146050000Y-95310000D02*
X146050000Y-92650000D01*
X144780000Y-95310000D02*
X143450000Y-95310000D01*
X143450000Y-95310000D02*
X143450000Y-93980000D01*
G04 #@! TO.C,P7*
X151070000Y-92650000D02*
X151070000Y-95310000D01*
X153670000Y-92650000D02*
X151070000Y-92650000D01*
X153670000Y-95310000D02*
X151070000Y-95310000D01*
X153670000Y-92650000D02*
X153670000Y-95310000D01*
X154940000Y-92650000D02*
X156270000Y-92650000D01*
X156270000Y-92650000D02*
X156270000Y-93980000D01*
G04 #@! TO.C,P8*
X161350000Y-92650000D02*
X158690000Y-92650000D01*
X161350000Y-95250000D02*
X161350000Y-92650000D01*
X158690000Y-95250000D02*
X158690000Y-92650000D01*
X161350000Y-95250000D02*
X158690000Y-95250000D01*
X161350000Y-96520000D02*
X161350000Y-97850000D01*
X161350000Y-97850000D02*
X160020000Y-97850000D01*
G04 #@! TO.C,P9*
X161350000Y-100270000D02*
X158690000Y-100270000D01*
X161350000Y-105410000D02*
X161350000Y-100270000D01*
X158690000Y-105410000D02*
X158690000Y-100270000D01*
X161350000Y-105410000D02*
X158690000Y-105410000D01*
X161350000Y-106680000D02*
X161350000Y-108010000D01*
X161350000Y-108010000D02*
X160020000Y-108010000D01*
G04 #@! TO.C,P10*
X156270000Y-113090000D02*
X156270000Y-110430000D01*
X151130000Y-113090000D02*
X156270000Y-113090000D01*
X151130000Y-110430000D02*
X156270000Y-110430000D01*
X151130000Y-113090000D02*
X151130000Y-110430000D01*
X149860000Y-113090000D02*
X148530000Y-113090000D01*
X148530000Y-113090000D02*
X148530000Y-111760000D01*
G04 #@! TO.C,P1*
D12*
X139977904Y-115006380D02*
X139977904Y-114006380D01*
X140358857Y-114006380D01*
X140454095Y-114054000D01*
X140501714Y-114101619D01*
X140549333Y-114196857D01*
X140549333Y-114339714D01*
X140501714Y-114434952D01*
X140454095Y-114482571D01*
X140358857Y-114530190D01*
X139977904Y-114530190D01*
X141501714Y-115006380D02*
X140930285Y-115006380D01*
X141216000Y-115006380D02*
X141216000Y-114006380D01*
X141120761Y-114149238D01*
X141025523Y-114244476D01*
X140930285Y-114292095D01*
G04 #@! TO.C,P2*
X139977904Y-109926380D02*
X139977904Y-108926380D01*
X140358857Y-108926380D01*
X140454095Y-108974000D01*
X140501714Y-109021619D01*
X140549333Y-109116857D01*
X140549333Y-109259714D01*
X140501714Y-109354952D01*
X140454095Y-109402571D01*
X140358857Y-109450190D01*
X139977904Y-109450190D01*
X140930285Y-109021619D02*
X140977904Y-108974000D01*
X141073142Y-108926380D01*
X141311238Y-108926380D01*
X141406476Y-108974000D01*
X141454095Y-109021619D01*
X141501714Y-109116857D01*
X141501714Y-109212095D01*
X141454095Y-109354952D01*
X140882666Y-109926380D01*
X141501714Y-109926380D01*
G04 #@! TO.C,P3*
X159281904Y-112466380D02*
X159281904Y-111466380D01*
X159662857Y-111466380D01*
X159758095Y-111514000D01*
X159805714Y-111561619D01*
X159853333Y-111656857D01*
X159853333Y-111799714D01*
X159805714Y-111894952D01*
X159758095Y-111942571D01*
X159662857Y-111990190D01*
X159281904Y-111990190D01*
X160186666Y-111466380D02*
X160805714Y-111466380D01*
X160472380Y-111847333D01*
X160615238Y-111847333D01*
X160710476Y-111894952D01*
X160758095Y-111942571D01*
X160805714Y-112037809D01*
X160805714Y-112275904D01*
X160758095Y-112371142D01*
X160710476Y-112418761D01*
X160615238Y-112466380D01*
X160329523Y-112466380D01*
X160234285Y-112418761D01*
X160186666Y-112371142D01*
G04 #@! TO.C,P4*
X140231904Y-99766380D02*
X140231904Y-98766380D01*
X140612857Y-98766380D01*
X140708095Y-98814000D01*
X140755714Y-98861619D01*
X140803333Y-98956857D01*
X140803333Y-99099714D01*
X140755714Y-99194952D01*
X140708095Y-99242571D01*
X140612857Y-99290190D01*
X140231904Y-99290190D01*
X141660476Y-99099714D02*
X141660476Y-99766380D01*
X141422380Y-98718761D02*
X141184285Y-99433047D01*
X141803333Y-99433047D01*
G04 #@! TO.C,P5*
X141247904Y-93416380D02*
X141247904Y-92416380D01*
X141628857Y-92416380D01*
X141724095Y-92464000D01*
X141771714Y-92511619D01*
X141819333Y-92606857D01*
X141819333Y-92749714D01*
X141771714Y-92844952D01*
X141724095Y-92892571D01*
X141628857Y-92940190D01*
X141247904Y-92940190D01*
X142724095Y-92416380D02*
X142247904Y-92416380D01*
X142200285Y-92892571D01*
X142247904Y-92844952D01*
X142343142Y-92797333D01*
X142581238Y-92797333D01*
X142676476Y-92844952D01*
X142724095Y-92892571D01*
X142771714Y-92987809D01*
X142771714Y-93225904D01*
X142724095Y-93321142D01*
X142676476Y-93368761D01*
X142581238Y-93416380D01*
X142343142Y-93416380D01*
X142247904Y-93368761D01*
X142200285Y-93321142D01*
G04 #@! TO.C,P6*
X150058380Y-93956095D02*
X149058380Y-93956095D01*
X149058380Y-93575142D01*
X149106000Y-93479904D01*
X149153619Y-93432285D01*
X149248857Y-93384666D01*
X149391714Y-93384666D01*
X149486952Y-93432285D01*
X149534571Y-93479904D01*
X149582190Y-93575142D01*
X149582190Y-93956095D01*
X149058380Y-92527523D02*
X149058380Y-92718000D01*
X149106000Y-92813238D01*
X149153619Y-92860857D01*
X149296476Y-92956095D01*
X149486952Y-93003714D01*
X149867904Y-93003714D01*
X149963142Y-92956095D01*
X150010761Y-92908476D01*
X150058380Y-92813238D01*
X150058380Y-92622761D01*
X150010761Y-92527523D01*
X149963142Y-92479904D01*
X149867904Y-92432285D01*
X149629809Y-92432285D01*
X149534571Y-92479904D01*
X149486952Y-92527523D01*
X149439333Y-92622761D01*
X149439333Y-92813238D01*
X149486952Y-92908476D01*
X149534571Y-92956095D01*
X149629809Y-93003714D01*
G04 #@! TO.C,P7*
X150820380Y-96242095D02*
X149820380Y-96242095D01*
X149820380Y-95861142D01*
X149868000Y-95765904D01*
X149915619Y-95718285D01*
X150010857Y-95670666D01*
X150153714Y-95670666D01*
X150248952Y-95718285D01*
X150296571Y-95765904D01*
X150344190Y-95861142D01*
X150344190Y-96242095D01*
X149820380Y-95337333D02*
X149820380Y-94670666D01*
X150820380Y-95099238D01*
G04 #@! TO.C,P8*
X156741904Y-93416380D02*
X156741904Y-92416380D01*
X157122857Y-92416380D01*
X157218095Y-92464000D01*
X157265714Y-92511619D01*
X157313333Y-92606857D01*
X157313333Y-92749714D01*
X157265714Y-92844952D01*
X157218095Y-92892571D01*
X157122857Y-92940190D01*
X156741904Y-92940190D01*
X157884761Y-92844952D02*
X157789523Y-92797333D01*
X157741904Y-92749714D01*
X157694285Y-92654476D01*
X157694285Y-92606857D01*
X157741904Y-92511619D01*
X157789523Y-92464000D01*
X157884761Y-92416380D01*
X158075238Y-92416380D01*
X158170476Y-92464000D01*
X158218095Y-92511619D01*
X158265714Y-92606857D01*
X158265714Y-92654476D01*
X158218095Y-92749714D01*
X158170476Y-92797333D01*
X158075238Y-92844952D01*
X157884761Y-92844952D01*
X157789523Y-92892571D01*
X157741904Y-92940190D01*
X157694285Y-93035428D01*
X157694285Y-93225904D01*
X157741904Y-93321142D01*
X157789523Y-93368761D01*
X157884761Y-93416380D01*
X158075238Y-93416380D01*
X158170476Y-93368761D01*
X158218095Y-93321142D01*
X158265714Y-93225904D01*
X158265714Y-93035428D01*
X158218095Y-92940190D01*
X158170476Y-92892571D01*
X158075238Y-92844952D01*
G04 #@! TO.C,P9*
X159281904Y-109418380D02*
X159281904Y-108418380D01*
X159662857Y-108418380D01*
X159758095Y-108466000D01*
X159805714Y-108513619D01*
X159853333Y-108608857D01*
X159853333Y-108751714D01*
X159805714Y-108846952D01*
X159758095Y-108894571D01*
X159662857Y-108942190D01*
X159281904Y-108942190D01*
X160329523Y-109418380D02*
X160520000Y-109418380D01*
X160615238Y-109370761D01*
X160662857Y-109323142D01*
X160758095Y-109180285D01*
X160805714Y-108989809D01*
X160805714Y-108608857D01*
X160758095Y-108513619D01*
X160710476Y-108466000D01*
X160615238Y-108418380D01*
X160424761Y-108418380D01*
X160329523Y-108466000D01*
X160281904Y-108513619D01*
X160234285Y-108608857D01*
X160234285Y-108846952D01*
X160281904Y-108942190D01*
X160329523Y-108989809D01*
X160424761Y-109037428D01*
X160615238Y-109037428D01*
X160710476Y-108989809D01*
X160758095Y-108942190D01*
X160805714Y-108846952D01*
G04 #@! TO.C,P10*
D13*
X147982380Y-112974285D02*
X146982380Y-112974285D01*
X146982380Y-112593333D01*
X147030000Y-112498095D01*
X147077619Y-112450476D01*
X147172857Y-112402857D01*
X147315714Y-112402857D01*
X147410952Y-112450476D01*
X147458571Y-112498095D01*
X147506190Y-112593333D01*
X147506190Y-112974285D01*
X147982380Y-111450476D02*
X147982380Y-112021904D01*
X147982380Y-111736190D02*
X146982380Y-111736190D01*
X147125238Y-111831428D01*
X147220476Y-111926666D01*
X147268095Y-112021904D01*
X146982380Y-110831428D02*
X146982380Y-110736190D01*
X147030000Y-110640952D01*
X147077619Y-110593333D01*
X147172857Y-110545714D01*
X147363333Y-110498095D01*
X147601428Y-110498095D01*
X147791904Y-110545714D01*
X147887142Y-110593333D01*
X147934761Y-110640952D01*
X147982380Y-110736190D01*
X147982380Y-110831428D01*
X147934761Y-110926666D01*
X147887142Y-110974285D01*
X147791904Y-111021904D01*
X147601428Y-111069523D01*
X147363333Y-111069523D01*
X147172857Y-111021904D01*
X147077619Y-110974285D01*
X147030000Y-110926666D01*
X146982380Y-110831428D01*
D12*
X148026380Y-112974285D02*
X147026380Y-112974285D01*
X147026380Y-112593333D01*
X147074000Y-112498095D01*
X147121619Y-112450476D01*
X147216857Y-112402857D01*
X147359714Y-112402857D01*
X147454952Y-112450476D01*
X147502571Y-112498095D01*
X147550190Y-112593333D01*
X147550190Y-112974285D01*
X148026380Y-111450476D02*
X148026380Y-112021904D01*
X148026380Y-111736190D02*
X147026380Y-111736190D01*
X147169238Y-111831428D01*
X147264476Y-111926666D01*
X147312095Y-112021904D01*
X147026380Y-110831428D02*
X147026380Y-110736190D01*
X147074000Y-110640952D01*
X147121619Y-110593333D01*
X147216857Y-110545714D01*
X147407333Y-110498095D01*
X147645428Y-110498095D01*
X147835904Y-110545714D01*
X147931142Y-110593333D01*
X147978761Y-110640952D01*
X148026380Y-110736190D01*
X148026380Y-110831428D01*
X147978761Y-110926666D01*
X147931142Y-110974285D01*
X147835904Y-111021904D01*
X147645428Y-111069523D01*
X147407333Y-111069523D01*
X147216857Y-111021904D01*
X147121619Y-110974285D01*
X147074000Y-110926666D01*
X147026380Y-110831428D01*
G04 #@! TD*
M02*
