G04 #@! TF.GenerationSoftware,KiCad,Pcbnew,(5.0.0)*
G04 #@! TF.CreationDate,2018-08-22T14:54:55+02:00*
G04 #@! TF.ProjectId,msp430_servo,6D73703433305F736572766F2E6B6963,rev?*
G04 #@! TF.SameCoordinates,Original*
G04 #@! TF.FileFunction,Soldermask,Bot*
G04 #@! TF.FilePolarity,Negative*
%FSLAX46Y46*%
G04 Gerber Fmt 4.6, Leading zero omitted, Abs format (unit mm)*
G04 Created by KiCad (PCBNEW (5.0.0)) date 08/22/18 14:54:55*
%MOMM*%
%LPD*%
G01*
G04 APERTURE LIST*
%ADD10R,2.000000X1.400000*%
%ADD11R,1.200000X1.150000*%
%ADD12R,1.150000X1.200000*%
%ADD13R,2.200000X2.900000*%
%ADD14R,1.850000X0.850000*%
%ADD15C,1.250000*%
%ADD16C,0.100000*%
%ADD17R,1.400000X1.900000*%
%ADD18R,1.400000X2.200000*%
%ADD19R,2.600000X2.240000*%
%ADD20C,1.400000*%
%ADD21R,2.100000X2.100000*%
%ADD22O,2.100000X2.100000*%
%ADD23R,1.300000X1.200000*%
%ADD24R,1.300000X0.900000*%
%ADD25R,0.900000X1.300000*%
%ADD26C,1.000000*%
G04 APERTURE END LIST*
D10*
G04 #@! TO.C,C1*
X146685000Y-118975000D03*
X146685000Y-115975000D03*
G04 #@! TD*
D11*
G04 #@! TO.C,C2*
X144260000Y-104140000D03*
X142760000Y-104140000D03*
G04 #@! TD*
G04 #@! TO.C,C3*
X155460000Y-104140000D03*
X156960000Y-104140000D03*
G04 #@! TD*
D12*
G04 #@! TO.C,C4*
X142240000Y-94730000D03*
X142240000Y-93230000D03*
G04 #@! TD*
G04 #@! TO.C,C5*
X157480000Y-94730000D03*
X157480000Y-93230000D03*
G04 #@! TD*
D10*
G04 #@! TO.C,C6*
X154940000Y-118975000D03*
X154940000Y-115975000D03*
G04 #@! TD*
D11*
G04 #@! TO.C,C7*
X148705000Y-107950000D03*
X147205000Y-107950000D03*
G04 #@! TD*
D12*
G04 #@! TO.C,C8*
X157480000Y-112915000D03*
X157480000Y-114415000D03*
G04 #@! TD*
D13*
G04 #@! TO.C,D1*
X143510000Y-119475000D03*
X143510000Y-115475000D03*
G04 #@! TD*
D14*
G04 #@! TO.C,IC1*
X146910000Y-105795000D03*
X146910000Y-105145000D03*
X146910000Y-104495000D03*
X146910000Y-103845000D03*
X146910000Y-103195000D03*
X146910000Y-102545000D03*
X146910000Y-101895000D03*
X146910000Y-101245000D03*
X146910000Y-100595000D03*
X146910000Y-99945000D03*
X152810000Y-99945000D03*
X152810000Y-100595000D03*
X152810000Y-101245000D03*
X152810000Y-101895000D03*
X152810000Y-102545000D03*
X152810000Y-103195000D03*
X152810000Y-103845000D03*
X152810000Y-104495000D03*
X152810000Y-105145000D03*
X152810000Y-105795000D03*
G04 #@! TD*
D15*
G04 #@! TO.C,IC2*
X150812500Y-115443000D03*
D16*
G36*
X151416132Y-114818000D02*
X152298484Y-116068000D01*
X149326516Y-116068000D01*
X150208868Y-114818000D01*
X151416132Y-114818000D01*
X151416132Y-114818000D01*
G37*
D17*
X152312500Y-119590000D03*
D18*
X150812500Y-119443500D03*
D17*
X149312500Y-119590000D03*
D19*
X150812500Y-116776500D03*
D20*
X150812500Y-118186200D03*
D16*
G36*
X150308369Y-118886200D02*
X149328369Y-117486200D01*
X152296631Y-117486200D01*
X151316631Y-118886200D01*
X150308369Y-118886200D01*
X150308369Y-118886200D01*
G37*
G04 #@! TD*
D21*
G04 #@! TO.C,P1*
X139700000Y-116840000D03*
D22*
X139700000Y-119380000D03*
G04 #@! TD*
D21*
G04 #@! TO.C,P2*
X139700000Y-111760000D03*
G04 #@! TD*
G04 #@! TO.C,P3*
X160020000Y-119380000D03*
D22*
X160020000Y-116840000D03*
X160020000Y-114300000D03*
G04 #@! TD*
D21*
G04 #@! TO.C,P4*
X139700000Y-106680000D03*
D22*
X139700000Y-104140000D03*
X139700000Y-101600000D03*
G04 #@! TD*
D21*
G04 #@! TO.C,P5*
X139700000Y-96520000D03*
D22*
X139700000Y-93980000D03*
G04 #@! TD*
D21*
G04 #@! TO.C,P6*
X144780000Y-93980000D03*
D22*
X147320000Y-93980000D03*
G04 #@! TD*
D21*
G04 #@! TO.C,P7*
X154940000Y-93980000D03*
D22*
X152400000Y-93980000D03*
G04 #@! TD*
D21*
G04 #@! TO.C,P8*
X160020000Y-96520000D03*
D22*
X160020000Y-93980000D03*
G04 #@! TD*
D21*
G04 #@! TO.C,P9*
X160020000Y-106680000D03*
D22*
X160020000Y-104140000D03*
X160020000Y-101600000D03*
G04 #@! TD*
D21*
G04 #@! TO.C,P10*
X149860000Y-111760000D03*
D22*
X152400000Y-111760000D03*
X154940000Y-111760000D03*
G04 #@! TD*
D23*
G04 #@! TO.C,Q1*
X144510000Y-96840000D03*
X144510000Y-98740000D03*
X142510000Y-97790000D03*
G04 #@! TD*
G04 #@! TO.C,Q2*
X155210000Y-98740000D03*
X155210000Y-96840000D03*
X157210000Y-97790000D03*
G04 #@! TD*
D24*
G04 #@! TO.C,R1*
X146050000Y-98032000D03*
X146050000Y-96532000D03*
G04 #@! TD*
D25*
G04 #@! TO.C,R2*
X142760000Y-100584000D03*
X144260000Y-100584000D03*
G04 #@! TD*
D24*
G04 #@! TO.C,R3*
X142875000Y-111010000D03*
X142875000Y-112510000D03*
G04 #@! TD*
G04 #@! TO.C,R4*
X144780000Y-112510000D03*
X144780000Y-111010000D03*
G04 #@! TD*
D25*
G04 #@! TO.C,R5*
X159270000Y-112014000D03*
X160770000Y-112014000D03*
G04 #@! TD*
G04 #@! TO.C,R6*
X144260000Y-102362000D03*
X142760000Y-102362000D03*
G04 #@! TD*
D24*
G04 #@! TO.C,R7*
X149098000Y-98032000D03*
X149098000Y-96532000D03*
G04 #@! TD*
G04 #@! TO.C,R8*
X147574000Y-98032000D03*
X147574000Y-96532000D03*
G04 #@! TD*
D25*
G04 #@! TO.C,R9*
X156960000Y-102362000D03*
X155460000Y-102362000D03*
G04 #@! TD*
D24*
G04 #@! TO.C,R10*
X150622000Y-96532000D03*
X150622000Y-98032000D03*
G04 #@! TD*
G04 #@! TO.C,R11*
X152146000Y-96532000D03*
X152146000Y-98032000D03*
G04 #@! TD*
D25*
G04 #@! TO.C,R12*
X151015000Y-107950000D03*
X152515000Y-107950000D03*
G04 #@! TD*
G04 #@! TO.C,R13*
X156960000Y-100584000D03*
X155460000Y-100584000D03*
G04 #@! TD*
G04 #@! TO.C,R14*
X156960000Y-106680000D03*
X155460000Y-106680000D03*
G04 #@! TD*
D24*
G04 #@! TO.C,R15*
X153670000Y-96532000D03*
X153670000Y-98032000D03*
G04 #@! TD*
D25*
G04 #@! TO.C,R16*
X155460000Y-108585000D03*
X156960000Y-108585000D03*
G04 #@! TD*
D12*
G04 #@! TO.C,C9*
X146685000Y-112510000D03*
X146685000Y-111010000D03*
G04 #@! TD*
D23*
G04 #@! TO.C,D2*
X143145000Y-108900000D03*
X143145000Y-107000000D03*
X145145000Y-107950000D03*
G04 #@! TD*
D24*
G04 #@! TO.C,R17*
X157480000Y-116090000D03*
X157480000Y-117590000D03*
G04 #@! TD*
G04 #@! TO.C,R18*
X157480000Y-118630000D03*
X157480000Y-120130000D03*
G04 #@! TD*
D26*
X148082000Y-120396000D03*
X147066000Y-120396000D03*
X155956000Y-120396000D03*
X154940000Y-120396000D03*
X142748000Y-105410000D03*
X159512000Y-99060000D03*
X156972000Y-99060000D03*
X156972000Y-96520000D03*
X142748000Y-96520000D03*
X142748000Y-99060000D03*
X145288000Y-100076000D03*
X145796000Y-99060000D03*
X152908000Y-117856000D03*
X152908000Y-116586000D03*
X148590000Y-117856000D03*
X148590000Y-116586000D03*
X154432000Y-114554000D03*
X153416000Y-114554000D03*
X152400000Y-114554000D03*
X149352000Y-114554000D03*
X148336000Y-114554000D03*
X147320000Y-114554000D03*
X146050000Y-114554000D03*
X157226000Y-111760000D03*
X148590000Y-106680000D03*
X149606000Y-105664000D03*
X151130000Y-106426000D03*
X154178000Y-103124000D03*
X151130000Y-102870000D03*
X151130000Y-104140000D03*
X155956000Y-110490000D03*
X150368000Y-103632000D03*
X157734000Y-106934000D03*
X157734000Y-107950000D03*
M02*
