G04 #@! TF.FileFunction,Soldermask,Top*
%FSLAX46Y46*%
G04 Gerber Fmt 4.6, Leading zero omitted, Abs format (unit mm)*
G04 Created by KiCad (PCBNEW (2015-09-22 BZR 6208)-product) date 14.8.2018 10:54:20*
%MOMM*%
G01*
G04 APERTURE LIST*
%ADD10C,0.100000*%
%ADD11R,1.600000X1.600000*%
%ADD12R,2.100000X2.100000*%
%ADD13O,2.100000X2.100000*%
%ADD14C,1.000000*%
G04 APERTURE END LIST*
D10*
D11*
X155448000Y-103716000D03*
X155448000Y-101516000D03*
X155448000Y-108034000D03*
X155448000Y-105834000D03*
D12*
X139700000Y-116840000D03*
D13*
X139700000Y-119380000D03*
D12*
X139700000Y-111760000D03*
X160020000Y-119380000D03*
D13*
X160020000Y-116840000D03*
X160020000Y-114300000D03*
D12*
X139700000Y-106680000D03*
D13*
X139700000Y-104140000D03*
X139700000Y-101600000D03*
D12*
X139700000Y-96520000D03*
D13*
X139700000Y-93980000D03*
D12*
X144780000Y-93980000D03*
D13*
X147320000Y-93980000D03*
D12*
X154940000Y-93980000D03*
D13*
X152400000Y-93980000D03*
D12*
X160020000Y-96520000D03*
D13*
X160020000Y-93980000D03*
D12*
X160020000Y-106680000D03*
D13*
X160020000Y-104140000D03*
X160020000Y-101600000D03*
D12*
X149860000Y-111760000D03*
D13*
X152400000Y-111760000D03*
X154940000Y-111760000D03*
D14*
X148082000Y-120396000D03*
X147066000Y-120396000D03*
X155956000Y-120396000D03*
X154940000Y-120396000D03*
X142748000Y-105410000D03*
X159512000Y-99060000D03*
X156972000Y-99060000D03*
X156972000Y-96520000D03*
X142748000Y-96520000D03*
X142748000Y-99060000D03*
X145288000Y-100076000D03*
X145796000Y-99060000D03*
X152908000Y-117856000D03*
X152908000Y-116586000D03*
X148590000Y-117856000D03*
X148590000Y-116586000D03*
X154432000Y-114554000D03*
X153416000Y-114554000D03*
X152400000Y-114554000D03*
X149352000Y-114554000D03*
X148336000Y-114554000D03*
X147320000Y-114554000D03*
X146050000Y-114554000D03*
X157226000Y-111760000D03*
X148590000Y-106680000D03*
X149606000Y-105664000D03*
X151130000Y-106426000D03*
X154178000Y-103124000D03*
X151130000Y-102870000D03*
X151130000Y-104140000D03*
X155956000Y-110490000D03*
X150368000Y-103632000D03*
X157734000Y-106934000D03*
X157734000Y-107950000D03*
M02*
