G04 #@! TF.FileFunction,Copper,L1,Top,Signal*
%FSLAX46Y46*%
G04 Gerber Fmt 4.6, Leading zero omitted, Abs format (unit mm)*
G04 Created by KiCad (PCBNEW (2015-09-22 BZR 6208)-product) date 14.8.2018 10:54:20*
%MOMM*%
G01*
G04 APERTURE LIST*
%ADD10C,0.100000*%
%ADD11C,0.250000*%
%ADD12R,1.200000X1.200000*%
%ADD13R,1.700000X1.700000*%
%ADD14O,1.700000X1.700000*%
%ADD15C,0.600000*%
%ADD16C,0.800000*%
%ADD17C,0.500000*%
%ADD18C,0.300000*%
G04 APERTURE END LIST*
D10*
D11*
X146454762Y-109148191D02*
X146502381Y-109005334D01*
X146502381Y-108767238D01*
X146454762Y-108672000D01*
X146407143Y-108624381D01*
X146311905Y-108576762D01*
X146216667Y-108576762D01*
X146121429Y-108624381D01*
X146073810Y-108672000D01*
X146026190Y-108767238D01*
X145978571Y-108957715D01*
X145930952Y-109052953D01*
X145883333Y-109100572D01*
X145788095Y-109148191D01*
X145692857Y-109148191D01*
X145597619Y-109100572D01*
X145550000Y-109052953D01*
X145502381Y-108957715D01*
X145502381Y-108719619D01*
X145550000Y-108576762D01*
X146502381Y-107576762D02*
X146026190Y-107910096D01*
X146502381Y-108148191D02*
X145502381Y-108148191D01*
X145502381Y-107767238D01*
X145550000Y-107672000D01*
X145597619Y-107624381D01*
X145692857Y-107576762D01*
X145835714Y-107576762D01*
X145930952Y-107624381D01*
X145978571Y-107672000D01*
X146026190Y-107767238D01*
X146026190Y-108148191D01*
X145502381Y-107291048D02*
X146502381Y-106957715D01*
X145502381Y-106624381D01*
X146597619Y-106529143D02*
X146597619Y-105767238D01*
X145502381Y-105672000D02*
X146502381Y-105338667D01*
X145502381Y-105005333D01*
X145502381Y-104481524D02*
X145502381Y-104386285D01*
X145550000Y-104291047D01*
X145597619Y-104243428D01*
X145692857Y-104195809D01*
X145883333Y-104148190D01*
X146121429Y-104148190D01*
X146311905Y-104195809D01*
X146407143Y-104243428D01*
X146454762Y-104291047D01*
X146502381Y-104386285D01*
X146502381Y-104481524D01*
X146454762Y-104576762D01*
X146407143Y-104624381D01*
X146311905Y-104672000D01*
X146121429Y-104719619D01*
X145883333Y-104719619D01*
X145692857Y-104672000D01*
X145597619Y-104624381D01*
X145550000Y-104576762D01*
X145502381Y-104481524D01*
X146502381Y-103195809D02*
X146502381Y-103767238D01*
X146502381Y-103481524D02*
X145502381Y-103481524D01*
X145645238Y-103576762D01*
X145740476Y-103672000D01*
X145788095Y-103767238D01*
X147590190Y-99528381D02*
X147780667Y-99528381D01*
X147875905Y-99576000D01*
X147971143Y-99671238D01*
X148018762Y-99861714D01*
X148018762Y-100195048D01*
X147971143Y-100385524D01*
X147875905Y-100480762D01*
X147780667Y-100528381D01*
X147590190Y-100528381D01*
X147494952Y-100480762D01*
X147399714Y-100385524D01*
X147352095Y-100195048D01*
X147352095Y-99861714D01*
X147399714Y-99671238D01*
X147494952Y-99576000D01*
X147590190Y-99528381D01*
X148447333Y-100528381D02*
X148447333Y-99528381D01*
X148447333Y-100004571D02*
X149018762Y-100004571D01*
X149018762Y-100528381D02*
X149018762Y-99528381D01*
X150018762Y-100528381D02*
X149447333Y-100528381D01*
X149733047Y-100528381D02*
X149733047Y-99528381D01*
X149637809Y-99671238D01*
X149542571Y-99766476D01*
X149447333Y-99814095D01*
X150590190Y-99956952D02*
X150494952Y-99909333D01*
X150447333Y-99861714D01*
X150399714Y-99766476D01*
X150399714Y-99718857D01*
X150447333Y-99623619D01*
X150494952Y-99576000D01*
X150590190Y-99528381D01*
X150780667Y-99528381D01*
X150875905Y-99576000D01*
X150923524Y-99623619D01*
X150971143Y-99718857D01*
X150971143Y-99766476D01*
X150923524Y-99861714D01*
X150875905Y-99909333D01*
X150780667Y-99956952D01*
X150590190Y-99956952D01*
X150494952Y-100004571D01*
X150447333Y-100052190D01*
X150399714Y-100147429D01*
X150399714Y-100337905D01*
X150447333Y-100433143D01*
X150494952Y-100480762D01*
X150590190Y-100528381D01*
X150780667Y-100528381D01*
X150875905Y-100480762D01*
X150923524Y-100433143D01*
X150971143Y-100337905D01*
X150971143Y-100147429D01*
X150923524Y-100052190D01*
X150875905Y-100004571D01*
X150780667Y-99956952D01*
X151590190Y-99528381D02*
X151685429Y-99528381D01*
X151780667Y-99576000D01*
X151828286Y-99623619D01*
X151875905Y-99718857D01*
X151923524Y-99909333D01*
X151923524Y-100147429D01*
X151875905Y-100337905D01*
X151828286Y-100433143D01*
X151780667Y-100480762D01*
X151685429Y-100528381D01*
X151590190Y-100528381D01*
X151494952Y-100480762D01*
X151447333Y-100433143D01*
X151399714Y-100337905D01*
X151352095Y-100147429D01*
X151352095Y-99909333D01*
X151399714Y-99718857D01*
X151447333Y-99623619D01*
X151494952Y-99576000D01*
X151590190Y-99528381D01*
X152494952Y-99956952D02*
X152399714Y-99909333D01*
X152352095Y-99861714D01*
X152304476Y-99766476D01*
X152304476Y-99718857D01*
X152352095Y-99623619D01*
X152399714Y-99576000D01*
X152494952Y-99528381D01*
X152685429Y-99528381D01*
X152780667Y-99576000D01*
X152828286Y-99623619D01*
X152875905Y-99718857D01*
X152875905Y-99766476D01*
X152828286Y-99861714D01*
X152780667Y-99909333D01*
X152685429Y-99956952D01*
X152494952Y-99956952D01*
X152399714Y-100004571D01*
X152352095Y-100052190D01*
X152304476Y-100147429D01*
X152304476Y-100337905D01*
X152352095Y-100433143D01*
X152399714Y-100480762D01*
X152494952Y-100528381D01*
X152685429Y-100528381D01*
X152780667Y-100480762D01*
X152828286Y-100433143D01*
X152875905Y-100337905D01*
X152875905Y-100147429D01*
X152828286Y-100052190D01*
X152780667Y-100004571D01*
X152685429Y-99956952D01*
D12*
X155448000Y-103716000D03*
X155448000Y-101516000D03*
X155448000Y-108034000D03*
X155448000Y-105834000D03*
D13*
X139700000Y-116840000D03*
D14*
X139700000Y-119380000D03*
D13*
X139700000Y-111760000D03*
X160020000Y-119380000D03*
D14*
X160020000Y-116840000D03*
X160020000Y-114300000D03*
D13*
X139700000Y-106680000D03*
D14*
X139700000Y-104140000D03*
X139700000Y-101600000D03*
D13*
X139700000Y-96520000D03*
D14*
X139700000Y-93980000D03*
D13*
X144780000Y-93980000D03*
D14*
X147320000Y-93980000D03*
D13*
X154940000Y-93980000D03*
D14*
X152400000Y-93980000D03*
D13*
X160020000Y-96520000D03*
D14*
X160020000Y-93980000D03*
D13*
X160020000Y-106680000D03*
D14*
X160020000Y-104140000D03*
X160020000Y-101600000D03*
D13*
X149860000Y-111760000D03*
D14*
X152400000Y-111760000D03*
X154940000Y-111760000D03*
D15*
X148082000Y-120396000D03*
X147066000Y-120396000D03*
X155956000Y-120396000D03*
X154940000Y-120396000D03*
X142748000Y-105410000D03*
X159512000Y-99060000D03*
X156972000Y-99060000D03*
X156972000Y-96520000D03*
X142748000Y-96520000D03*
X142748000Y-99060000D03*
X145288000Y-100076000D03*
X145796000Y-99060000D03*
X152908000Y-117856000D03*
X152908000Y-116586000D03*
X148590000Y-117856000D03*
X148590000Y-116586000D03*
X154432000Y-114554000D03*
X153416000Y-114554000D03*
X152400000Y-114554000D03*
X149352000Y-114554000D03*
X148336000Y-114554000D03*
X147320000Y-114554000D03*
X146050000Y-114554000D03*
X157226000Y-111760000D03*
X148590000Y-106680000D03*
X149606000Y-105664000D03*
X151130000Y-106426000D03*
X154178000Y-103124000D03*
X151130000Y-102870000D03*
X151130000Y-104140000D03*
X155956000Y-110490000D03*
X150368000Y-103632000D03*
X157734000Y-106934000D03*
X157734000Y-107950000D03*
D16*
X143891000Y-95885000D02*
X155829000Y-95885000D01*
X155829000Y-95885000D02*
X156464000Y-95250000D01*
X156464000Y-95250000D02*
X158115000Y-95250000D01*
X158115000Y-95250000D02*
X159385000Y-93980000D01*
X159385000Y-93980000D02*
X160020000Y-93980000D01*
X143891000Y-95885000D02*
X143002000Y-94996000D01*
X143002000Y-94996000D02*
X141351000Y-94996000D01*
X141351000Y-94996000D02*
X140335000Y-93980000D01*
X140335000Y-93980000D02*
X139700000Y-93980000D01*
D17*
X154940000Y-120396000D02*
X148082000Y-120396000D01*
X147066000Y-120396000D02*
X148082000Y-120396000D01*
X155956000Y-120396000D02*
X154940000Y-120396000D01*
D16*
X141605000Y-104140000D02*
X141605000Y-118110000D01*
X141605000Y-118110000D02*
X140335000Y-119380000D01*
X140335000Y-119380000D02*
X139700000Y-119380000D01*
X139700000Y-104140000D02*
X141605000Y-104140000D01*
X141605000Y-95250000D02*
X140335000Y-93980000D01*
X141605000Y-104140000D02*
X141605000Y-97155000D01*
X141605000Y-97155000D02*
X141605000Y-95885000D01*
X141605000Y-95885000D02*
X141605000Y-95250000D01*
X140335000Y-93980000D02*
X139700000Y-93980000D01*
X160020000Y-104140000D02*
X159385000Y-104140000D01*
X159385000Y-104140000D02*
X158115000Y-102870000D01*
X158115000Y-102870000D02*
X158115000Y-97155000D01*
X158115000Y-97155000D02*
X158115000Y-95885000D01*
X158115000Y-95885000D02*
X158115000Y-95250000D01*
X159385000Y-93980000D02*
X158115000Y-95250000D01*
X160020000Y-93980000D02*
X159385000Y-93980000D01*
D11*
X156972000Y-99060000D02*
X156718000Y-99060000D01*
X145796000Y-99060000D02*
X142748000Y-99060000D01*
X145288000Y-100076000D02*
X145796000Y-99568000D01*
X145796000Y-99568000D02*
X145796000Y-99060000D01*
X152908000Y-117856000D02*
X152908000Y-116586000D01*
X148590000Y-117856000D02*
X148590000Y-116586000D01*
X154432000Y-114554000D02*
X153416000Y-114554000D01*
X152400000Y-114554000D02*
X149352000Y-114554000D01*
X148336000Y-114554000D02*
X147320000Y-114554000D01*
X148590000Y-106680000D02*
X149606000Y-105664000D01*
X154940000Y-111760000D02*
X153035000Y-109855000D01*
X153035000Y-109855000D02*
X153035000Y-104775000D01*
X153035000Y-104775000D02*
X151130000Y-102870000D01*
X152400000Y-111760000D02*
X152400000Y-105410000D01*
X152400000Y-105410000D02*
X151130000Y-104140000D01*
X155956000Y-110490000D02*
X154940000Y-110490000D01*
X154940000Y-110490000D02*
X154686000Y-110490000D01*
X154686000Y-110490000D02*
X153670000Y-109474000D01*
X153670000Y-109474000D02*
X153670000Y-104394000D01*
X153670000Y-104394000D02*
X151384000Y-102108000D01*
X151384000Y-102108000D02*
X150876000Y-102108000D01*
X150876000Y-102108000D02*
X150368000Y-102616000D01*
X150368000Y-102616000D02*
X150368000Y-103632000D01*
X157734000Y-106934000D02*
X156972000Y-106172000D01*
X156972000Y-106172000D02*
X156972000Y-105156000D01*
X156972000Y-105156000D02*
X155532000Y-103716000D01*
X155532000Y-103716000D02*
X155448000Y-103716000D01*
X157734000Y-107950000D02*
X157650000Y-108034000D01*
X157650000Y-108034000D02*
X155448000Y-108034000D01*
D18*
G36*
X162035000Y-121395000D02*
X137685000Y-121395000D01*
X137685000Y-93980000D01*
X138374531Y-93980000D01*
X138473488Y-94477488D01*
X138755292Y-94899239D01*
X139177043Y-95181043D01*
X139328571Y-95211184D01*
X138850000Y-95211184D01*
X138683240Y-95242562D01*
X138530081Y-95341117D01*
X138427332Y-95491495D01*
X138391184Y-95670000D01*
X138391184Y-97370000D01*
X138422562Y-97536760D01*
X138521117Y-97689919D01*
X138671495Y-97792668D01*
X138850000Y-97828816D01*
X140550000Y-97828816D01*
X140716760Y-97797438D01*
X140755000Y-97772831D01*
X140755000Y-100845825D01*
X140644708Y-100680761D01*
X140222957Y-100398957D01*
X139725469Y-100300000D01*
X139674531Y-100300000D01*
X139177043Y-100398957D01*
X138755292Y-100680761D01*
X138473488Y-101102512D01*
X138374531Y-101600000D01*
X138473488Y-102097488D01*
X138755292Y-102519239D01*
X139177043Y-102801043D01*
X139523712Y-102870000D01*
X139177043Y-102938957D01*
X138755292Y-103220761D01*
X138473488Y-103642512D01*
X138374531Y-104140000D01*
X138473488Y-104637488D01*
X138755292Y-105059239D01*
X139177043Y-105341043D01*
X139674531Y-105440000D01*
X139725469Y-105440000D01*
X140222957Y-105341043D01*
X140644708Y-105059239D01*
X140690972Y-104990000D01*
X140755000Y-104990000D01*
X140755000Y-110505435D01*
X140728505Y-110487332D01*
X140550000Y-110451184D01*
X138850000Y-110451184D01*
X138683240Y-110482562D01*
X138530081Y-110581117D01*
X138427332Y-110731495D01*
X138391184Y-110910000D01*
X138391184Y-112610000D01*
X138422562Y-112776760D01*
X138521117Y-112929919D01*
X138671495Y-113032668D01*
X138850000Y-113068816D01*
X140550000Y-113068816D01*
X140716760Y-113037438D01*
X140755000Y-113012831D01*
X140755000Y-117757918D01*
X140289499Y-118223419D01*
X140222957Y-118178957D01*
X139725469Y-118080000D01*
X139674531Y-118080000D01*
X139177043Y-118178957D01*
X138755292Y-118460761D01*
X138473488Y-118882512D01*
X138374531Y-119380000D01*
X138473488Y-119877488D01*
X138755292Y-120299239D01*
X139177043Y-120581043D01*
X139674531Y-120680000D01*
X139725469Y-120680000D01*
X140222957Y-120581043D01*
X140277602Y-120544530D01*
X146315870Y-120544530D01*
X146429811Y-120820286D01*
X146640605Y-121031448D01*
X146916161Y-121145869D01*
X147214530Y-121146130D01*
X147335853Y-121096000D01*
X147812063Y-121096000D01*
X147932161Y-121145869D01*
X148230530Y-121146130D01*
X148351853Y-121096000D01*
X154670063Y-121096000D01*
X154790161Y-121145869D01*
X155088530Y-121146130D01*
X155209853Y-121096000D01*
X155686063Y-121096000D01*
X155806161Y-121145869D01*
X156104530Y-121146130D01*
X156380286Y-121032189D01*
X156591448Y-120821395D01*
X156705869Y-120545839D01*
X156706130Y-120247470D01*
X156592189Y-119971714D01*
X156381395Y-119760552D01*
X156105839Y-119646131D01*
X155807470Y-119645870D01*
X155686147Y-119696000D01*
X155209937Y-119696000D01*
X155089839Y-119646131D01*
X154791470Y-119645870D01*
X154670147Y-119696000D01*
X148351937Y-119696000D01*
X148231839Y-119646131D01*
X147933470Y-119645870D01*
X147812147Y-119696000D01*
X147335937Y-119696000D01*
X147215839Y-119646131D01*
X146917470Y-119645870D01*
X146641714Y-119759811D01*
X146430552Y-119970605D01*
X146316131Y-120246161D01*
X146315870Y-120544530D01*
X140277602Y-120544530D01*
X140644708Y-120299239D01*
X140793828Y-120076065D01*
X140936041Y-119981041D01*
X142206041Y-118711041D01*
X142390298Y-118435281D01*
X142455000Y-118110000D01*
X142455000Y-114300000D01*
X158694531Y-114300000D01*
X158793488Y-114797488D01*
X159075292Y-115219239D01*
X159497043Y-115501043D01*
X159843712Y-115570000D01*
X159497043Y-115638957D01*
X159075292Y-115920761D01*
X158793488Y-116342512D01*
X158694531Y-116840000D01*
X158793488Y-117337488D01*
X159075292Y-117759239D01*
X159497043Y-118041043D01*
X159994531Y-118140000D01*
X160045469Y-118140000D01*
X160542957Y-118041043D01*
X160964708Y-117759239D01*
X161246512Y-117337488D01*
X161345469Y-116840000D01*
X161246512Y-116342512D01*
X160964708Y-115920761D01*
X160542957Y-115638957D01*
X160196288Y-115570000D01*
X160542957Y-115501043D01*
X160964708Y-115219239D01*
X161246512Y-114797488D01*
X161345469Y-114300000D01*
X161246512Y-113802512D01*
X160964708Y-113380761D01*
X160542957Y-113098957D01*
X160045469Y-113000000D01*
X159994531Y-113000000D01*
X159497043Y-113098957D01*
X159075292Y-113380761D01*
X158793488Y-113802512D01*
X158694531Y-114300000D01*
X142455000Y-114300000D01*
X142455000Y-102430333D01*
X144525000Y-102430333D01*
X144525000Y-109913667D01*
X147325000Y-109913667D01*
X147325000Y-103780530D01*
X149617870Y-103780530D01*
X149731811Y-104056286D01*
X149942605Y-104267448D01*
X150218161Y-104381869D01*
X150418510Y-104382044D01*
X150493811Y-104564286D01*
X150704605Y-104775448D01*
X150980161Y-104889869D01*
X151066772Y-104889945D01*
X151825000Y-105648173D01*
X151825000Y-110585280D01*
X151480761Y-110815292D01*
X151198957Y-111237043D01*
X151100000Y-111734531D01*
X151100000Y-111785469D01*
X151198957Y-112282957D01*
X151480761Y-112704708D01*
X151902512Y-112986512D01*
X152400000Y-113085469D01*
X152897488Y-112986512D01*
X153319239Y-112704708D01*
X153601043Y-112282957D01*
X153670000Y-111936288D01*
X153738957Y-112282957D01*
X154020761Y-112704708D01*
X154442512Y-112986512D01*
X154940000Y-113085469D01*
X155437488Y-112986512D01*
X155859239Y-112704708D01*
X156141043Y-112282957D01*
X156240000Y-111785469D01*
X156240000Y-111734531D01*
X156141043Y-111237043D01*
X156134760Y-111227639D01*
X156380286Y-111126189D01*
X156591448Y-110915395D01*
X156705869Y-110639839D01*
X156706130Y-110341470D01*
X156592189Y-110065714D01*
X156381395Y-109854552D01*
X156105839Y-109740131D01*
X155807470Y-109739870D01*
X155531714Y-109853811D01*
X155470418Y-109915000D01*
X154924172Y-109915000D01*
X154245000Y-109235828D01*
X154245000Y-104394000D01*
X154201231Y-104173957D01*
X154194064Y-104163231D01*
X154076586Y-103987413D01*
X153205173Y-103116000D01*
X154389184Y-103116000D01*
X154389184Y-104316000D01*
X154420562Y-104482760D01*
X154519117Y-104635919D01*
X154669495Y-104738668D01*
X154848000Y-104774816D01*
X155777644Y-104774816D01*
X156397000Y-105394173D01*
X156397000Y-106172000D01*
X156422173Y-106298552D01*
X156440769Y-106392043D01*
X156565414Y-106578586D01*
X156983945Y-106997117D01*
X156983870Y-107082530D01*
X157097811Y-107358286D01*
X157181340Y-107441961D01*
X157164272Y-107459000D01*
X156506816Y-107459000D01*
X156506816Y-107434000D01*
X156475438Y-107267240D01*
X156376883Y-107114081D01*
X156226505Y-107011332D01*
X156048000Y-106975184D01*
X154848000Y-106975184D01*
X154681240Y-107006562D01*
X154528081Y-107105117D01*
X154425332Y-107255495D01*
X154389184Y-107434000D01*
X154389184Y-108634000D01*
X154420562Y-108800760D01*
X154519117Y-108953919D01*
X154669495Y-109056668D01*
X154848000Y-109092816D01*
X156048000Y-109092816D01*
X156214760Y-109061438D01*
X156367919Y-108962883D01*
X156470668Y-108812505D01*
X156506816Y-108634000D01*
X156506816Y-108609000D01*
X157365324Y-108609000D01*
X157584161Y-108699869D01*
X157882530Y-108700130D01*
X158158286Y-108586189D01*
X158369448Y-108375395D01*
X158483869Y-108099839D01*
X158484130Y-107801470D01*
X158370189Y-107525714D01*
X158286660Y-107442039D01*
X158369448Y-107359395D01*
X158483869Y-107083839D01*
X158484130Y-106785470D01*
X158370189Y-106509714D01*
X158159395Y-106298552D01*
X157883839Y-106184131D01*
X157797228Y-106184055D01*
X157547000Y-105933828D01*
X157547000Y-105156000D01*
X157503231Y-104935957D01*
X157465019Y-104878769D01*
X157378587Y-104749414D01*
X156506816Y-103877644D01*
X156506816Y-103116000D01*
X156475438Y-102949240D01*
X156376883Y-102796081D01*
X156226505Y-102693332D01*
X156048000Y-102657184D01*
X154848000Y-102657184D01*
X154681240Y-102688562D01*
X154528081Y-102787117D01*
X154425332Y-102937495D01*
X154389184Y-103116000D01*
X153205173Y-103116000D01*
X151790586Y-101701414D01*
X151604043Y-101576769D01*
X151384000Y-101533000D01*
X150876000Y-101533000D01*
X150655957Y-101576769D01*
X150469413Y-101701414D01*
X149961414Y-102209414D01*
X149836769Y-102395957D01*
X149793000Y-102616000D01*
X149793000Y-103146262D01*
X149732552Y-103206605D01*
X149618131Y-103482161D01*
X149617870Y-103780530D01*
X147325000Y-103780530D01*
X147325000Y-102430333D01*
X144525000Y-102430333D01*
X142455000Y-102430333D01*
X142455000Y-98551000D01*
X146586619Y-98551000D01*
X146586619Y-101351000D01*
X153641381Y-101351000D01*
X153641381Y-98551000D01*
X146586619Y-98551000D01*
X142455000Y-98551000D01*
X142455000Y-95846000D01*
X142649918Y-95846000D01*
X143289959Y-96486041D01*
X143565719Y-96670298D01*
X143891000Y-96735000D01*
X155829000Y-96735000D01*
X156154281Y-96670298D01*
X156430041Y-96486041D01*
X156816081Y-96100000D01*
X157265000Y-96100000D01*
X157265000Y-102870000D01*
X157329702Y-103195281D01*
X157513959Y-103471041D01*
X158783959Y-104741041D01*
X158926172Y-104836065D01*
X159075292Y-105059239D01*
X159497043Y-105341043D01*
X159994531Y-105440000D01*
X160045469Y-105440000D01*
X160542957Y-105341043D01*
X160964708Y-105059239D01*
X161246512Y-104637488D01*
X161345469Y-104140000D01*
X161246512Y-103642512D01*
X160964708Y-103220761D01*
X160542957Y-102938957D01*
X160196288Y-102870000D01*
X160542957Y-102801043D01*
X160964708Y-102519239D01*
X161246512Y-102097488D01*
X161345469Y-101600000D01*
X161246512Y-101102512D01*
X160964708Y-100680761D01*
X160542957Y-100398957D01*
X160045469Y-100300000D01*
X159994531Y-100300000D01*
X159497043Y-100398957D01*
X159075292Y-100680761D01*
X158965000Y-100845825D01*
X158965000Y-97774565D01*
X158991495Y-97792668D01*
X159170000Y-97828816D01*
X160870000Y-97828816D01*
X161036760Y-97797438D01*
X161189919Y-97698883D01*
X161292668Y-97548505D01*
X161328816Y-97370000D01*
X161328816Y-95670000D01*
X161297438Y-95503240D01*
X161198883Y-95350081D01*
X161048505Y-95247332D01*
X160870000Y-95211184D01*
X160391429Y-95211184D01*
X160542957Y-95181043D01*
X160964708Y-94899239D01*
X161246512Y-94477488D01*
X161345469Y-93980000D01*
X161246512Y-93482512D01*
X160964708Y-93060761D01*
X160542957Y-92778957D01*
X160045469Y-92680000D01*
X159994531Y-92680000D01*
X159497043Y-92778957D01*
X159075292Y-93060761D01*
X158926172Y-93283935D01*
X158783959Y-93378959D01*
X157762918Y-94400000D01*
X156464005Y-94400000D01*
X156464000Y-94399999D01*
X156248816Y-94442802D01*
X156248816Y-93130000D01*
X156217438Y-92963240D01*
X156118883Y-92810081D01*
X155968505Y-92707332D01*
X155790000Y-92671184D01*
X154090000Y-92671184D01*
X153923240Y-92702562D01*
X153770081Y-92801117D01*
X153667332Y-92951495D01*
X153631184Y-93130000D01*
X153631184Y-93608571D01*
X153601043Y-93457043D01*
X153319239Y-93035292D01*
X152897488Y-92753488D01*
X152400000Y-92654531D01*
X151902512Y-92753488D01*
X151480761Y-93035292D01*
X151198957Y-93457043D01*
X151100000Y-93954531D01*
X151100000Y-94005469D01*
X151198957Y-94502957D01*
X151480761Y-94924708D01*
X151645825Y-95035000D01*
X148074175Y-95035000D01*
X148239239Y-94924708D01*
X148521043Y-94502957D01*
X148620000Y-94005469D01*
X148620000Y-93954531D01*
X148521043Y-93457043D01*
X148239239Y-93035292D01*
X147817488Y-92753488D01*
X147320000Y-92654531D01*
X146822512Y-92753488D01*
X146400761Y-93035292D01*
X146118957Y-93457043D01*
X146088816Y-93608571D01*
X146088816Y-93130000D01*
X146057438Y-92963240D01*
X145958883Y-92810081D01*
X145808505Y-92707332D01*
X145630000Y-92671184D01*
X143930000Y-92671184D01*
X143763240Y-92702562D01*
X143610081Y-92801117D01*
X143507332Y-92951495D01*
X143471184Y-93130000D01*
X143471184Y-94306855D01*
X143327281Y-94210702D01*
X143002000Y-94146000D01*
X141703082Y-94146000D01*
X140936041Y-93378959D01*
X140793828Y-93283935D01*
X140644708Y-93060761D01*
X140222957Y-92778957D01*
X139725469Y-92680000D01*
X139674531Y-92680000D01*
X139177043Y-92778957D01*
X138755292Y-93060761D01*
X138473488Y-93482512D01*
X138374531Y-93980000D01*
X137685000Y-93980000D01*
X137685000Y-91965000D01*
X162035000Y-91965000D01*
X162035000Y-121395000D01*
X162035000Y-121395000D01*
G37*
X162035000Y-121395000D02*
X137685000Y-121395000D01*
X137685000Y-93980000D01*
X138374531Y-93980000D01*
X138473488Y-94477488D01*
X138755292Y-94899239D01*
X139177043Y-95181043D01*
X139328571Y-95211184D01*
X138850000Y-95211184D01*
X138683240Y-95242562D01*
X138530081Y-95341117D01*
X138427332Y-95491495D01*
X138391184Y-95670000D01*
X138391184Y-97370000D01*
X138422562Y-97536760D01*
X138521117Y-97689919D01*
X138671495Y-97792668D01*
X138850000Y-97828816D01*
X140550000Y-97828816D01*
X140716760Y-97797438D01*
X140755000Y-97772831D01*
X140755000Y-100845825D01*
X140644708Y-100680761D01*
X140222957Y-100398957D01*
X139725469Y-100300000D01*
X139674531Y-100300000D01*
X139177043Y-100398957D01*
X138755292Y-100680761D01*
X138473488Y-101102512D01*
X138374531Y-101600000D01*
X138473488Y-102097488D01*
X138755292Y-102519239D01*
X139177043Y-102801043D01*
X139523712Y-102870000D01*
X139177043Y-102938957D01*
X138755292Y-103220761D01*
X138473488Y-103642512D01*
X138374531Y-104140000D01*
X138473488Y-104637488D01*
X138755292Y-105059239D01*
X139177043Y-105341043D01*
X139674531Y-105440000D01*
X139725469Y-105440000D01*
X140222957Y-105341043D01*
X140644708Y-105059239D01*
X140690972Y-104990000D01*
X140755000Y-104990000D01*
X140755000Y-110505435D01*
X140728505Y-110487332D01*
X140550000Y-110451184D01*
X138850000Y-110451184D01*
X138683240Y-110482562D01*
X138530081Y-110581117D01*
X138427332Y-110731495D01*
X138391184Y-110910000D01*
X138391184Y-112610000D01*
X138422562Y-112776760D01*
X138521117Y-112929919D01*
X138671495Y-113032668D01*
X138850000Y-113068816D01*
X140550000Y-113068816D01*
X140716760Y-113037438D01*
X140755000Y-113012831D01*
X140755000Y-117757918D01*
X140289499Y-118223419D01*
X140222957Y-118178957D01*
X139725469Y-118080000D01*
X139674531Y-118080000D01*
X139177043Y-118178957D01*
X138755292Y-118460761D01*
X138473488Y-118882512D01*
X138374531Y-119380000D01*
X138473488Y-119877488D01*
X138755292Y-120299239D01*
X139177043Y-120581043D01*
X139674531Y-120680000D01*
X139725469Y-120680000D01*
X140222957Y-120581043D01*
X140277602Y-120544530D01*
X146315870Y-120544530D01*
X146429811Y-120820286D01*
X146640605Y-121031448D01*
X146916161Y-121145869D01*
X147214530Y-121146130D01*
X147335853Y-121096000D01*
X147812063Y-121096000D01*
X147932161Y-121145869D01*
X148230530Y-121146130D01*
X148351853Y-121096000D01*
X154670063Y-121096000D01*
X154790161Y-121145869D01*
X155088530Y-121146130D01*
X155209853Y-121096000D01*
X155686063Y-121096000D01*
X155806161Y-121145869D01*
X156104530Y-121146130D01*
X156380286Y-121032189D01*
X156591448Y-120821395D01*
X156705869Y-120545839D01*
X156706130Y-120247470D01*
X156592189Y-119971714D01*
X156381395Y-119760552D01*
X156105839Y-119646131D01*
X155807470Y-119645870D01*
X155686147Y-119696000D01*
X155209937Y-119696000D01*
X155089839Y-119646131D01*
X154791470Y-119645870D01*
X154670147Y-119696000D01*
X148351937Y-119696000D01*
X148231839Y-119646131D01*
X147933470Y-119645870D01*
X147812147Y-119696000D01*
X147335937Y-119696000D01*
X147215839Y-119646131D01*
X146917470Y-119645870D01*
X146641714Y-119759811D01*
X146430552Y-119970605D01*
X146316131Y-120246161D01*
X146315870Y-120544530D01*
X140277602Y-120544530D01*
X140644708Y-120299239D01*
X140793828Y-120076065D01*
X140936041Y-119981041D01*
X142206041Y-118711041D01*
X142390298Y-118435281D01*
X142455000Y-118110000D01*
X142455000Y-114300000D01*
X158694531Y-114300000D01*
X158793488Y-114797488D01*
X159075292Y-115219239D01*
X159497043Y-115501043D01*
X159843712Y-115570000D01*
X159497043Y-115638957D01*
X159075292Y-115920761D01*
X158793488Y-116342512D01*
X158694531Y-116840000D01*
X158793488Y-117337488D01*
X159075292Y-117759239D01*
X159497043Y-118041043D01*
X159994531Y-118140000D01*
X160045469Y-118140000D01*
X160542957Y-118041043D01*
X160964708Y-117759239D01*
X161246512Y-117337488D01*
X161345469Y-116840000D01*
X161246512Y-116342512D01*
X160964708Y-115920761D01*
X160542957Y-115638957D01*
X160196288Y-115570000D01*
X160542957Y-115501043D01*
X160964708Y-115219239D01*
X161246512Y-114797488D01*
X161345469Y-114300000D01*
X161246512Y-113802512D01*
X160964708Y-113380761D01*
X160542957Y-113098957D01*
X160045469Y-113000000D01*
X159994531Y-113000000D01*
X159497043Y-113098957D01*
X159075292Y-113380761D01*
X158793488Y-113802512D01*
X158694531Y-114300000D01*
X142455000Y-114300000D01*
X142455000Y-102430333D01*
X144525000Y-102430333D01*
X144525000Y-109913667D01*
X147325000Y-109913667D01*
X147325000Y-103780530D01*
X149617870Y-103780530D01*
X149731811Y-104056286D01*
X149942605Y-104267448D01*
X150218161Y-104381869D01*
X150418510Y-104382044D01*
X150493811Y-104564286D01*
X150704605Y-104775448D01*
X150980161Y-104889869D01*
X151066772Y-104889945D01*
X151825000Y-105648173D01*
X151825000Y-110585280D01*
X151480761Y-110815292D01*
X151198957Y-111237043D01*
X151100000Y-111734531D01*
X151100000Y-111785469D01*
X151198957Y-112282957D01*
X151480761Y-112704708D01*
X151902512Y-112986512D01*
X152400000Y-113085469D01*
X152897488Y-112986512D01*
X153319239Y-112704708D01*
X153601043Y-112282957D01*
X153670000Y-111936288D01*
X153738957Y-112282957D01*
X154020761Y-112704708D01*
X154442512Y-112986512D01*
X154940000Y-113085469D01*
X155437488Y-112986512D01*
X155859239Y-112704708D01*
X156141043Y-112282957D01*
X156240000Y-111785469D01*
X156240000Y-111734531D01*
X156141043Y-111237043D01*
X156134760Y-111227639D01*
X156380286Y-111126189D01*
X156591448Y-110915395D01*
X156705869Y-110639839D01*
X156706130Y-110341470D01*
X156592189Y-110065714D01*
X156381395Y-109854552D01*
X156105839Y-109740131D01*
X155807470Y-109739870D01*
X155531714Y-109853811D01*
X155470418Y-109915000D01*
X154924172Y-109915000D01*
X154245000Y-109235828D01*
X154245000Y-104394000D01*
X154201231Y-104173957D01*
X154194064Y-104163231D01*
X154076586Y-103987413D01*
X153205173Y-103116000D01*
X154389184Y-103116000D01*
X154389184Y-104316000D01*
X154420562Y-104482760D01*
X154519117Y-104635919D01*
X154669495Y-104738668D01*
X154848000Y-104774816D01*
X155777644Y-104774816D01*
X156397000Y-105394173D01*
X156397000Y-106172000D01*
X156422173Y-106298552D01*
X156440769Y-106392043D01*
X156565414Y-106578586D01*
X156983945Y-106997117D01*
X156983870Y-107082530D01*
X157097811Y-107358286D01*
X157181340Y-107441961D01*
X157164272Y-107459000D01*
X156506816Y-107459000D01*
X156506816Y-107434000D01*
X156475438Y-107267240D01*
X156376883Y-107114081D01*
X156226505Y-107011332D01*
X156048000Y-106975184D01*
X154848000Y-106975184D01*
X154681240Y-107006562D01*
X154528081Y-107105117D01*
X154425332Y-107255495D01*
X154389184Y-107434000D01*
X154389184Y-108634000D01*
X154420562Y-108800760D01*
X154519117Y-108953919D01*
X154669495Y-109056668D01*
X154848000Y-109092816D01*
X156048000Y-109092816D01*
X156214760Y-109061438D01*
X156367919Y-108962883D01*
X156470668Y-108812505D01*
X156506816Y-108634000D01*
X156506816Y-108609000D01*
X157365324Y-108609000D01*
X157584161Y-108699869D01*
X157882530Y-108700130D01*
X158158286Y-108586189D01*
X158369448Y-108375395D01*
X158483869Y-108099839D01*
X158484130Y-107801470D01*
X158370189Y-107525714D01*
X158286660Y-107442039D01*
X158369448Y-107359395D01*
X158483869Y-107083839D01*
X158484130Y-106785470D01*
X158370189Y-106509714D01*
X158159395Y-106298552D01*
X157883839Y-106184131D01*
X157797228Y-106184055D01*
X157547000Y-105933828D01*
X157547000Y-105156000D01*
X157503231Y-104935957D01*
X157465019Y-104878769D01*
X157378587Y-104749414D01*
X156506816Y-103877644D01*
X156506816Y-103116000D01*
X156475438Y-102949240D01*
X156376883Y-102796081D01*
X156226505Y-102693332D01*
X156048000Y-102657184D01*
X154848000Y-102657184D01*
X154681240Y-102688562D01*
X154528081Y-102787117D01*
X154425332Y-102937495D01*
X154389184Y-103116000D01*
X153205173Y-103116000D01*
X151790586Y-101701414D01*
X151604043Y-101576769D01*
X151384000Y-101533000D01*
X150876000Y-101533000D01*
X150655957Y-101576769D01*
X150469413Y-101701414D01*
X149961414Y-102209414D01*
X149836769Y-102395957D01*
X149793000Y-102616000D01*
X149793000Y-103146262D01*
X149732552Y-103206605D01*
X149618131Y-103482161D01*
X149617870Y-103780530D01*
X147325000Y-103780530D01*
X147325000Y-102430333D01*
X144525000Y-102430333D01*
X142455000Y-102430333D01*
X142455000Y-98551000D01*
X146586619Y-98551000D01*
X146586619Y-101351000D01*
X153641381Y-101351000D01*
X153641381Y-98551000D01*
X146586619Y-98551000D01*
X142455000Y-98551000D01*
X142455000Y-95846000D01*
X142649918Y-95846000D01*
X143289959Y-96486041D01*
X143565719Y-96670298D01*
X143891000Y-96735000D01*
X155829000Y-96735000D01*
X156154281Y-96670298D01*
X156430041Y-96486041D01*
X156816081Y-96100000D01*
X157265000Y-96100000D01*
X157265000Y-102870000D01*
X157329702Y-103195281D01*
X157513959Y-103471041D01*
X158783959Y-104741041D01*
X158926172Y-104836065D01*
X159075292Y-105059239D01*
X159497043Y-105341043D01*
X159994531Y-105440000D01*
X160045469Y-105440000D01*
X160542957Y-105341043D01*
X160964708Y-105059239D01*
X161246512Y-104637488D01*
X161345469Y-104140000D01*
X161246512Y-103642512D01*
X160964708Y-103220761D01*
X160542957Y-102938957D01*
X160196288Y-102870000D01*
X160542957Y-102801043D01*
X160964708Y-102519239D01*
X161246512Y-102097488D01*
X161345469Y-101600000D01*
X161246512Y-101102512D01*
X160964708Y-100680761D01*
X160542957Y-100398957D01*
X160045469Y-100300000D01*
X159994531Y-100300000D01*
X159497043Y-100398957D01*
X159075292Y-100680761D01*
X158965000Y-100845825D01*
X158965000Y-97774565D01*
X158991495Y-97792668D01*
X159170000Y-97828816D01*
X160870000Y-97828816D01*
X161036760Y-97797438D01*
X161189919Y-97698883D01*
X161292668Y-97548505D01*
X161328816Y-97370000D01*
X161328816Y-95670000D01*
X161297438Y-95503240D01*
X161198883Y-95350081D01*
X161048505Y-95247332D01*
X160870000Y-95211184D01*
X160391429Y-95211184D01*
X160542957Y-95181043D01*
X160964708Y-94899239D01*
X161246512Y-94477488D01*
X161345469Y-93980000D01*
X161246512Y-93482512D01*
X160964708Y-93060761D01*
X160542957Y-92778957D01*
X160045469Y-92680000D01*
X159994531Y-92680000D01*
X159497043Y-92778957D01*
X159075292Y-93060761D01*
X158926172Y-93283935D01*
X158783959Y-93378959D01*
X157762918Y-94400000D01*
X156464005Y-94400000D01*
X156464000Y-94399999D01*
X156248816Y-94442802D01*
X156248816Y-93130000D01*
X156217438Y-92963240D01*
X156118883Y-92810081D01*
X155968505Y-92707332D01*
X155790000Y-92671184D01*
X154090000Y-92671184D01*
X153923240Y-92702562D01*
X153770081Y-92801117D01*
X153667332Y-92951495D01*
X153631184Y-93130000D01*
X153631184Y-93608571D01*
X153601043Y-93457043D01*
X153319239Y-93035292D01*
X152897488Y-92753488D01*
X152400000Y-92654531D01*
X151902512Y-92753488D01*
X151480761Y-93035292D01*
X151198957Y-93457043D01*
X151100000Y-93954531D01*
X151100000Y-94005469D01*
X151198957Y-94502957D01*
X151480761Y-94924708D01*
X151645825Y-95035000D01*
X148074175Y-95035000D01*
X148239239Y-94924708D01*
X148521043Y-94502957D01*
X148620000Y-94005469D01*
X148620000Y-93954531D01*
X148521043Y-93457043D01*
X148239239Y-93035292D01*
X147817488Y-92753488D01*
X147320000Y-92654531D01*
X146822512Y-92753488D01*
X146400761Y-93035292D01*
X146118957Y-93457043D01*
X146088816Y-93608571D01*
X146088816Y-93130000D01*
X146057438Y-92963240D01*
X145958883Y-92810081D01*
X145808505Y-92707332D01*
X145630000Y-92671184D01*
X143930000Y-92671184D01*
X143763240Y-92702562D01*
X143610081Y-92801117D01*
X143507332Y-92951495D01*
X143471184Y-93130000D01*
X143471184Y-94306855D01*
X143327281Y-94210702D01*
X143002000Y-94146000D01*
X141703082Y-94146000D01*
X140936041Y-93378959D01*
X140793828Y-93283935D01*
X140644708Y-93060761D01*
X140222957Y-92778957D01*
X139725469Y-92680000D01*
X139674531Y-92680000D01*
X139177043Y-92778957D01*
X138755292Y-93060761D01*
X138473488Y-93482512D01*
X138374531Y-93980000D01*
X137685000Y-93980000D01*
X137685000Y-91965000D01*
X162035000Y-91965000D01*
X162035000Y-121395000D01*
M02*
